<?xml version="1.0" encoding="UTF-8"?>
<svg width="16px" height="16px" viewBox="0 0 16 16" version="1.1" xmlns="http://www.w3.org/2000/svg" xmlns:xlink="http://www.w3.org/1999/xlink">
    <title>select</title>
    <g id="页面-1" stroke="none" stroke-width="1" fill="none" fill-rule="evenodd">
        <g id="价格" transform="translate(-384.000000, -1632.000000)" fill="#403F3E" fill-rule="nonzero">
            <g id="编组-6备份" transform="translate(392.000000, 1640.000000) scale(1, -1) translate(-392.000000, -1640.000000) translate(384.000000, 1632.000000)">
                <g id="编组" transform="translate(2.000000, 5.000000)">
                    <path d="M5.4901727,6.45542763 L0.201932566,1.16694079 C-0.0608695079,0.900980355 -0.0596179957,0.472730493 0.204734055,0.208310607 C0.469086106,-0.0561092782 0.897335633,-0.0574706684 1.16336349,0.205263158 L5.97125822,5.01365132 L10.779153,0.205263158 C11.0493846,-0.0553239111 11.4796082,-0.0478168017 11.7405839,0.222039474 C11.9949336,0.485656942 11.9949336,0.903323321 11.7405839,1.16694079 L6.45234375,6.45542763 C6.32492525,6.58307048 6.15201386,6.65485982 5.97165824,6.65499883 C5.79130262,6.65513744 5.61828094,6.58361433 5.49066612,6.45616776 L5.48992599,6.45542763 L5.4901727,6.45542763 Z" id="路径"></path>
                </g>
            </g>
        </g>
    </g>
</svg>