<?xml version="1.0" encoding="UTF-8"?>
<svg width="56px" height="56px" viewBox="0 0 56 56" version="1.1" xmlns="http://www.w3.org/2000/svg" xmlns:xlink="http://www.w3.org/1999/xlink">
    <title>编组 8</title>
    <g id="页面-1" stroke="none" stroke-width="1" fill="none" fill-rule="evenodd">
        <g id="价格" transform="translate(-932.000000, -2446.000000)">
            <g id="编组-9备份" transform="translate(768.000000, 2414.000000)">
                <g id="编组-8" transform="translate(164.000000, 32.000000)">
                    <rect id="矩形" fill-opacity="0" fill="#FFFFFF" x="0" y="0" width="56" height="56"></rect>
                    <g id="编组" transform="translate(0.000000, 6.000000)">
                        <rect id="矩形" fill="#FCE2DB" x="8" y="7" width="47" height="32" rx="4"></rect>
                        <path d="M53.327428,43.6360148 L2.5479685,43.6360148 C1.14348075,43.6360148 0,42.4930457 0,41.0879824 L0,2.54713706 C0,1.14252137 1.14348075,0 2.5479685,0 L53.327428,0 C54.7320437,0 55.8755244,1.14252137 55.8755244,2.54713706 L55.8755244,41.0879824 C55.8755244,42.4930457 54.7319797,43.6360148 53.327428,43.6360148 Z M2.5479685,1.77127912 C2.11990675,1.77127912 1.77127912,2.11945906 1.77127912,2.54713706 L1.77127912,41.0879824 C1.77127912,41.5161081 2.11984281,41.8647357 2.5479685,41.8647357 L53.327428,41.8647357 C53.7554897,41.8647357 54.1042453,41.5161721 54.1042453,41.0879824 L54.1042453,2.54713706 C54.1042453,2.119459 53.7555537,1.77127912 53.327428,1.77127912 L2.5479685,1.77127912 Z M27.9385617,26.5248642 L0.339929563,4.91186981 L1.4314135,3.51761506 L27.9385617,24.2751894 L54.443983,3.51761506 L55.5355949,4.91186981 L27.9385617,26.5248642 Z M2.02557069,42.9111943 L0.773299687,41.6587314 L18.8362531,23.5941153 L20.0885879,24.8465141 L2.02557069,42.9111943 Z M37.4990215,23.5391294 L55.6175957,41.6577036 L54.3651695,42.9101297 L36.2465953,24.7915556 L37.4990215,23.5391294 L37.4990215,23.5391294 Z" id="形状" fill="#F66442" fill-rule="nonzero"></path>
                    </g>
                </g>
            </g>
        </g>
    </g>
</svg>