<?xml version="1.0" encoding="UTF-8"?>
<svg width="20px" height="20px" viewBox="0 0 20 20" version="1.1" xmlns="http://www.w3.org/2000/svg" xmlns:xlink="http://www.w3.org/1999/xlink">
    <title>编组</title>
    <g id="页面-1" stroke="none" stroke-width="1" fill="none" fill-rule="evenodd">
        <g id="价格" transform="translate(-384.000000, -1194.000000)" fill-rule="nonzero">
            <g id="编组-11" transform="translate(384.000000, 1193.000000)">
                <g id="编组" transform="translate(0.000000, 1.000000)">
                    <path d="M9.96578376,0.00102906586 C4.47052557,0.00102906586 0.0157085561,4.47227823 0.0157085561,9.98788222 C0.0157085561,15.5034862 4.47052557,19.9747354 9.96578376,19.9747354 C15.4611255,19.9747354 19.915859,15.5034862 19.915859,9.98788222 C19.915859,4.47229923 15.4611673,0.00102906586 9.96578376,0.00102906586 Z" id="形状" fill="#06CC76"></path>
                    <path d="M15.436748,7.59408602 L9.03154245,14.1733031 C8.73688168,14.4759955 8.25885695,14.4759955 7.96423797,14.1733031 L4.49484041,10.609459 C4.19999164,10.3067456 4.19999164,9.81586022 4.49484041,9.51306284 C4.78948028,9.21024446 5.2675259,9.21024446 5.56214489,9.51306284 L8.4979111,12.5285408 L14.3692346,6.49760585 C14.6640834,6.19480847 15.1421499,6.19480847 15.4367689,6.49760585 C15.7316176,6.80038222 15.7316176,7.29128864 15.4367689,7.59408602 L15.436748,7.59408602 Z" id="路径" fill="#FFFFFF"></path>
                </g>
            </g>
        </g>
    </g>
</svg>