<?xml version="1.0" encoding="UTF-8"?>
<svg width="56px" height="56px" viewBox="0 0 56 56" version="1.1" xmlns="http://www.w3.org/2000/svg" xmlns:xlink="http://www.w3.org/1999/xlink">
    <title>编组 8</title>
    <g id="页面-1" stroke="none" stroke-width="1" fill="none" fill-rule="evenodd">
        <g id="价格" transform="translate(-1340.000000, -2446.000000)">
            <g id="编组-9备份-2" transform="translate(1176.000000, 2414.000000)">
                <g id="编组-8" transform="translate(164.000000, 32.000000)">
                    <rect id="矩形" fill-opacity="0" fill="#FFFFFF" x="0" y="0" width="56" height="56"></rect>
                    <g id="编组-15" transform="translate(0.000000, 2.333333)" fill-rule="nonzero">
                        <g id="编组">
                            <path d="M46.3945192,13.5456731 L7.82721154,13.5456731 C7.08467182,13.5478907 6.48327535,14.1492872 6.48105769,14.8918269 L6.48105769,35.4879808 C6.48364537,36.379059 7.20536407,37.1007777 8.09644231,37.1033654 L19.6141346,37.1033654 L24.0301923,44.6418269 L28.3823077,37.1033654 L46.3945192,37.1033654 L46.3945192,13.5456731 Z" id="路径" fill="#FCE2DB"></path>
                            <path d="M24.0732692,50.0977897 C23.4503706,50.0985095 22.8722191,49.7742241 22.5480769,49.2423077 L17.5599038,41.0859615 L3.10625,40.97625 C1.22163462,40.8416346 -0.0908653846,39.3608654 0.00538461538,37.5967308 L0.00538461538,12.6255769 C0.00538461538,11.7216346 0.333173077,10.8856731 0.93625,10.28125 C1.54755084,9.68039867 2.37369494,9.34887473 3.23076923,9.36018599 L44.8841346,9.36018599 C46.6886538,9.36018599 48.0657692,10.6904808 48.1357692,12.4532692 L48.1357692,37.6822115 C48.1357692,39.8239423 46.4793269,40.9802885 44.9211538,40.9802885 L30.5240385,41.0576923 L25.6045192,49.2315385 C25.2829299,49.7674875 24.7043535,50.0960964 24.0793269,50.0977897 L24.0732692,50.0977897 Z M46.3521154,12.5259615 C46.3258654,11.8730769 45.8607692,11.1246154 44.8848077,11.1508654 L3.31490385,11.1508654 C2.37663462,11.1091346 1.78751462,11.75125 1.78971154,12.6316346 L1.78971154,37.6923077 C1.75,38.4326923 2.25076923,39.1225962 3.12038462,39.1865385 L17.6198077,39.2982692 C18.1749154,39.2866046 18.6974545,39.5595539 19.005,40.0218269 L24.0725962,48.3080769 L29.0769231,39.9915385 C29.4228846,39.5513462 29.9270192,39.2679808 30.4621154,39.2679808 L44.8827885,39.1932692 C45.4643269,39.2100962 46.3500962,38.8567308 46.3500962,37.6835577 L46.3521154,12.5259615 Z" id="形状" fill="#F66442"></path>
                            <path d="M11.2141346,25.5883654 C11.2141346,26.6024452 12.0362087,27.4245192 13.0502885,27.4245192 C14.0643682,27.4245192 14.8864423,26.6024452 14.8864423,25.5883654 C14.8864423,24.5742856 14.0643682,23.7522115 13.0502885,23.7522115 C12.0362087,23.7522115 11.2141346,24.5742856 11.2141346,25.5883654 Z" id="路径" fill="#F66442"></path>
                            <path d="M18.5600962,25.5883654 C18.5600962,26.6024452 19.3821702,27.4245192 20.39625,27.4245192 C21.4103298,27.4245192 22.2324038,26.6024452 22.2324038,25.5883654 C22.2324038,24.5742856 21.4103298,23.7522115 20.39625,23.7522115 C19.3821702,23.7522115 18.5600962,24.5742856 18.5600962,25.5883654 Z" id="路径" fill="#F66442"></path>
                            <path d="M25.9060577,25.5883654 C25.9060577,26.6024452 26.7281318,27.4245192 27.7422115,27.4245192 C28.7562913,27.4245192 29.5783654,26.6024452 29.5783654,25.5883654 C29.5783654,24.5742856 28.7562913,23.7522115 27.7422115,23.7522115 C26.7281318,23.7522115 25.9060577,24.5742856 25.9060577,25.5883654 L25.9060577,25.5883654 Z" id="路径" fill="#F66442"></path>
                            <path d="M33.2520192,25.5883654 C33.2520192,26.24436 33.6019881,26.850524 34.1700961,27.1785214 C34.7382041,27.5065187 35.438142,27.5065187 36.00625,27.1785214 C36.574358,26.850524 36.9243269,26.24436 36.9243269,25.5883654 C36.9243269,24.9323708 36.574358,24.3262067 36.00625,23.9982094 C35.438142,23.6702121 34.7382041,23.6702121 34.1700961,23.9982094 C33.6019881,24.3262067 33.2520192,24.9323708 33.2520192,25.5883654 L33.2520192,25.5883654 Z" id="路径" fill="#F66442"></path>
                            <path d="M55.8653846,3.14730769 C55.7980769,1.38384615 54.4182692,0.0511538462 52.61375,0.0511538462 L10.9603846,0.0511538462 C10.1017062,0.0390588014 9.27401594,0.371686509 8.6625,0.974615385 C8.05673077,1.58038462 7.72894231,2.41432692 7.73161816,3.31826923 L7.73161816,6.67826923 L9.51798077,6.67826923 L9.51798077,3.31961538 C9.51798077,2.44461538 10.1049038,1.79980769 11.0431731,1.83884615 L52.6097115,1.83884615 C53.5856731,1.81259615 54.0514423,2.56173077 54.0770192,3.21461538 L54.0770192,28.3749038 C54.0770192,29.5474038 53.19125,29.9021154 52.6097115,29.8846154 L50.8193269,29.8994231 L50.8193269,31.6864423 L52.6507692,31.6709615 C54.2089423,31.6709615 55.8653846,30.5173077 55.8653846,28.3728846 L55.8653846,3.14730769 Z" id="路径" fill="#F66442"></path>
                            <path d="M7.73028846,6.67961538 C7.73028846,7.17327298 8.13047702,7.57346154 8.62413462,7.57346154 C9.11779221,7.57346154 9.51798077,7.17327298 9.51798077,6.67961538 C9.51798077,6.18595779 9.11779221,5.78576923 8.62413462,5.78576923 C8.13047702,5.78576923 7.73028846,6.18595779 7.73028846,6.67961538 L7.73028846,6.67961538 Z" id="路径" fill="#F66442"></path>
                            <path d="M49.9254808,30.7899038 C49.9254808,31.2835614 50.3256693,31.68375 50.8193269,31.68375 C51.3129845,31.68375 51.7131731,31.2835614 51.7131731,30.7899038 C51.7131731,30.4705634 51.542807,30.1754806 51.26625,30.0158103 C50.989693,29.8561401 50.6489608,29.8561401 50.3724038,30.0158103 C50.0958469,30.1754806 49.9254808,30.4705634 49.9254808,30.7899038 Z" id="路径" fill="#F66442"></path>
                        </g>
                    </g>
                </g>
            </g>
        </g>
    </g>
</svg>