<?xml version="1.0" encoding="UTF-8"?>
<svg width="56px" height="56px" viewBox="0 0 56 56" version="1.1" xmlns="http://www.w3.org/2000/svg" xmlns:xlink="http://www.w3.org/1999/xlink">
    <title>编组 8</title>
    <g id="页面-1" stroke="none" stroke-width="1" fill="none" fill-rule="evenodd">
        <g id="价格" transform="translate(-524.000000, -2446.000000)">
            <g id="编组-9" transform="translate(360.000000, 2414.000000)">
                <g id="编组-8" transform="translate(164.000000, 32.000000)">
                    <rect id="矩形" fill-opacity="0" fill="#FFFFFF" x="0" y="0" width="56" height="56"></rect>
                    <g id="编组" transform="translate(0.000000, 1.000000)">
                        <circle id="椭圆形" fill="#FCE2DB" cx="28" cy="26" r="18"></circle>
                        <path d="M52.8554688,18.0140625 C51.1984375,12.9992188 47.9828125,8.50390625 43.7445313,5.3046875 C39.178125,1.859375 33.7367188,0.03828125 28,0.03828125 C22.2632813,0.03828125 16.821875,1.859375 12.2554688,5.3046875 C8.0171875,8.4984375 4.8015625,12.99375 3.14453125,18.0140625 C1.28515625,18.725 0,20.5296875 0,22.5585938 L0,29.8648438 C0,32.1453125 1.61875,34.146875 3.85,34.6226563 C4.1890625,34.69375 4.528125,34.7320313 4.8671875,34.7320313 C7.55234375,34.7320313 9.734375,32.55 9.734375,29.8648438 L9.734375,22.5585938 C9.734375,20.1960938 8.0390625,18.221875 5.80234375,17.784375 C9.2640625,8.6953125 18.1617188,2.471875 27.9945312,2.471875 C37.8273437,2.471875 46.725,8.68984375 50.1867188,17.784375 C47.95,18.221875 46.2546875,20.1960938 46.2546875,22.5585938 L46.2546875,29.8648438 C46.2546875,31.9976563 47.6328125,33.8078125 49.546875,34.4640625 C46.3640625,41.3492188 40.0476562,46.3203125 32.6101562,47.7859375 C31.9648438,45.8445313 30.14375,44.4664063 28,44.4664063 C25.3148437,44.4664063 23.1328125,46.6484375 23.1328125,49.3335938 C23.1328125,52.01875 25.3148437,54.2007813 28,54.2007813 C30.3789062,54.2007813 32.3585937,52.4835938 32.7851562,50.225 C41.43125,48.628125 48.7320312,42.74375 52.1390625,34.6117188 L52.15,34.6117188 C54.38125,34.1304688 56,32.1289063 56,29.8539063 L56,22.5585938 C56,20.5296875 54.7148438,18.725 52.8554688,18.0140625 Z M7.30625,22.5585938 L7.30625,29.8648438 C7.30625,31.2101563 6.2125,32.2984375 4.87265625,32.2984375 C4.703125,32.2984375 4.53359375,32.2820313 4.3640625,32.24375 C3.2484375,32.003125 2.4390625,31.0023438 2.4390625,29.8648438 L2.4390625,22.5585938 C2.4390625,21.4210938 3.2484375,20.4203125 4.3640625,20.1796875 C4.53359375,20.1414063 4.703125,20.125 4.87265625,20.125 C6.2125,20.125 7.30625,21.21875 7.30625,22.5585938 Z M28,51.778125 C26.6601562,51.778125 25.5664062,50.684375 25.5664062,49.3445313 C25.5664062,48.0046875 26.6601562,46.9109375 28,46.9109375 C29.3070312,46.9109375 30.3734375,47.9390625 30.428125,49.2460938 C30.428125,49.2789063 30.4335938,49.30625 30.4335938,49.3445313 C30.4335938,50.684375 29.3398438,51.778125 28,51.778125 Z M53.5664062,29.8648438 C53.5664062,31.0023438 52.7570313,32.003125 51.6414062,32.24375 C51.5210937,32.2710938 51.3898437,32.2875 51.23125,32.2929688 C51.1984375,32.2929688 51.165625,32.2984375 51.1328125,32.2984375 C49.7929688,32.2984375 48.6992188,31.2046875 48.6992188,29.8648438 L48.6992188,22.5585938 C48.6992188,21.21875 49.7929688,20.125 51.1328125,20.125 C51.3023437,20.125 51.471875,20.1414063 51.6414062,20.1796875 C52.7570312,20.4203125 53.5664062,21.4210938 53.5664062,22.5585938 L53.5664062,29.8648438 L53.5664062,29.8648438 Z" id="形状" fill="#F66442" fill-rule="nonzero"></path>
                        <path d="M37.3351562,35.0328125 C37.8382813,34.584375 37.8765625,33.8132813 37.428125,33.315625 C36.9796875,32.8125 36.2085938,32.7742188 35.7109375,33.2226562 C27.5570313,40.5234375 20.6609375,33.6 20.3601563,33.2882813 C19.8953125,32.8015625 19.1242188,32.7851562 18.6375,33.25 C18.1507813,33.7148438 18.134375,34.4859375 18.5992188,34.9726562 C18.659375,35.0328125 22.5476563,38.9976563 28.0765625,38.9976563 C30.84375,38.9921875 34.0210938,37.996875 37.3351562,35.0328125 Z" id="路径" fill="#F66442" fill-rule="nonzero"></path>
                    </g>
                </g>
            </g>
        </g>
    </g>
</svg>