<?xml version="1.0" encoding="UTF-8"?>
<svg width="12px" height="12px" viewBox="0 0 12 12" version="1.1" xmlns="http://www.w3.org/2000/svg" xmlns:xlink="http://www.w3.org/1999/xlink">
    <title>编组备份</title>
    <g id="页面-1" stroke="none" stroke-width="1" fill="none" fill-rule="evenodd">
        <g id="价格" transform="translate(-1454.000000, -816.000000)" fill="#403F3E" fill-rule="nonzero">
            <g id="编组-4备份-3" transform="translate(1268.000000, 420.000000)">
                <g id="编组-2备份" transform="translate(24.000000, 392.000000)">
                    <g id="编组备份" transform="translate(162.000000, 4.000000)">
                        <path d="M6,4.95 C6.23828364,4.95 6.43527069,5.13572677 6.44925,5.3736 L6.45000021,5.4 L6.45000021,8.55 C6.45023472,8.79355419 6.25665494,8.99309274 6.01320553,9.00023988 C5.76975612,9.00738702 5.5648038,8.81954849 5.55075,8.5764 L5.55,8.55 L5.55,5.4 C5.55,5.15147186 5.75147186,4.95 6,4.95 Z M6,3 C6.33137085,3 6.6,3.26862915 6.6,3.6 C6.6,3.93137085 6.33137085,4.2 6,4.2 C5.66862915,4.2 5.4,3.93137085 5.4,3.6 C5.4,3.26862915 5.66862915,3 6,3 L6,3 Z" id="形状"></path>
                        <path d="M6,0 C2.68635,0 0,2.68635 0,6 C0,9.31365 2.68635,12 6,12 C9.31365,12 12,9.31365 12,6 C12,2.68635 9.31365,0 6,0 Z M6,0.9 C8.8167,0.9 11.1,3.1833 11.1,6 C11.1,8.8167 8.8167,11.1 6,11.1 C3.1833,11.1 0.9,8.8167 0.9,6 C0.9,3.1833 3.1833,0.9 6,0.9 Z" id="形状"></path>
                    </g>
                </g>
            </g>
        </g>
    </g>
</svg>