<?xml version="1.0" encoding="UTF-8"?>
<svg width="30px" height="30px" viewBox="0 0 30 30" version="1.1" xmlns="http://www.w3.org/2000/svg" xmlns:xlink="http://www.w3.org/1999/xlink">
    <title>编组 16备份</title>
    <g id="页面-1" stroke="none" stroke-width="1" fill="none" fill-rule="evenodd">
        <g id="画板" transform="translate(-411.000000, -4171.000000)">
            <g id="编组-16备份" transform="translate(411.000000, 4171.000000)">
                <circle id="椭圆形备份" fill="#0666FF" cx="15" cy="15" r="15"></circle>
                <g id="编组" transform="translate(11.000000, 8.000000)" fill="#FFFFFF" fill-rule="nonzero">
                    <path d="M7.78774841,0.108006915 L7.78774841,2.48415899 L6.37465797,2.48415899 C5.85862494,2.48415899 5.51060267,2.59216591 5.33059115,2.80817973 C5.15057963,3.02419356 5.06057387,3.3482143 5.06057387,3.78024195 L5.06057387,5.48135082 L7.69774264,5.48135082 L7.34672018,8.14552133 L5.06057387,8.14552133 L5.06057387,14.9769585 L2.3063976,14.9769585 L2.3063976,8.14552133 L0.0112507088,8.14552133 L0.0112507088,5.48135082 L2.3063976,5.48135082 L2.3063976,3.51922524 C2.3063976,2.40315381 2.61841757,1.53759842 3.2424575,0.922559051 C3.86649744,0.307519684 4.69755062,-1.00725879e-15 5.73561706,-1.00725879e-15 C6.61767351,-1.00725879e-15 7.30171729,0.0360023049 7.78774841,0.108006915 L7.78774841,0.108006915 Z" id="路径"></path>
                </g>
            </g>
        </g>
    </g>
</svg>