<?xml version="1.0" encoding="UTF-8"?>
<svg width="30px" height="30px" viewBox="0 0 30 30" version="1.1" xmlns="http://www.w3.org/2000/svg" xmlns:xlink="http://www.w3.org/1999/xlink">
    <title>ins_normol</title>
    <g id="页面-1" stroke="none" stroke-width="1" fill="none" fill-rule="evenodd">
        <g id="画板" transform="translate(-188.000000, -4216.000000)">
            <g id="ins_normol" transform="translate(188.000000, 4216.000000)">
                <circle id="椭圆形备份-2" fill="#D8D1C9" cx="15" cy="15" r="15"></circle>
                <g id="编组" transform="translate(7.000000, 7.000000)" fill="#FFFFFF" fill-rule="nonzero">
                    <path d="M10.6659929,8 C10.6659929,6.53133725 9.46799609,5.33334045 7.99933334,5.33334045 C6.53067059,5.33334045 5.33267377,6.53133725 5.33267377,8 C5.33267377,9.46866275 6.53067058,10.6666596 7.99933334,10.6666596 C9.46799611,10.6666596 10.6659929,9.46866275 10.6659929,8 Z M12.1033224,8 C12.1033224,10.2706606 10.2699939,12.1039891 7.99933334,12.1039891 C5.72867274,12.1039891 3.89534427,10.2706606 3.89534427,8 C3.89534427,5.72933938 5.72867272,3.89601094 7.99933334,3.89601094 C10.269994,3.89601094 12.1033224,5.7293394 12.1033224,8 Z M13.2286527,3.72934472 C13.2286527,4.26067665 12.8013205,4.68734216 12.2706553,4.68734216 C11.73999,4.68734216 11.3126578,4.26000997 11.3126578,3.72934472 C11.3126578,3.19867948 11.73999,2.77134728 12.2706553,2.77134728 C12.8013205,2.77134728 13.2286527,3.19867948 13.2286527,3.72934472 L13.2286527,3.72934472 Z M7.99933334,1.43735082 C6.83266979,1.43735082 4.33267645,1.34335108 3.28067924,1.76001664 C2.91601356,1.90601625 2.64534761,2.08268244 2.36401503,2.36401503 C2.08268244,2.64534761 1.90534958,2.91601356 1.76001664,3.28067924 C1.34335108,4.33267643 1.43735084,6.83266977 1.43735082,7.99933334 C1.43735081,9.16599692 1.34335108,11.6659902 1.76001664,12.7179874 C1.90601625,13.0826531 2.08268244,13.3533191 2.36401503,13.6346516 C2.64534761,13.9159842 2.91601356,14.0933171 3.28067924,14.23865 C4.33267643,14.6553156 6.83266977,14.5613158 7.99933334,14.5613158 C9.16599692,14.5613158 11.6659902,14.6553156 12.7179874,14.23865 C13.0826531,14.0926504 13.3533191,13.9159842 13.6346516,13.6346516 C13.9159842,13.353319 14.0933171,13.0826531 14.23865,12.7179874 C14.6553156,11.6659902 14.5613158,9.1659969 14.5613158,7.99933334 C14.5613158,6.83266979 14.6553156,4.33267645 14.23865,3.28067924 C14.0926504,2.91601356 13.9159842,2.64534761 13.6346516,2.36401503 C13.353319,2.08268244 13.0826531,1.90534958 12.7179874,1.76001664 C11.6659902,1.34335108 9.1659969,1.43735082 7.99933334,1.43735082 Z M15.999312,8 C15.999312,9.10399706 16.0099786,10.1979941 15.9473121,11.3019912 C15.8846457,12.5833211 15.5933131,13.7186514 14.6559823,14.6559823 C13.7186514,15.5933131 12.5833211,15.8853123 11.3019912,15.9473121 C10.1979941,16.0099786 9.10399706,15.999312 8,15.999312 C6.89600294,15.999312 5.80200586,16.0099786 4.6980088,15.9473121 C3.41667887,15.8846457 2.28134856,15.5933131 1.34401774,14.6559823 C0.406686915,13.7186514 0.114687688,12.5833211 0.0526878509,11.3019912 C-0.00997864351,10.1979941 0.000687997326,9.10399706 0.000687997326,8 C0.000687997326,6.89600294 -0.00997864351,5.80200586 0.0526878509,4.6980088 C0.115354345,3.41667887 0.406686915,2.28134856 1.34401774,1.34401774 C2.28134856,0.406686915 3.41667887,0.114687688 4.6980088,0.0526878509 C5.80200586,-0.00997864351 6.89600294,0.000687997326 8,0.000687997326 C9.10399706,0.000687997326 10.1979941,-0.00997864351 11.3019912,0.0526878509 C12.5833211,0.115354345 13.7186514,0.406686915 14.6559823,1.34401774 C15.5933131,2.28134856 15.8853123,3.41667887 15.9473121,4.6980088 C16.0099786,5.80200586 15.999312,6.89600294 15.999312,8 Z" id="形状"></path>
                </g>
            </g>
        </g>
    </g>
</svg>