<?xml version="1.0" encoding="UTF-8"?>
<svg width="132px" height="24px" viewBox="0 0 132 24" version="1.1" xmlns="http://www.w3.org/2000/svg" xmlns:xlink="http://www.w3.org/1999/xlink">
    <title>编组 7</title>
    <g id="页面-1" stroke="none" stroke-width="1" fill="none" fill-rule="evenodd">
        <g id="价格" transform="translate(-360.000000, -3106.000000)">
            <g id="编组-10" transform="translate(0.000000, 2786.000000)">
                <g id="编组-7" transform="translate(360.000000, 320.000000)">
                    <path d="M127.139777,-2.34479103e-14 L63.257494,-2.34479103e-14 C60.6635679,-2.34479103e-14 58.5413106,2.03379021 58.5413106,4.51955245 L58.5413106,19.1966434 C58.5413106,21.6822378 60.6635679,23.7161958 63.257494,23.7161958 L127.139777,23.7161958 C129.733703,23.7161958 131.85596,21.6822378 131.85596,19.1966434 L131.85596,4.51955245 C131.85596,2.03379021 129.733703,-2.34479103e-14 127.139777,-2.34479103e-14" id="Fill-1" fill="#F66442"></path>
                    <path d="M20.6270935,20.8736392 L20.6270935,2.84242238 C20.6270935,2.20885594 20.8127343,1.69512168 21.185361,1.30172308 C21.5574833,0.908324476 22.0723674,0.711625175 22.7291725,0.711625175 L33.5684744,0.711625175 C34.2469712,0.711625175 34.7889279,0.908324476 35.1943445,1.30172308 C35.5994247,1.69512168 35.8020489,2.19811469 35.8020489,2.8096951 C35.8020489,3.39996084 35.5994247,3.89154126 35.1943445,4.28510769 C34.7889279,4.67833846 34.2469712,4.87520559 33.5684744,4.87520559 L25.6525101,4.87520559 C25.5211827,4.87520559 25.4554349,4.94066014 25.4554349,5.0719049 L25.4554349,9.49763916 C25.4554349,9.62871608 25.5211827,9.69433846 25.6525101,9.69433846 L31.9918731,9.69433846 C32.6703699,9.69433846 33.2071139,9.88583497 33.6014324,10.2679888 C33.9954145,10.6506462 34.1924897,11.1479329 34.1924897,11.7596811 C34.1924897,12.371765 33.9954145,12.8692196 33.6014324,13.2513734 C33.2071139,13.6340308 32.6703699,13.8250238 31.9918731,13.8250238 L25.6525101,13.8250238 C25.5211827,13.8250238 25.4554349,13.8906462 25.4554349,14.0217231 L25.4554349,18.6443245 C25.4554349,18.7754014 25.5211827,18.8410238 25.6525101,18.8410238 L33.5684744,18.8410238 C34.2469712,18.8410238 34.7889279,19.0377231 35.1943445,19.4309538 C35.5994247,19.8243524 35.8020489,20.3162685 35.8020489,20.9061986 C35.8020489,21.5184503 35.5994247,22.0211077 35.1943445,22.4145063 C34.7889279,22.8077371 34.2469712,23.0044364 33.5684744,23.0044364 L22.7291725,23.0044364 C22.0723674,23.0044364 21.5574833,22.8077371 21.185361,22.4145063 C20.8127343,22.0211077 20.6270935,21.5077091 20.6270935,20.8736392" id="Fill-3" fill="#201515"></path>
                    <path d="M46.2139903,23.1028196 C45.534989,23.1028196 44.9657916,22.868358 44.5058935,22.3980923 C44.0459954,21.9281622 43.8161304,21.3108755 43.8161304,20.5457287 L43.8161304,5.10466573 C43.8161304,4.97342098 43.7505508,4.90796643 43.6190553,4.90796643 L39.8416693,4.90796643 C39.0970884,4.90796643 38.5058629,4.70606434 38.068161,4.30142098 C37.6297865,3.89728112 37.4110196,3.38908531 37.4110196,2.77683357 C37.4110196,2.14343497 37.6297865,1.62433007 38.068161,1.21985455 C38.5058629,0.815546853 39.0970884,0.613309091 39.8416693,0.613309091 L52.618933,0.613309091 C53.3631776,0.613309091 53.9544031,0.815546853 54.3927776,1.21985455 C54.8304795,1.62433007 55.0495827,2.14343497 55.0495827,2.77683357 C55.0495827,3.38908531 54.8304795,3.89728112 54.3927776,4.30142098 C53.9544031,4.70606434 53.3631776,4.90796643 52.618933,4.90796643 L48.841547,4.90796643 C48.7102196,4.90796643 48.64464,4.97342098 48.64464,5.10466573 L48.64464,20.5457287 C48.64464,21.3108755 48.4146069,21.9281622 47.9548769,22.3980923 C47.4949789,22.868358 46.9145152,23.1028196 46.2139903,23.1028196" id="Fill-5" fill="#201515"></path>
                    <path d="M16.9324892,8.10414545 C16.8216764,7.21127832 16.6558777,6.44546014 16.4354293,5.80568392 C15.8389911,3.97580979 14.7952662,2.65295664 13.3040866,1.83695664 C11.812907,1.02146014 9.86300637,0.613292308 7.45556178,0.613292308 L2.12074395,0.613292308 C1.45788535,0.613292308 0.938629299,0.81166993 0.563143949,1.20859301 C0.187322293,1.60534825 -1.05515596e-13,2.12378182 -1.05515596e-13,2.76288671 L-1.05515596e-13,20.9861035 C-1.05515596e-13,21.6257119 0.187322293,22.138607 0.563143949,22.5241175 C0.938629299,22.9101315 1.45788535,23.1028028 2.12074395,23.1028028 L7.45556178,23.1028028 C9.86300637,23.1028028 11.812907,22.6951385 13.3040866,21.8791385 C14.7952662,21.0638098 15.8389911,19.7407888 16.4354293,17.9104112 C16.6558777,17.2711385 16.8216764,16.5048168 16.9324892,15.6117818 C17.0427975,14.7187469 17.0981197,13.4677259 17.0981197,11.8580476 C17.0981197,10.2488727 17.0427975,8.99718042 16.9324892,8.10414545" id="Fill-7" fill="#F66442"></path>
                    <path d="M12.0448907,14.6195916 C11.9673722,15.3140811 11.8735429,15.8487944 11.7632346,16.2235636 C11.4758614,17.1056895 10.9456754,17.7505007 10.1726767,18.1585007 C9.3991735,18.5666685 8.44961427,18.770249 7.32299006,18.770249 L5.60883975,18.770249 C5.2012372,18.770249 4.87098497,18.4406266 4.87098497,18.0339692 L4.87098497,11.0696056 C4.87098497,10.7436755 5.11867414,10.4759832 5.44304102,10.4377175 C7.85855694,10.1527385 9.73228433,8.10216503 9.73228433,5.61472448 L9.73228433,5.61187133 C9.73228433,5.48465455 9.86159389,5.39671049 9.97812382,5.4484028 C10.0443761,5.47777343 10.1092831,5.50848671 10.1726767,5.54104615 C10.9456754,5.93796923 11.4758614,6.58865455 11.7632346,7.49226294 C11.8735429,7.8677035 11.9673722,8.40191329 12.0448907,9.0964028 C12.1220729,9.79089231 12.1609162,10.7119552 12.1609162,11.8579133 C12.1609162,13.0047105 12.1220729,13.9249343 12.0448907,14.6195916" id="Fill-9" fill="#FEFEFE"></path>
                    <path d="M69.6705921,10.7655273 C69.3046915,11.1463385 68.7983832,11.3363245 68.1520036,11.3363245 L65.7003348,11.3363245 C65.6270201,11.3363245 65.590531,11.2970517 65.590531,11.2183385 L65.590531,7.32110769 C65.590531,7.24222657 65.6270201,7.20295385 65.7003348,7.20295385 L68.1520036,7.20295385 C68.7983832,7.20295385 69.3046915,7.39344336 69.6705921,7.77358322 C70.0364927,8.15439441 70.2194431,8.65302378 70.2194431,9.26963916 C70.2194431,9.88659021 70.0364927,10.3852196 69.6705921,10.7655273 M71.8569157,7.09453427 C71.5093437,6.47170909 71.0274176,5.9860028 70.4114736,5.63808671 C69.7955297,5.29067413 69.0850838,5.11646434 68.2799679,5.11646434 L64.3828571,5.11646434 C64.0901029,5.11646434 63.8583883,5.21196084 63.6877131,5.40194685 C63.5167017,5.59226853 63.4314482,5.84468811 63.4314482,6.15970909 L63.4314482,17.3791217 C63.4314482,17.746842 63.5350303,18.0418909 63.742531,18.2649399 C63.9498634,18.4881566 64.2059603,18.5995972 64.5109896,18.5995972 C64.8281259,18.5995972 65.0874176,18.4881566 65.2885284,18.2649399 C65.4898074,18.0418909 65.590531,17.746842 65.590531,17.3791217 L65.590531,13.5606042 C65.590531,13.4818909 65.6270201,13.4424503 65.7003348,13.4424503 L68.2799679,13.4424503 C69.0850838,13.4424503 69.7955297,13.2687441 70.4114736,12.920828 C71.0274176,12.5734154 71.5093437,12.0841846 71.8569157,11.4543105 C72.2046558,10.824772 72.3783577,10.0963804 72.3783577,9.26963916 C72.3783577,8.44306573 72.2046558,7.71803077 71.8569157,7.09453427" id="Fill-11" fill="#FEFEFE"></path>
                    <path d="M77.1592968,9.09301259 C76.5818599,9.26218741 76.0565503,9.56831329 75.5815185,10.0061874 C75.550242,9.76182378 75.4690242,9.56747413 75.3365197,9.42515245 C75.1628178,9.23885874 74.9078981,9.14554406 74.5715924,9.14554406 L74.5391389,9.14554406 C74.202665,9.14554406 73.9475771,9.23885874 73.7742115,9.42515245 C73.6005096,9.61161399 73.5139108,9.88568392 73.5139108,10.2465231 L73.5139108,17.306551 C73.5139108,17.6677259 73.6005096,17.941628 73.7742115,18.1279217 C73.9475771,18.3143832 74.202665,18.4075301 74.5391389,18.4075301 L74.5715924,18.4075301 C74.9078981,18.4075301 75.1628178,18.3143832 75.3365197,18.1279217 C75.5098854,17.941628 75.5969885,17.6677259 75.5969885,17.306551 L75.5969885,13.9685371 C75.5969885,13.3863273 75.6592051,12.9054881 75.7839745,12.5270266 C75.9087439,12.148565 76.0985885,11.8541874 76.3536764,11.644565 C76.608428,11.434607 76.9314497,11.2890965 77.3220688,11.2076979 C77.6474446,11.1492923 77.8860535,11.0301315 78.0382318,10.8492084 C78.1899057,10.6689566 78.2659108,10.4096559 78.2659108,10.071642 L78.2659108,10.0369007 C78.2659108,9.68713846 78.168214,9.42246713 77.9729885,9.24154406 C77.7777631,9.06112448 77.5063643,9.01178182 77.1592968,9.09301259" id="Fill-13" fill="#FEFEFE"></path>
                    <path d="M85.7198247,15.2532252 C85.5136693,15.6785119 85.2205789,16.0074629 84.8410578,16.240414 C84.4612005,16.4737007 84.0164362,16.5901762 83.5064285,16.5901762 C83.0939496,16.5901762 82.7196413,16.4706797 82.3835037,16.2318545 C82.047198,15.9930294 81.7815164,15.6612252 81.5861228,15.2357706 C81.3907292,14.8104839 81.2932005,14.3242741 81.2932005,13.7764699 C81.2932005,13.2288336 81.3907292,12.739435 81.5861228,12.3086098 C81.7815164,11.8776168 82.0498884,11.5426238 82.3917432,11.3036308 C82.7334298,11.0651413 83.1050476,10.9456448 83.5064285,10.9456448 C84.0164362,10.9456448 84.4612005,11.0621203 84.8410578,11.2949035 C85.2205789,11.5281902 85.5136693,11.8601622 85.7198247,12.2911552 C85.925812,12.7223161 86.0290578,13.2170853 86.0290578,13.7764699 C86.0290578,14.3355189 85.925812,14.8279385 85.7198247,15.2532252 M86.9404464,9.14547692 L86.8915139,9.14547692 C86.5552082,9.14547692 86.297598,9.24164476 86.1186833,9.43398042 C85.9584336,9.60567273 85.8740209,9.8491972 85.8570375,10.1558266 C85.7169661,9.99269371 85.5663011,9.83845594 85.4023521,9.69596643 C84.8328183,9.20102937 84.1465865,8.95314126 83.3438247,8.95314126 C82.5299648,8.95314126 81.7976591,9.16897343 81.1467394,9.59996643 C80.4956515,10.0311273 79.9856438,10.6165259 79.6168846,11.3561622 C79.2479572,12.0961343 79.0636617,12.9025678 79.0636617,13.7764699 C79.0636617,14.6502042 79.2479572,15.4571413 79.6168846,16.1967776 C79.9856438,16.9367497 80.4956515,17.5223161 81.1467394,17.9531413 C81.7976591,18.3841343 82.5299648,18.5994629 83.3438247,18.5994629 C84.1465865,18.5994629 84.8328183,18.3522462 85.4023521,17.8569734 C85.5663011,17.7144839 85.7169661,17.5602462 85.8570375,17.3969455 C85.8740209,17.7040783 85.9584336,17.9472671 86.1186833,18.1191273 C86.297598,18.3112951 86.5552082,18.4074629 86.8915139,18.4074629 L86.9404464,18.4074629 C87.2765839,18.4074629 87.5343623,18.3112951 87.7134451,18.1191273 C87.8923597,17.9269594 87.9819852,17.6502042 87.9819852,17.2890294 L87.9819852,10.2637427 C87.9819852,9.9029035 87.8923597,9.62614825 87.7134451,9.43398042 C87.5343623,9.24164476 87.2765839,9.14547692 86.9404464,9.14547692" id="Fill-15" fill="#FEFEFE"></path>
                    <path d="M92.9048285,11.4434014 C93.2682069,11.2280727 93.6941381,11.1203245 94.182454,11.1203245 C94.4968999,11.1203245 94.7735113,11.1611077 95.0124566,11.2425063 C95.2508973,11.3242406 95.4679827,11.4583385 95.6633763,11.6444643 C95.912747,11.865835 96.1405941,12.002786 96.3469177,12.0551497 C96.5527368,12.1076811 96.7805839,12.0524643 97.0304591,11.8889958 L97.1442986,11.8193455 C97.426291,11.6444643 97.5917534,11.4232615 97.6406859,11.1550657 C97.6896183,10.8873734 97.5999929,10.6252196 97.3721457,10.368772 C96.9596668,9.9261986 96.4795903,9.57979301 95.9319164,9.32888392 C95.3839062,9.07847832 94.8007521,8.95327552 94.182454,8.95327552 C93.3685941,8.95327552 92.6172871,9.16893986 91.9283648,9.59993287 C91.2392744,10.0310937 90.6914324,10.6164923 90.2845024,11.3561287 C89.8777406,12.0962685 89.6744438,12.9025343 89.6744438,13.7764364 C89.6744438,14.6501706 89.8777406,15.4571077 90.2845024,16.1967441 C90.6914324,16.9367161 91.2392744,17.5222825 91.9283648,17.9531077 C92.6172871,18.3841007 93.3685941,18.5995972 94.182454,18.5995972 C94.7898222,18.5995972 95.3622145,18.4743944 95.8992948,18.223821 C96.436375,17.9735832 96.9164515,17.6327161 97.3396922,17.2015552 C97.578133,16.9571916 97.6785203,16.7009119 97.6406859,16.4328839 C97.6025152,16.1648559 97.4426018,15.9260308 97.1606094,15.7164084 L97.0955343,15.6637091 C96.8458273,15.4774154 96.6152897,15.4017231 96.4037534,15.4366322 C96.1922171,15.4715413 95.9668922,15.6001007 95.7284515,15.8211357 C95.5006043,16.030758 95.2618273,16.1853315 95.0124566,16.2841846 C94.7625814,16.3833734 94.4859699,16.4328839 94.182454,16.4328839 C93.6941381,16.4328839 93.2682069,16.3251357 92.9048285,16.1094713 C92.5411139,15.8941427 92.2591215,15.5851636 92.0585152,15.1832056 C91.8575725,14.7812476 91.7573534,14.3124923 91.7573534,13.7764364 C91.7573534,13.2408839 91.8575725,12.7714573 92.0585152,12.369835 C92.2591215,11.9678769 92.5411139,11.6592336 92.9048285,11.4434014" id="Fill-17" fill="#FEFEFE"></path>
                    <path d="M103.475136,9.14554406 L102.20575,9.14554406 L102.20575,7.27555804 C102.20575,6.91471888 102.118815,6.64400559 101.945282,6.46308252 C101.771748,6.2824951 101.51666,6.1922014 101.180522,6.1922014 L101.147901,6.1922014 C100.811427,6.1922014 100.556507,6.2824951 100.382973,6.46308252 C100.209439,6.64400559 100.122673,6.91471888 100.122673,7.27555804 L100.122673,9.14554406 L99.4878955,9.14554406 C99.1731134,9.14554406 98.931814,9.23281678 98.7636611,9.4076979 C98.5953401,9.58241119 98.5114318,9.83869091 98.5114318,10.1767049 L98.5114318,10.1941594 C98.5114318,10.5202573 98.5953401,10.7738517 98.7636611,10.9541035 C98.931814,11.1350266 99.1731134,11.2251524 99.4878955,11.2251524 L100.122673,11.2251524 L100.122673,14.6853483 C100.122673,15.7453762 100.388354,16.5872224 100.920054,17.2103832 C101.451585,17.8338797 102.281587,18.2151944 103.410061,18.3549986 C103.735605,18.3899077 103.990357,18.3111944 104.174989,18.1191944 C104.359284,17.9268587 104.4516,17.6559776 104.4516,17.306551 L104.4516,17.2714741 C104.4516,16.9455441 104.372736,16.6948028 104.215682,16.5200895 C104.058122,16.3452084 103.811274,16.2289007 103.475136,16.1704951 C103.127732,16.1124252 102.86491,16.0132364 102.685827,15.8734322 C102.506744,15.733628 102.381975,15.5414601 102.311518,15.2967608 C102.240894,15.0522294 102.20575,14.7318378 102.20575,14.335586 L102.20575,11.2251524 L103.475136,11.2251524 C103.80068,11.2251524 104.04467,11.1350266 104.207442,10.9541035 C104.370214,10.7738517 104.4516,10.5202573 104.4516,10.1941594 L104.4516,10.1767049 C104.4516,9.83869091 104.370214,9.58241119 104.207442,9.4076979 C104.04467,9.23281678 103.80068,9.14554406 103.475136,9.14554406" id="Fill-19" fill="#FEFEFE"></path>
                    <path d="M107.104211,5.16117483 L107.07159,5.16117483 C106.789429,5.16117483 106.54813,5.26909091 106.347524,5.48458741 C106.146581,5.70008392 106.046362,5.95904895 106.046362,6.26215385 L106.046362,6.29706294 C106.046362,6.60016783 106.146581,6.85913287 106.347524,7.0747972 C106.54813,7.29029371 106.789429,7.39820979 107.07159,7.39820979 L107.104211,7.39820979 C107.386204,7.39820979 107.627503,7.29029371 107.828446,7.0747972 C108.029052,6.85913287 108.129439,6.60016783 108.129439,6.29706294 L108.129439,6.26215385 C108.129439,5.95904895 108.029052,5.70008392 107.828446,5.48458741 C107.627503,5.26909091 107.386204,5.16117483 107.104211,5.16117483" id="Fill-21" fill="#FEFEFE"></path>
                    <path d="M107.104211,9.14554406 L107.07159,9.14554406 C106.789429,9.14554406 106.54813,9.25346014 106.347524,9.46895664 C106.146581,9.68445315 106.046362,9.94341818 106.046362,10.2465231 L106.046362,17.306551 C106.046362,17.6094881 106.146581,17.8687888 106.347524,18.0841175 C106.54813,18.2997818 106.789429,18.4075301 107.07159,18.4075301 L107.104211,18.4075301 C107.386204,18.4075301 107.627503,18.2997818 107.828446,18.0841175 C108.029052,17.8687888 108.129439,17.6094881 108.129439,17.306551 L108.129439,10.2465231 C108.129439,9.94341818 108.029052,9.68445315 107.828446,9.46895664 C107.627503,9.25346014 107.386204,9.14554406 107.104211,9.14554406" id="Fill-23" fill="#FEFEFE"></path>
                    <path d="M113.101316,11.4434014 C113.464695,11.2280727 113.890626,11.1203245 114.378942,11.1203245 C114.693388,11.1203245 114.969999,11.1611077 115.208944,11.2425063 C115.447385,11.3242406 115.66447,11.4583385 115.859864,11.6444643 C116.109235,11.865835 116.337082,12.002786 116.543405,12.0551497 C116.749224,12.1076811 116.977072,12.0524643 117.226947,11.8889958 L117.340786,11.8193455 C117.622779,11.6444643 117.788241,11.4232615 117.837174,11.1550657 C117.886106,10.8873734 117.796481,10.6252196 117.568633,10.368772 C117.156154,9.9261986 116.676078,9.57979301 116.128236,9.32888392 C115.580394,9.07847832 114.99724,8.95327552 114.378942,8.95327552 C113.565082,8.95327552 112.813775,9.16893986 112.124852,9.59993287 C111.435762,10.0310937 110.88792,10.6164923 110.48099,11.3561287 C110.074228,12.0962685 109.870763,12.9025343 109.870763,13.7764364 C109.870763,14.6501706 110.074228,15.4571077 110.48099,16.1967441 C110.88792,16.9367161 111.435762,17.5222825 112.124852,17.9531077 C112.813775,18.3841007 113.565082,18.5995972 114.378942,18.5995972 C114.98631,18.5995972 115.558702,18.4743944 116.095782,18.223821 C116.632863,17.9735832 117.112939,17.6327161 117.53618,17.2015552 C117.774621,16.9571916 117.875008,16.7009119 117.837174,16.4328839 C117.799003,16.1648559 117.639089,15.9260308 117.357097,15.7164084 L117.292022,15.6637091 C117.042315,15.4774154 116.811777,15.4017231 116.600241,15.4366322 C116.388705,15.4715413 116.16338,15.6001007 115.924939,15.8211357 C115.697092,16.030758 115.458315,16.1853315 115.208944,16.2841846 C114.959069,16.3833734 114.682458,16.4328839 114.378942,16.4328839 C113.890626,16.4328839 113.464695,16.3251357 113.101316,16.1094713 C112.737602,15.8941427 112.455609,15.5851636 112.255003,15.1832056 C112.05406,14.7812476 111.953841,14.3124923 111.953841,13.7764364 C111.953841,13.2408839 112.05406,12.7714573 112.255003,12.369835 C112.455609,11.9678769 112.737602,11.6592336 113.101316,11.4434014" id="Fill-25" fill="#FEFEFE"></path>
                    <path d="M121.424463,12.5357874 C121.45843,12.4329063 121.495759,12.3328783 121.539647,12.2385566 C121.734873,11.8193119 122.019724,11.5021091 122.394032,11.2861091 C122.76834,11.0709483 123.232106,10.9628643 123.785329,10.9628643 C124.262715,10.9628643 124.677716,11.0766545 125.030333,11.3037315 C125.382781,11.5309762 125.659561,11.8978573 125.860335,12.4048783 C125.876982,12.4470042 125.892116,12.4916476 125.907418,12.5357874 L121.424463,12.5357874 Z M126.405655,14.3530741 L126.535637,14.3530741 C127.034715,14.3530741 127.417095,14.2045427 127.683112,13.9074797 C127.948794,13.6104168 128.033038,13.2057734 127.935342,12.6930462 C127.783331,11.8777175 127.501339,11.1901091 127.089196,10.6310601 C126.676717,10.0716755 126.185879,9.65226294 125.616345,9.37248671 C125.046812,9.09304615 124.436417,8.95324196 123.785329,8.95324196 C122.917156,8.95324196 122.138944,9.16017902 121.450022,9.57371748 C120.760931,9.98725594 120.223851,10.558221 119.838781,11.2861091 C119.453543,12.0143329 119.261176,12.8388923 119.261176,13.7589483 C119.261176,14.6793399 119.453543,15.5064168 119.838781,16.2403469 C120.223851,16.9742769 120.769003,17.5512839 121.474404,17.9705287 C122.179469,18.3899413 123.004259,18.5995636 123.948101,18.5995636 C124.501492,18.5995636 125.046812,18.4830881 125.583724,18.2501371 C126.120804,18.017186 126.611642,17.6910881 127.056575,17.2715077 C127.295184,17.0269762 127.398261,16.7733818 127.365808,16.5113958 C127.333186,16.249242 127.175795,16.0132699 126.893803,15.8036476 L126.84487,15.7687385 C126.606093,15.5938573 126.381273,15.5240392 126.169568,15.5591161 C125.958032,15.5938573 125.727326,15.722249 125.477956,15.9434517 C125.260702,16.153242 125.022261,16.3133538 124.761961,16.4239552 C124.501492,16.5348923 124.230261,16.5901091 123.948101,16.5901091 C123.340396,16.5901091 122.835938,16.4825287 122.434557,16.2666965 C122.033176,16.0512 121.734873,15.7336615 121.539647,15.3144168 C121.41101,15.0383329 121.328952,14.7149203 121.285064,14.3530741 L126.161497,14.3530741 L126.405655,14.3530741 Z" id="Fill-27" fill="#FEFEFE"></path>
                </g>
            </g>
        </g>
    </g>
</svg>