<?xml version="1.0" encoding="UTF-8"?>
<svg width="30px" height="30px" viewBox="0 0 30 30" version="1.1" xmlns="http://www.w3.org/2000/svg" xmlns:xlink="http://www.w3.org/1999/xlink">
    <title>编组 18备份 3</title>
    <g id="页面-1" stroke="none" stroke-width="1" fill="none" fill-rule="evenodd">
        <g id="画板" transform="translate(-449.000000, -4171.000000)">
            <g id="编组-18备份-3" transform="translate(449.000000, 4171.000000)">
                <circle id="椭圆形备份-2" fill="#010001" cx="15" cy="15" r="15"></circle>
                <g id="编组" transform="translate(8.000000, 6.000000)" fill-rule="nonzero">
                    <path d="M0.857147287,12.2609612 C0.860376985,9.38276446 3.19281098,7.05033047 6.07100775,7.04710078 L6.07100775,10.1752868 C4.9197869,10.1766026 3.98686614,11.1095233 3.98555039,12.2607442 C3.98555039,13.2854574 4.53968992,14.387876 5.75649612,14.387876 C5.83745736,14.387876 7.73950388,14.3692093 7.73950388,12.7515039 L7.73950388,0.89448062 L11.0730233,0.89448062 C11.0767277,2.45090645 12.3383001,3.71131434 13.8947287,3.7135814 L13.891907,6.83612403 C12.8275384,6.84429643 11.7815142,6.55890787 10.8687752,6.01131783 L10.8674729,12.7515039 C10.8674729,15.8462636 8.23395349,17.5160622 5.75606202,17.5160622 C2.96344186,17.5167132 0.857147287,15.2571783 0.857147287,12.2609612 L0.857147287,12.2609612 Z" id="路径" fill="#FF4040"></path>
                    <path d="M0.0230077519,11.4266047 C0.0262374503,8.54840787 2.35867144,6.21597388 5.23686822,6.21274419 L5.23686822,9.34093023 C4.08564736,9.34224598 3.1527266,10.2751667 3.15141085,11.4263876 C3.15141085,12.4511008 3.70555039,13.5535194 4.92235659,13.5535194 C5.00331783,13.5535194 6.90536434,13.5348527 6.90536434,11.9171473 L6.90536434,0.060124031 L10.2388837,0.060124031 C10.2425881,1.61654986 11.5041606,2.87695775 13.0605891,2.87922481 L13.0577674,6.00176744 C11.9933988,6.00993984 10.9473747,5.72455128 10.0346357,5.17696124 L10.0333333,11.9171473 C10.0333333,15.011907 7.39981395,16.6817056 4.92192248,16.6817056 C2.12930233,16.6823566 0.0230077519,14.4228217 0.0230077519,11.4266047 L0.0230077519,11.4266047 Z" id="路径" fill="#00F5FF"></path>
                    <path d="M5.23708527,7.10982946 C1.87057364,7.53699225 -0.792248062,11.8307597 1.9704186,15.6945426 C4.52254264,17.7819535 9.89137984,16.567969 10.040062,12.0517209 L10.0363721,5.18086822 C10.9545419,5.71981482 12.0004922,6.00255271 13.0651473,5.9995969 L13.0651473,3.58356589 C12.4391858,3.37215328 11.8980202,2.96464266 11.5218915,2.42145736 C10.9699605,2.05840073 10.5603662,1.5158531 10.3623876,0.885581395 L7.74102326,0.885581395 L7.73928682,12.7857984 C7.73689922,14.4490853 4.96316279,15.0414264 4.25903876,13.4271938 C2.49568992,12.584155 2.8944186,9.38021705 5.24077519,9.34527132 L5.23708527,7.10982946 Z" id="路径" fill="#FFFFFF"></path>
                </g>
            </g>
        </g>
    </g>
</svg>