<?xml version="1.0" encoding="UTF-8"?>
<svg width="30px" height="30px" viewBox="0 0 30 30" version="1.1" xmlns="http://www.w3.org/2000/svg" xmlns:xlink="http://www.w3.org/1999/xlink">
    <title>编组 18备份</title>
    <g id="页面-1" stroke="none" stroke-width="1" fill="none" fill-rule="evenodd">
        <g id="价格" transform="translate(-646.000000, -3103.000000)">
            <g id="编组-10" transform="translate(0.000000, 2786.000000)">
                <g id="编组-18备份" transform="translate(646.000000, 317.000000)">
                    <circle id="椭圆形备份-2" fill="#D8D1C9" cx="15" cy="15" r="15"></circle>
                    <g id="编组" transform="translate(9.000000, 7.000000)" fill="#FFFFFF" fill-rule="nonzero">
                        <path d="M10.5214724,2.54601227 C10.3259202,2.54601227 10.0575153,2.54601227 9.81211656,1.89992331 C9.61656442,1.38420245 9.59739264,0.820552147 9.59739264,0.776457055 L9.59739264,0.0115030675 L6.79639571,0.0115030675 L6.79639571,0.782208589 C6.79639571,0.810966258 6.79256135,1.55674847 6.78872699,2.38496933 L6.78872699,2.47507669 C6.77722393,5.23773006 6.75421779,10.377684 6.75421779,10.9470859 C6.75421779,11.9305982 5.95283742,12.7319785 4.96932515,12.7319785 C3.98581288,12.7319785 3.18443252,11.9305982 3.18443252,10.9470859 C3.18443252,9.96357362 3.98581288,9.16219325 4.96932515,9.16219325 L5.74194785,9.16219325 L5.74194785,5.98542945 L4.96932515,5.98542945 C2.44056748,5.98542945 0.00766871166,7.59202454 0.00766871166,10.9470859 C0.00766871166,13.889954 1.83473926,15.9087423 4.96932515,15.9087423 C8.14992331,15.9087423 9.9309816,13.4758436 9.93289877,10.9470859 C9.93289877,10.5559816 9.94248466,8.24578221 9.95398773,5.59815951 C10.2549847,5.68059816 10.1955521,5.72277607 10.5214724,5.72277607 L12.2603528,5.72277607 L12.2603528,2.54601227 L10.5214724,2.54601227 L10.5214724,2.54601227 Z" id="路径"></path>
                    </g>
                </g>
            </g>
        </g>
    </g>
</svg>