<?xml version="1.0" encoding="UTF-8"?>
<svg width="30px" height="30px" viewBox="0 0 30 30" version="1.1" xmlns="http://www.w3.org/2000/svg" xmlns:xlink="http://www.w3.org/1999/xlink">
    <title>编组 17备份</title>
    <g id="页面-1" stroke="none" stroke-width="1" fill="none" fill-rule="evenodd">
        <g id="画板" transform="translate(-335.000000, -4171.000000)">
            <g id="编组-17备份" transform="translate(335.000000, 4171.000000)">
                <circle id="椭圆形" fill="#FF0200" cx="15" cy="15" r="15"></circle>
                <g id="编组" transform="translate(7.000000, 9.000000)" fill="#FFFFFF" fill-rule="nonzero">
                    <path d="M6.66666667,8.01041667 L6.66666667,3.34375 L10.6666667,5.68508333 L6.66666667,8.01041667 Z M15.84,2.45508333 C15.84,2.45508333 15.6833333,1.34508333 15.204,0.85575 C14.5953333,0.21375 13.9133333,0.211083328 13.6006667,0.17375 C11.362,0.0104166719 8.00333333,0.0104166719 8.00333333,0.0104166719 L7.99666667,0.0104166719 C7.99666667,0.0104166719 4.638,0.0104166719 2.39933333,0.17375 C2.086,0.211083328 1.40466666,0.21375 0.795333328,0.85575 C0.316,1.34508333 0.16,2.45575 0.16,2.45575 C0.16,2.45575 0,3.75841667 0,5.06175 L0,6.28508333 C0,7.58908333 0.16,8.89308333 0.16,8.89308333 C0.16,8.89308333 0.316,10.0030833 0.795333328,10.4924167 C1.40466666,11.1344167 2.204,11.11375 2.56,11.1810833 C3.84,11.30575 8,11.34375 8,11.34375 C8,11.34375 11.362,11.3384167 13.6006667,11.17575 C13.914,11.13775 14.5953333,11.1350833 15.204,10.4930833 C15.684,10.00375 15.84,8.89308333 15.84,8.89308333 C15.84,8.89308333 16,7.58975 16,6.28575 L16,5.06308333 C16,3.75908333 15.84,2.45508333 15.84,2.45508333 Z" id="形状"></path>
                </g>
            </g>
        </g>
    </g>
</svg>