<?xml version="1.0" encoding="UTF-8"?>
<svg width="1080px" height="500px" viewBox="0 0 1080 500" version="1.1" xmlns="http://www.w3.org/2000/svg" xmlns:xlink="http://www.w3.org/1999/xlink">
    <title>编组 10</title>
    <defs>
        <rect id="path-1" x="0" y="0" width="1080" height="500"></rect>
    </defs>
    <g id="24DET" stroke="none" stroke-width="1" fill="none" fill-rule="evenodd">
        <g id="8分享有礼" transform="translate(-420.000000, -100.000000)">
            <g id="编组-10" transform="translate(420.000000, 100.000000)">
                <mask id="mask-2" fill="white">
                    <use xlink:href="#path-1"></use>
                </mask>
                <g id="蒙版"></g>
                <g id="30%" mask="url(#mask-2)" fill="#F66442" fill-rule="nonzero" opacity="0.05">
                    <g transform="translate(32.000000, 12.000000)">
                        <path d="M116.737325,295.856354 C146.323644,295.856354 166.744636,292.311234 178.000301,285.220994 C189.255966,278.130755 194.883798,261.694291 194.883798,235.911602 L194.883798,146.961326 C194.883798,132.780847 190.542328,121.178637 181.859386,112.154696 C173.176445,103.130755 161.438394,98.6187845 146.645234,98.6187845 C129.279351,98.6187845 116.89812,104.097606 109.50154,115.055249 C102.10496,126.012891 98.4066705,136.64825 98.4066705,146.961326 L98.4066705,203.038674 L0,203.038674 L0,145.994475 C0,126.012891 3.85908512,106.998158 11.5772554,88.9502762 C19.2954256,70.9023941 29.9079097,55.4327808 43.4147076,42.5414365 C56.9215055,29.6500921 72.6794364,19.3370166 90.6885003,11.6022099 C108.697564,3.86740331 127.99299,0 148.574777,0 C175.588373,0 197.938908,5.31767956 215.626381,15.9530387 C233.313854,26.5883978 246.659857,37.3848987 255.664389,48.3425414 C262.096198,56.0773481 267.72403,63.8121547 272.547886,71.5469613 C277.371743,79.281768 281.391623,88.6279926 284.607527,99.5856354 C290.396155,120.856354 293.290469,152.440147 293.290469,194.337017 C293.290469,218.186004 292.808083,237.52302 291.843312,252.348066 C290.878541,267.173112 288.466613,279.41989 284.607527,289.088398 C280.105261,299.401473 273.834248,308.103131 265.794488,315.19337 C257.754727,322.28361 246.659857,330.018416 232.509878,338.39779 C247.946219,348.066298 259.684269,357.090239 267.72403,365.469613 C275.763791,373.848987 281.713214,383.517495 285.572299,394.475138 C289.431384,406.077348 291.682517,419.774401 292.325698,435.566298 C292.968879,451.358195 293.290469,471.500921 293.290469,495.994475 C293.290469,518.554328 292.808083,537.246777 291.843312,552.071823 C290.878541,566.896869 289.431384,579.143646 287.501841,588.812155 C285.572299,599.12523 282.999575,607.826888 279.783671,614.917127 C276.567767,622.007366 272.387091,629.41989 267.241644,637.154696 C255.021208,655.202578 239.424073,670.188766 220.450237,682.11326 C201.476402,694.037753 176.553144,700 145.680463,700 C130.244123,700 113.843011,697.421731 96.477128,692.265193 C79.1112449,687.108656 63.353314,678.729282 49.2033353,667.127072 C35.0533565,655.524862 23.3153059,640.377532 13.9891836,621.685083 C4.66306118,602.992634 0,580.110497 0,553.038674 L0,496.961326 L98.4066705,496.961326 L98.4066705,548.20442 C98.4066705,563.674033 102.748141,576.404236 111.431083,586.395028 C120.114024,596.38582 131.852075,601.381215 146.645234,601.381215 C161.438394,601.381215 173.176445,596.38582 181.859386,586.395028 C190.542328,576.404236 194.883798,563.029466 194.883798,546.270718 L194.883798,447.651934 C194.883798,420.58011 189.738352,402.854512 179.447458,394.475138 C173.65883,389.3186 165.779865,386.095764 155.810562,384.80663 C145.841258,383.517495 132.816846,382.872928 116.737325,382.872928 L116.737325,295.856354 Z" id="路径"></path>
                        <path d="M357.783661,147.928177 C357.783661,124.723757 361.803541,104.097606 369.843302,86.0497238 C377.883063,68.0018416 388.656342,52.5322284 402.16314,39.640884 C415.669938,26.7495396 431.267074,16.9198895 448.954547,10.1519337 C466.64202,3.3839779 485.13347,0 504.428896,0 C523.724321,0 542.215771,3.3839779 559.903244,10.1519337 C577.590718,16.9198895 593.187853,26.7495396 606.694651,39.640884 C620.201449,52.5322284 630.974728,68.0018416 639.014489,86.0497238 C647.05425,104.097606 651.07413,124.723757 651.07413,147.928177 L651.07413,552.071823 C651.07413,575.276243 647.05425,595.902394 639.014489,613.950276 C630.974728,631.998158 620.201449,647.467772 606.694651,660.359116 C593.187853,673.25046 577.590718,683.08011 559.903244,689.848066 C542.215771,696.616022 523.724321,700 504.428896,700 C485.13347,700 466.64202,696.616022 448.954547,689.848066 C431.267074,683.08011 415.669938,673.25046 402.16314,660.359116 C388.656342,647.467772 377.883063,631.998158 369.843302,613.950276 C361.803541,595.902394 357.783661,575.276243 357.783661,552.071823 L357.783661,147.928177 Z M456.190332,552.071823 C456.190332,566.252302 460.692598,578.015654 469.69713,587.361878 C478.701661,596.708103 490.278917,601.381215 504.428896,601.381215 C518.578874,601.381215 530.15613,596.708103 539.160662,587.361878 C548.165194,578.015654 552.66746,566.252302 552.66746,552.071823 L552.66746,147.928177 C552.66746,133.747698 548.165194,121.984346 539.160662,112.638122 C530.15613,103.291897 518.578874,98.6187845 504.428896,98.6187845 C490.278917,98.6187845 478.701661,103.291897 469.69713,112.638122 C460.692598,121.984346 456.190332,133.747698 456.190332,147.928177 L456.190332,552.071823 Z" id="形状"></path>
                        <path d="M774.59873,157.596685 C781.035176,157.596685 786.667067,155.179558 791.494402,150.345304 C796.321736,145.51105 798.735404,139.548803 798.735404,132.458564 L798.735404,83.1491713 C798.735404,76.0589319 796.321736,70.0966851 791.494402,65.2624309 C786.667067,60.4281768 781.035176,58.0110497 774.59873,58.0110497 C768.162284,58.0110497 762.530393,60.4281768 757.703058,65.2624309 C752.875724,70.0966851 750.462056,76.0589319 750.462056,83.1491713 L750.462056,132.458564 C750.462056,139.548803 752.875724,145.51105 757.703058,150.345304 C762.530393,155.179558 768.162284,157.596685 774.59873,157.596685 Z M774.59873,215.607735 C749.496589,215.607735 729.543606,208.839779 714.739779,195.303867 C699.935953,181.767956 692.534039,164.042357 692.534039,142.127072 L692.534039,79.281768 C692.534039,54.7882136 699.935953,35.4511971 714.739779,21.2707182 C729.543606,7.09023941 749.496589,0 774.59873,0 C799.700871,0 819.653854,7.09023941 834.457681,21.2707182 C849.261507,35.4511971 856.663421,54.7882136 856.663421,79.281768 L856.663421,142.127072 C856.663421,164.042357 849.261507,181.767956 834.457681,195.303867 C819.653854,208.839779 799.700871,215.607735 774.59873,215.607735 Z M908.798636,616.850829 C908.798636,623.941068 911.212303,629.903315 916.039638,634.737569 C920.866973,639.571823 926.498863,641.98895 932.935309,641.98895 C939.371756,641.98895 945.003646,639.571823 949.830981,634.737569 C954.658316,629.903315 957.071983,623.941068 957.071983,616.850829 L957.071983,567.541436 C957.071983,560.451197 954.658316,554.48895 949.830981,549.654696 C945.003646,544.820442 939.371756,542.403315 932.935309,542.403315 C926.498863,542.403315 920.866973,544.820442 916.039638,549.654696 C911.212303,554.48895 908.798636,560.451197 908.798636,567.541436 L908.798636,616.850829 Z M932.935309,700 C907.833169,700 887.880185,693.232044 873.076359,679.696133 C858.272532,666.160221 850.870619,648.434622 850.870619,626.519337 L850.870619,563.674033 C850.870619,539.180479 858.272532,519.843462 873.076359,505.662983 C887.880185,491.482505 907.833169,484.392265 932.935309,484.392265 C958.03745,484.392265 977.990434,491.482505 992.79426,505.662983 C1007.59809,519.843462 1015,539.180479 1015,563.674033 L1015,626.519337 C1015,648.434622 1007.59809,666.160221 992.79426,679.696133 C977.990434,693.232044 958.03745,700 932.935309,700 Z M704.119643,694.198895 L939.693578,5.80110497 L1003.4144,5.80110497 L767.840461,694.198895 L704.119643,694.198895 Z" id="形状"></path>
                    </g>
                </g>
            </g>
        </g>
    </g>
</svg>