<?xml version="1.0" encoding="UTF-8"?>
<svg width="560px" height="380px" viewBox="0 0 560 380" version="1.1" xmlns="http://www.w3.org/2000/svg" xmlns:xlink="http://www.w3.org/1999/xlink">
    <title>位图备份</title>
    <defs>
        <rect id="path-1" x="0" y="0" width="560" height="380" rx="8"></rect>
        <polygon id="path-3" points="0 0 339.541421 0 339.541421 339.541363 0 339.541363"></polygon>
        <polygon id="path-5" points="0 -5.94355976e-14 34.3273307 -5.94355976e-14 34.3273307 46.2128415 0 46.2128415"></polygon>
    </defs>
    <g id="24DET" stroke="none" stroke-width="1" fill="none" fill-rule="evenodd">
        <g id="8分享有礼" transform="translate(-1000.000000, -2622.000000)">
            <g id="位图备份" transform="translate(1000.000000, 2622.000000)">
                <mask id="mask-2" fill="white">
                    <use xlink:href="#path-1"></use>
                </mask>
                <use id="蒙版" fill="#FFF1ED" xlink:href="#path-1"></use>
                <g id="编组" mask="url(#mask-2)">
                    <g transform="translate(110.000000, 20.000000)">
                        <g id="编组" stroke-width="1" fill="none" transform="translate(0.000000, 0.458637)">
                            <mask id="mask-4" fill="white">
                                <use xlink:href="#path-3"></use>
                            </mask>
                            <g id="Clip-2"></g>
                            <path d="M333.782454,64.1488551 C322.413623,41.2078224 299.694258,28.8106412 285.607383,21.1244203 C224.707858,-12.1058598 141.74456,-3.25954327 86.6021201,27.7247835 C32.1733033,58.3086446 -15.2630496,130.721817 4.62168819,209.398147 C24.5827549,288.378223 102.270467,328.98784 161.031736,337.598373 C254.336039,351.269621 332.731101,289.070412 337.022252,267.483434 C338.345984,260.82504 338.000413,254.926276 338.000413,254.926276 C336.344179,239.342099 323.52562,230.083293 320.538858,194.566804 C315.044219,129.216673 353.721563,104.383101 333.782454,64.1488551" id="Fill-1" fill="#FFF1ED" mask="url(#mask-4)"></path>
                        </g>
                        <path d="M69.8390796,323.928155 L273.328408,323.928155 C278.925516,323.928155 283.852393,319.616615 284.332847,314.298682 L308.658779,44.8553886 C309.163805,37.6391658 305.879569,33.5011955 299.560996,33.5011955 L96.0716677,33.5011955 C91.0407532,33.5011955 86.4385356,36.9835733 85.2057707,41.7232876 L60.5745223,314.298682 C60.0935453,319.617137 64.2419716,323.928155 69.8390796,323.928155" id="Fill-3" fill="#F66442"></path>
                        <path d="M63.9480529,324.189189 L267.464566,324.189189 C273.063243,324.189189 277.991166,319.871376 278.472142,314.544556 L302.833626,44.7112524 C303.339697,37.4840507 300.052324,33.3753573 293.732705,33.3753573 L90.212009,33.3753573 C85.1810945,33.3753573 80.5767857,36.8687139 79.3429753,41.6157474 L54.6829728,314.545079 C54.2019958,319.871376 58.3498993,324.189189 63.9480529,324.189189" id="Fill-5" fill="#FFD2C8"></path>
                        <path d="M302.162924,52.801128 C302.144103,52.801128 302.125805,52.8000824 302.106984,52.798514 C301.769778,52.7681916 301.520924,52.470195 301.550724,52.1324655 L302.222001,44.6564105 C302.476605,41.0255573 301.720634,38.1444007 300.035124,36.3370775 C298.58226,34.7786076 296.461779,33.9886552 293.732757,33.9886552 L247.032508,33.9886552 C246.693733,33.9886552 246.41874,33.7141847 246.41874,33.3748868 C246.41874,33.0361117 246.693733,32.7616412 247.032508,32.7616412 L293.732757,32.7616412 C296.816238,32.7616412 299.238375,33.6828166 300.932773,35.500073 C302.856158,37.5625232 303.725054,40.7631112 303.445355,44.7541743 L302.773556,52.2422537 C302.744802,52.5611623 302.477128,52.801128 302.162924,52.801128" id="Fill-7" fill="#000000"></path>
                        <path d="M286.806009,227.583712 C286.788234,227.583712 286.770459,227.583712 286.752684,227.581621 C286.414431,227.552344 286.164533,227.25487 286.194332,226.917141 L296.365949,109.532622 C296.395226,109.195415 296.695837,108.944994 297.030429,108.974271 C297.368159,109.003547 297.618058,109.301021 297.588781,109.638751 L287.416641,227.023269 C287.388933,227.342701 287.121258,227.583712 286.806009,227.583712" id="Fill-9" fill="#000000"></path>
                        <path d="M72.4406945,314.547117 L260.713898,314.547117 C265.892765,314.547117 270.452113,310.552395 270.897017,305.624995 L293.734535,52.6718916 C294.202442,45.985789 291.161308,42.1845026 285.315347,42.1845026 L97.0384836,42.1845026 C92.3839859,42.1845026 88.1247258,45.4164587 86.9834511,49.8079875 L63.8698941,305.624995 C63.4244676,310.552395 67.2618273,314.547117 72.4406945,314.547117" id="Fill-11" fill="#FFFFFF"></path>
                        <path d="M101.940528,135.761341 L223.996796,135.761341 C225.948413,135.761341 227.674702,134.165753 227.852454,132.197407 C228.030206,130.229061 226.591981,128.633472 224.640364,128.633472 L102.584096,128.633472 C100.633002,128.633472 98.9067132,130.229061 98.7289608,132.197407 C98.5512085,134.165753 99.9889113,135.761341 101.940528,135.761341" id="Fill-13" fill="#FFF1ED"></path>
                        <path d="M100.051909,152.367385 L222.496619,152.367385 C224.448235,152.367385 226.174524,150.771796 226.352277,148.80345 C226.530029,146.835104 225.091803,145.239515 223.140187,145.239515 L100.696,145.239515 C98.7443834,145.239515 97.0180944,146.835104 96.840342,148.80345 C96.6625897,150.771796 98.1002926,152.367385 100.051909,152.367385" id="Fill-15" fill="#FFF1ED"></path>
                        <path d="M135.939116,175.715 L220.387692,175.715 C222.339308,175.715 224.065597,174.119411 224.243349,172.151065 C224.421102,170.182719 222.982876,168.58713 221.03126,168.58713 L136.583207,168.58713 C134.631591,168.58713 132.905302,170.182719 132.727549,172.151065 C132.549797,174.119411 133.9875,175.715 135.939116,175.715" id="Fill-17" fill="#FFF1ED"></path>
                        <path d="M138.525988,192.321043 L218.887828,192.321043 C220.839444,192.321043 222.56521,190.725454 222.743485,188.757108 C222.921238,186.788762 221.483012,185.193173 219.531396,185.193173 L139.170079,185.193173 C137.218463,185.193173 135.492173,186.788762 135.314421,188.757108 C135.136669,190.725454 136.574372,192.321043 138.525988,192.321043" id="Fill-19" fill="#FFF1ED"></path>
                        <path d="M114.079602,215.668658 L216.778639,215.668658 C218.730256,215.668658 220.456545,214.073069 220.634297,212.104723 C220.812049,210.136377 219.374346,208.540788 217.42273,208.540788 L114.723693,208.540788 C112.772077,208.540788 111.045787,210.136377 110.868035,212.104723 C110.690283,214.073069 112.127986,215.668658 114.079602,215.668658" id="Fill-21" fill="#FFF1ED"></path>
                        <path d="M92.4852002,232.274701 L215.278618,232.274701 C217.230235,232.274701 218.956524,230.679112 219.134276,228.710766 C219.312029,226.742421 217.874326,225.146832 215.922709,225.146832 L93.1292911,225.146832 C91.1776748,225.146832 89.4513857,226.742421 89.2736334,228.710766 C89.095881,230.679112 90.5335839,232.274701 92.4852002,232.274701" id="Fill-23" fill="#FFF1ED"></path>
                        <path d="M113.363574,256.043328 L213.131788,256.043328 C215.083405,256.043328 216.809694,254.447739 216.987446,252.479393 C217.165198,250.511047 215.726973,248.915458 213.775356,248.915458 L114.007142,248.915458 C112.056048,248.915458 110.329759,250.511047 110.152007,252.479393 C109.973732,254.447739 111.411957,256.043328 113.363574,256.043328" id="Fill-25" fill="#FFF1ED"></path>
                        <path d="M103.198701,272.649371 L211.63182,272.649371 C213.583436,272.649371 215.309725,271.053782 215.487477,269.085436 C215.66523,267.117091 214.227004,265.521502 212.275388,265.521502 L103.842269,265.521502 C101.891175,265.521502 100.164886,267.117091 99.9871338,269.085436 C99.8093815,271.053782 101.247084,272.649371 103.198701,272.649371" id="Fill-27" fill="#FFF1ED"></path>
                        <path d="M155.011003,109.179156 L268.496471,109.179156 C270.448087,109.179156 272.174377,107.583567 272.352129,105.615222 C272.529881,103.646876 271.092178,102.051287 269.140562,102.051287 L155.655094,102.051287 C153.703477,102.051287 151.977188,103.646876 151.799436,105.615222 C151.621684,107.583567 153.059386,109.179156 155.011003,109.179156" id="Fill-29" fill="#FFF1ED"></path>
                        <path d="M156.576112,91.8526931 L270.061581,91.8526931 C272.013197,91.8526931 273.739486,90.2571043 273.917238,88.2887584 C274.094991,86.3204125 272.657288,84.7248237 270.705672,84.7248237 L157.220203,84.7248237 C155.268587,84.7248237 153.542298,86.3204125 153.364545,88.2887584 C153.186793,90.2571043 154.624496,91.8526931 156.576112,91.8526931" id="Fill-31" fill="#FFF1ED"></path>
                        <path d="M272.193406,67.2463823 L232.854719,67.2463823 C230.917218,67.2463823 229.202954,68.8304695 229.02677,70.7846998 C228.850063,72.7389301 230.277833,74.3230172 232.215333,74.3230172 L271.645511,74.3230172 C273.663,74.3230172 275.436864,72.6453487 275.511102,70.5839442 C275.579589,68.689836 274.074445,67.2463823 272.193406,67.2463823" id="Fill-33" fill="#FFF1ED"></path>
                        <path d="M251.546268,129.541682 C249.053553,129.541682 246.840536,131.590016 246.613117,134.107826 L245.433155,147.176284 C245.32389,148.383432 245.687237,149.511636 246.456277,150.353346 C247.209633,151.177803 248.269351,151.632117 249.439903,151.632117 L262.397526,151.632117 C264.890242,151.632117 267.103259,149.58326 267.330154,147.06545 L268.511162,133.997515 C268.619905,132.790368 268.256558,131.66164 267.487517,130.81993 C266.734161,129.995473 265.674443,129.541682 264.503892,129.541682 L251.546268,129.541682 Z M262.397526,152.859131 L249.439903,152.859131 C247.920643,152.859131 246.53888,152.263138 245.550263,151.181463 C244.545962,150.082012 244.070213,148.62026 244.210324,147.06545 L245.390808,133.997515 C245.674167,130.863846 248.435079,128.314668 251.546268,128.314668 L264.503892,128.314668 C266.023675,128.314668 267.404915,128.910138 268.393532,129.992336 C269.397832,131.091787 269.873581,132.553016 269.733471,134.107826 L268.552986,147.176284 C268.269628,150.309953 265.508715,152.859131 262.397526,152.859131 L262.397526,152.859131 Z" id="Fill-35" fill="#FFD2C8"></path>
                        <path d="M254.212135,148.842451 C253.953871,148.842451 253.694039,148.810037 253.437344,148.744164 C252.373444,148.469171 251.550555,147.645759 251.27347,146.584996 L249.143056,139.23389 C248.797485,138.040336 249.484445,136.79241 250.678,136.446315 C251.871555,136.100744 253.119481,136.788227 253.465052,137.981259 L254.788785,142.547926 L261.950113,132.481915 C262.67001,131.469772 264.0753,131.23242 265.087965,131.95284 C266.100631,132.67326 266.33746,134.078027 265.61704,135.090692 L256.653616,147.688629 L256.56474,147.786916 C255.947312,148.468648 255.090964,148.842451 254.212135,148.842451" id="Fill-37" fill="#F66442"></path>
                        <path d="M247.937425,169.495288 C245.444709,169.495288 243.231692,171.543622 243.004274,174.061432 L241.823789,187.12989 C241.715047,188.337038 242.078393,189.465242 242.847434,190.306952 C243.60079,191.131409 244.660508,191.585723 245.831059,191.585723 L258.788683,191.585723 C261.281399,191.585723 263.494415,189.536866 263.721834,187.019056 L264.901796,173.951121 C265.011061,172.743974 264.647714,171.615246 263.878674,170.773536 C263.125318,169.949079 262.0656,169.495288 260.894526,169.495288 L247.937425,169.495288 Z M258.788683,192.812737 L245.831059,192.812737 C244.311277,192.812737 242.930036,192.216744 241.941419,191.135069 C240.936596,190.035618 240.460847,188.573866 240.60148,187.019056 L241.781965,173.951121 C242.065323,170.817452 244.826236,168.268274 247.937425,168.268274 L260.894526,168.268274 C262.414308,168.268274 263.796072,168.863744 264.784688,169.945942 C265.788989,171.045393 266.264738,172.506622 266.124627,174.061432 L264.944143,187.12989 C264.660784,190.263559 261.899872,192.812737 258.788683,192.812737 L258.788683,192.812737 Z" id="Fill-39" fill="#FFD2C8"></path>
                        <path d="M250.567323,189.19234 C250.309059,189.19234 250.049227,189.159926 249.793055,189.094053 C248.729155,188.819583 247.906266,187.995648 247.628658,186.934885 L245.498244,179.58378 C245.152673,178.390225 245.839633,177.142299 247.033188,176.796204 C248.227788,176.450633 249.474669,177.137594 249.82024,178.331148 L251.143973,182.897815 L258.305301,172.831804 C259.025721,171.819661 260.429965,171.58231 261.443153,172.302729 C262.455819,173.023149 262.692125,174.427916 261.972228,175.440581 L253.008804,188.038518 L252.919928,188.136805 C252.3025,188.818537 251.446152,189.19234 250.567323,189.19234" id="Fill-41" fill="#F66442"></path>
                        <path d="M244.32832,209.448998 C241.835605,209.448998 239.622588,211.497333 239.395169,214.015143 L238.215207,227.083601 C238.105942,228.290748 238.469289,229.418953 239.238329,230.260662 C239.991685,231.08512 241.051403,231.539434 242.221955,231.539434 L255.179578,231.539434 C257.672294,231.539434 259.885311,229.490577 260.112729,226.972767 L261.293214,213.904832 C261.401956,212.697684 261.03861,211.568957 260.269569,210.727247 C259.516213,209.90279 258.456495,209.448998 257.285944,209.448998 L244.32832,209.448998 Z M255.179578,232.766448 L242.221955,232.766448 C240.702695,232.766448 239.320932,232.170455 238.332315,231.088779 C237.328014,229.989329 236.852265,228.527577 236.992376,226.972767 L238.17286,213.904832 C238.456219,210.771162 241.217131,208.221984 244.32832,208.221984 L257.285944,208.221984 C258.805726,208.221984 260.186967,208.817455 261.175584,209.899653 C262.179884,210.999104 262.656156,212.460332 262.515523,214.015143 L261.335038,227.083601 C261.05168,230.216747 258.290767,232.766448 255.179578,232.766448 L255.179578,232.766448 Z" id="Fill-43" fill="#FFD2C8"></path>
                        <path d="M246.922459,229.542177 C246.664195,229.542177 246.404363,229.509763 246.147668,229.443368 C245.083767,229.168897 244.260879,228.345485 243.983794,227.284722 L241.853903,219.933617 C241.507808,218.740062 242.194769,217.492136 243.388324,217.146041 C244.582401,216.80047 245.829805,217.48743 246.175899,218.680985 L247.499108,223.247652 L254.66096,213.181641 C255.380857,212.168975 256.785623,211.932147 257.798289,212.652566 C258.810954,213.372986 259.047783,214.777753 258.327364,215.790418 L249.364462,228.388355 L249.275063,228.486642 C248.657113,229.168374 247.801287,229.542177 246.922459,229.542177" id="Fill-45" fill="#F66442"></path>
                        <path d="M150.129557,52.1882484 L236.150195,52.1882484 C238.626704,52.1882484 240.816718,50.1634399 241.042568,47.6660193 L242.799702,28.2152064 C243.025029,25.7177858 241.200454,23.6929774 238.724468,23.6929774 L152.703307,23.6929774 C150.227321,23.6929774 148.036785,25.7177858 147.811457,28.2152064 L146.054323,47.6660193 C145.828473,50.1634399 147.653049,52.1882484 150.129557,52.1882484" id="Fill-47" fill="#FFD2C8"></path>
                        <path d="M231.376029,52.8018599 L163.263417,52.8018599 C162.924642,52.8018599 162.649649,52.5268666 162.649649,52.1880915 C162.649649,51.8493164 162.924642,51.5748459 163.263417,51.5748459 L231.376029,51.5748459 C231.714804,51.5748459 231.989797,51.8493164 231.989797,52.1880915 C231.989797,52.5268666 231.714804,52.8018599 231.376029,52.8018599" id="Fill-49" fill="#000000"></path>
                        <path d="M237.715044,24.3068504 L152.703411,24.3068504 C152.364636,24.3068504 152.089643,24.0323798 152.089643,23.693082 C152.089643,23.3543069 152.364636,23.0798363 152.703411,23.0798363 L237.715044,23.0798363 C238.053819,23.0798363 238.328812,23.3543069 238.328812,23.693082 C238.328812,24.0323798 238.053819,24.3068504 237.715044,24.3068504" id="Fill-51" fill="#000000"></path>
                        <path d="M196.628371,23.0785816 C192.256708,23.6280455 188.953651,19.9621646 189.892079,15.6035723 C190.531988,12.6340623 193.126649,10.2359739 196.105047,9.86164839 C200.475664,9.31270729 203.778721,12.9780654 202.840816,17.3361349 C202.20143,20.3061677 199.606768,22.7042561 196.628371,23.0785816 M197.750302,0.613297906 L197.750302,0.613297906 C188.76858,0.613297906 180.859646,7.95708418 180.041462,17.0151351 L177.820603,41.597763 C177.621416,43.807643 179.235826,45.5992822 181.426362,45.5992822 L205.947299,45.5992822 C208.138359,45.5992822 210.076382,43.807643 210.275569,41.597763 L212.496428,17.0151351 C213.314612,7.95708418 206.732024,0.613297906 197.750302,0.613297906" id="Fill-53" fill="#FFD2C8"></path>
                        <g id="编组" stroke-width="1" fill="none" transform="translate(178.852150, 0.000000)">
                            <mask id="mask-6" fill="white">
                                <use xlink:href="#path-5"></use>
                            </mask>
                            <g id="Clip-56"></g>
                            <path d="M18.10867,10.4213592 C17.8519747,10.4213592 17.5916198,10.437566 17.3291737,10.4705025 C14.6158363,10.8113688 12.2234987,13.0243856 11.6400527,15.732495 C11.2306995,17.6333996 11.6907644,19.4815013 12.9020944,20.8031423 C14.0878072,22.0965521 15.8350083,22.7035241 17.6998396,22.4698321 C20.413177,22.1289658 22.8055146,19.9154262 23.3884378,17.2073168 C23.797791,15.306935 23.3377261,13.4588333 22.1263961,12.1371922 C21.1079796,11.02624 19.6739364,10.4213592 18.10867,10.4213592 M16.9151153,23.7465122 C15.0074142,23.7465122 13.2518483,23.0009979 11.9976486,21.6323048 C10.5139393,20.0137128 9.94617732,17.7688051 10.4402243,15.4742313 C11.1297989,12.2731205 13.9623349,9.65650126 17.175993,9.25289885 C19.4386759,8.96849509 21.5732726,9.71766898 23.0313647,11.3080298 C24.5145512,12.9266218 25.0823132,15.1710067 24.5882662,17.4655805 C23.8992144,20.6666913 21.0661555,23.2833105 17.8524975,23.6874357 C17.5372485,23.7271686 17.2240907,23.7465122 16.9151153,23.7465122 M27.0950972,46.2128415 L23.3236105,46.2128415 C22.9848354,46.2128415 22.7103648,45.9378482 22.7103648,45.5990731 C22.7103648,45.260298 22.9848354,44.9853047 23.3236105,44.9853047 L27.0950972,44.9853047 C28.9735214,44.9853047 30.6407339,43.4409504 30.8122126,41.5426598 L33.0330715,16.9600319 C33.417853,12.7023401 32.1312397,8.71807339 29.4111058,5.74072143 C26.7516169,2.83028802 23.0177719,1.22738001 18.8980996,1.22738001 C10.2593351,1.22738001 2.58932102,8.33433742 1.80041424,17.0703429 L1.22533309,23.4401508 C1.19448783,23.7778803 0.893877228,24.0267336 0.558761758,23.9958883 C0.221032283,23.9655659 -0.027821014,23.6675693 0.00250144657,23.3298398 L0.578105397,16.9600319 C1.42242908,7.60816677 9.64086151,-0.000156840314 18.8980996,-0.000156840314 C23.3664801,-0.000156840314 27.4223707,1.74495305 30.31712,4.91312738 C33.2725143,8.14769745 34.6715299,12.4649885 34.2553803,17.0703429 L32.0350443,41.6529708 C31.8076258,44.167121 29.5914722,46.2128415 27.0950972,46.2128415" id="Fill-55" fill="#000000" mask="url(#mask-6)"></path>
                        </g>
                        <path d="M178.437613,170.48197 C169.273433,175.762261 164.710949,186.789703 168.076219,197.188739 C169.605935,201.915383 172.548782,205.805023 176.293083,208.556002 C176.394507,208.630763 176.498544,208.701341 176.60415,208.769828 L178.574064,210.039711 C184.016946,213.132602 190.706708,214.039139 197.158073,212.000215 C209.327836,208.154491 216.228809,193.944758 212.146779,183.261319 C208.960306,174.92212 205.376505,171.809885 198.739023,168.954868 C188.601911,164.595231 178.437613,170.48197 178.437613,170.48197" id="Fill-57" fill="#FFD2C8"></path>
                        <path d="M189.576046,203.182601 C183.674145,203.152278 178.062922,203.908771 172.987046,205.290534 C173.995007,206.384757 175.103345,207.374942 176.292717,208.249065 C176.394141,208.323826 176.498178,208.394404 176.604307,208.462891 L178.573698,209.732775 C184.01658,212.825666 190.396321,213.732203 196.847686,211.693279 C200.582054,210.513317 203.817147,208.354671 206.394033,205.624604 C201.186412,204.089138 195.697524,203.214491 189.576046,203.182601" id="Fill-59" fill="#F66442"></path>
                        <path d="M174.15582,205.618331 C174.935839,206.389985 175.773367,207.106222 176.656378,207.754496 C176.747345,207.821937 176.841449,207.885719 176.936599,207.946886 L178.906513,209.217293 C184.447682,212.364555 190.59739,213.024853 196.662928,211.108264 C199.812804,210.112851 202.756174,208.331668 205.230591,205.930443 C200.142692,204.523585 195.009308,203.8246 189.5727,203.796369 C184.250063,203.771797 179.054466,204.381383 174.15582,205.618331 M189.853967,213.41068 C185.867086,213.41068 181.949215,212.356713 178.270787,210.266555 L176.271596,208.978373 C176.155534,208.903612 176.041041,208.825715 175.929684,208.743635 C174.70633,207.84494 173.564532,206.822864 172.53566,205.706161 C172.390844,205.548798 172.338041,205.326608 172.39764,205.120624 C172.456717,204.91464 172.619308,204.754663 172.825814,204.698724 C178.126494,203.25527 183.754447,202.537987 189.579497,202.568832 C195.485057,202.599677 201.04191,203.406359 206.567394,205.03593 C206.771809,205.096052 206.93074,205.258644 206.98668,205.464627 C207.042097,205.670611 206.98668,205.89071 206.840296,206.045459 C204.083043,208.966871 200.691633,211.12238 197.032548,212.278293 C194.640211,213.034786 192.23428,213.41068 189.853967,213.41068" id="Fill-61" fill="#000000"></path>
                        <path d="M174.302414,178.223974 C174.302414,169.690293 181.30272,162.772589 189.938347,162.772589 C198.573452,162.772589 205.573758,169.690293 205.573758,178.223974 C205.573758,186.757133 198.573452,193.674836 189.938347,193.674836 C181.30272,193.674836 174.302414,186.757133 174.302414,178.223974" id="Fill-63" fill="#000000"></path>
                        <path d="M197.557963,179.06537 C197.554304,179.046026 197.546462,179.007862 197.546462,179.007862 L182.542595,178.894414 C182.542595,178.894414 182.535798,178.91794 182.532661,178.929965 C182.335565,179.668683 182.227868,180.448179 182.223686,181.253815 L182.20055,185.59411 C182.184999,188.499838 183.562579,191.061563 185.659012,192.558865 L185.598889,203.889009 C185.586865,206.143327 187.426602,207.98045 189.707583,207.992529 C191.989087,208.003976 193.847644,206.186197 193.859669,203.931879 L193.918745,192.767986 C196.166267,191.322963 197.677162,188.690137 197.693369,185.674098 L197.719112,180.778066 C197.722123,180.190438 197.666706,179.617448 197.557963,179.06537" id="Fill-65" fill="#FFFFFF"></path>
                        <path d="M189.72975,208.605982 C189.721385,208.605982 189.71302,208.605982 189.704655,208.605982 C188.438954,208.599185 187.250627,208.105661 186.359774,207.215854 C185.46683,206.323955 184.978534,205.141379 184.98526,203.885611 L185.043361,192.892151 C185.045452,192.553376 185.338744,192.280474 185.660266,192.281516 C185.999564,192.28361 186.272466,192.559649 186.270898,192.898947 L186.212344,203.892408 C186.207639,204.817243 186.567849,205.689275 187.227101,206.347481 C187.887922,207.007256 188.77041,207.37374 189.710929,207.378445 C191.631177,207.393606 193.235653,205.840887 193.246109,203.928481 L193.304663,192.892151 C193.306232,192.553898 193.594818,192.280474 193.921568,192.282042 C194.260343,192.284133 194.533768,192.560172 194.531689,192.898947 L194.473124,203.935277 C194.459531,206.515823 192.333822,208.605982 189.72975,208.605982" id="Fill-67" fill="#000000"></path>
                        <path d="M189.965585,189.241379 L189.94781,189.241379 C188.954488,189.236674 187.997239,188.817387 187.32178,188.091216 C187.090702,187.842886 187.104818,187.454968 187.352626,187.22389 C187.600956,186.993334 187.989397,187.00745 188.219952,187.255258 C188.672175,187.741463 189.288035,188.011228 189.953561,188.014365 C190.604448,188.016456 191.24122,187.751919 191.700762,187.266759 C191.933931,187.02052 192.322372,187.010064 192.568612,187.243233 C192.814851,187.476402 192.824784,187.864844 192.592138,188.11056 C191.900472,188.84039 190.968318,189.241379 189.965585,189.241379" id="Fill-69" fill="#000000"></path>
                        <path d="M189.940857,194.560409 C189.927264,194.560409 189.913148,194.560409 189.899555,194.560409 C189.56078,194.558318 189.287355,194.282279 189.288924,193.943504 C189.291015,193.605774 189.565486,193.332872 189.902692,193.332872 C189.913671,193.333395 189.927787,193.333395 189.940857,193.333395 C193.858205,193.333395 197.057225,189.90382 197.079705,185.6707 L197.105845,180.775191 C197.116301,178.784887 196.405814,176.912214 195.105608,175.501697 C193.815858,174.103727 192.098979,173.328413 190.271267,173.319002 C186.182963,173.299659 182.860562,176.858888 182.837559,181.257214 L182.814033,185.596985 C182.798349,188.615115 184.430534,191.378642 186.972392,192.637024 C187.27614,192.787068 187.400566,193.15512 187.25,193.458867 C187.099956,193.762614 186.731904,193.887041 186.428156,193.736474 C183.46858,192.272109 181.568721,189.074135 181.586888,185.590711 L181.610022,181.25094 C181.637208,176.175587 185.525279,172.064803 190.278063,172.091337 C192.449779,172.102967 194.484521,173.018392 196.00744,174.66992 C197.519381,176.308902 198.344883,178.479572 198.332989,180.781465 L198.306719,185.677496 C198.281102,190.584507 194.531573,194.560409 189.940857,194.560409" id="Fill-71" fill="#000000"></path>
                        <path d="M179.470772,195.141659 C179.267926,195.141659 179.062465,195.125975 178.856481,195.094084 C177.806174,194.93097 176.884998,194.37105 176.262865,193.517316 C175.64962,192.675084 175.401289,191.646211 175.564403,190.619953 C175.687784,189.844116 176.038061,189.132061 176.577069,188.56064 C176.809715,188.313877 177.198156,188.302376 177.444396,188.535022 C177.691158,188.767669 177.702659,189.155587 177.470013,189.402349 C177.100915,189.793927 176.86095,190.281701 176.776256,190.812866 C176.664899,191.513943 176.83481,192.218156 177.255142,192.794805 C177.683316,193.382956 178.319042,193.768784 179.04469,193.881186 C180.531013,194.111218 181.927937,193.107963 182.161107,191.64412 C182.21391,191.309005 182.529159,191.081586 182.863228,191.134389 C183.198344,191.187715 183.426285,191.501918 183.372959,191.837034 C183.067121,193.76251 181.38161,195.141659 179.470772,195.141659" id="Fill-73" fill="#000000"></path>
                        <path d="M200.428664,195.317477 C200.331946,195.317477 200.234182,195.313817 200.135895,195.307021 C199.347511,195.249513 198.603043,194.964064 197.983523,194.480995 C197.716372,194.272921 197.668274,193.887093 197.876872,193.619942 C198.08547,193.352791 198.470774,193.304693 198.737925,193.513291 C199.165054,193.846315 199.67949,194.042888 200.225294,194.082621 C201.721551,194.191886 203.033781,193.078843 203.14357,191.601407 C203.196373,190.893535 202.968954,190.205528 202.502093,189.664952 C202.025821,189.112874 201.360295,188.779327 200.626805,188.726002 C200.289076,188.70143 200.034995,188.407616 200.059566,188.069363 C200.084138,187.731634 200.381089,187.47703 200.715682,187.502124 C201.776445,187.579499 202.741013,188.062567 203.431633,188.863498 C204.11232,189.652405 204.444822,190.657229 204.367447,191.692375 C204.214266,193.74646 202.476998,195.317477 200.428664,195.317477" id="Fill-75" fill="#000000"></path>
                        <path d="M189.87995,213.349512 C179.990646,213.349512 170.753797,207.159025 167.457014,197.389442 C165.474029,191.51159 165.910568,185.215497 168.686642,179.661259 C171.499834,174.032783 176.367112,169.839918 182.391871,167.85432 C194.743046,163.783791 208.144528,170.405589 212.264723,182.614562 C213.637075,186.681431 213.854038,191.028522 212.892084,195.186359 C212.815232,195.516769 212.485868,195.72223 212.155457,195.645901 C211.82557,195.569572 211.619586,195.239684 211.695915,194.909797 C212.606635,190.973628 212.401174,186.858138 211.10149,183.007185 C207.196167,171.434462 194.49001,165.160326 182.775607,169.020166 C177.064006,170.90225 172.450286,174.876061 169.784524,180.209677 C167.155357,185.469578 166.741822,191.431601 168.620246,196.996819 C172.525047,208.569543 185.231203,214.844201 196.946129,210.983838 C202.008935,209.31558 206.307928,205.910576 209.051587,201.396712 C209.228294,201.10708 209.605234,201.015067 209.894866,201.191251 C210.184497,201.366913 210.27651,201.744375 210.100326,202.034007 C207.205577,206.797247 202.670278,210.389936 197.329865,212.149161 C194.861722,212.96264 192.349663,213.349512 189.87995,213.349512" id="Fill-77" fill="#000000"></path>
                        <path d="M147.577713,225.417747 C140.629687,229.421358 137.170835,237.781992 139.722104,245.666355 C140.881677,249.249633 143.112992,252.198754 145.951802,254.28473 C146.028653,254.341192 146.107596,254.395041 146.187585,254.446798 L147.681228,255.409798 C151.807696,257.75456 156.879912,258.441521 161.771239,256.896121 C170.998154,253.979937 176.230347,243.206576 173.135365,235.106819 C170.719501,228.784063 168.001981,226.424662 162.969498,224.260266 C155.2838,220.954595 147.577713,225.417747 147.577713,225.417747" id="Fill-79" fill="#FFD2C8"></path>
                        <path d="M156.022623,250.210698 C151.547969,250.187695 147.293937,250.761208 143.445075,251.808901 C144.20941,252.638586 145.049552,253.389328 145.951383,254.05224 C146.028758,254.108703 146.107701,254.162028 146.18769,254.214308 L147.680809,255.176785 C151.807801,257.522071 156.644756,258.209031 161.536083,256.663109 C164.36705,255.768596 166.820033,254.132229 168.77374,252.061937 C164.825547,250.897659 160.663528,250.234747 156.022623,250.210698" id="Fill-81" fill="#F66442"></path>
                        <path d="M144.625769,252.136906 C145.157458,252.646637 145.722606,253.122386 146.314939,253.557879 C146.381335,253.6065 146.450345,253.653029 146.5204,253.69799 L148.01352,254.66099 C152.170834,257.022482 156.793441,257.51862 161.35122,256.078303 C163.637429,255.355792 165.779868,254.081203 167.599738,252.367984 C163.837139,251.351136 160.037421,250.845065 156.019695,250.824153 C152.072547,250.803241 148.251394,251.245008 144.625769,252.136906 M156.232475,258.114091 C153.185068,258.114091 150.189941,257.308454 147.377794,255.710251 L145.855397,254.729999 C145.764953,254.671446 145.675554,254.610801 145.588769,254.547019 C144.653478,253.859536 143.7804,253.078471 142.994107,252.224737 C142.848768,252.066851 142.796488,251.845183 142.855565,251.6392 C142.915164,251.433216 143.077232,251.272716 143.284262,251.216776 C147.316103,250.118894 151.606209,249.571521 156.025969,249.597139 C160.517352,249.620142 164.744199,250.23391 168.946997,251.473472 C169.151935,251.533594 169.310343,251.696185 169.366283,251.902169 C169.4217,252.108152 169.366283,252.328251 169.219899,252.483001 C167.111965,254.716407 164.518872,256.364275 161.72084,257.248332 C159.89156,257.82655 158.052346,258.114091 156.232475,258.114091" id="Fill-83" fill="#000000"></path>
                        <path d="M167.596392,239.059143 C165.871149,232.916753 162.313488,224.863526 155.640978,225.853711 C149.240325,226.803641 146.228468,233.743302 144.844614,239.120833 C144.002904,242.393045 146.528033,245.569584 149.945061,245.587359 L162.473988,245.652263 C165.96839,245.670485 168.531161,242.386771 167.596392,239.059143" id="Fill-85" fill="#000000"></path>
                        <path d="M162.074306,231.925522 C162.071692,231.910884 162.065419,231.881607 162.065419,231.881607 L150.689791,231.795868 C150.689791,231.795868 150.685086,231.813643 150.682471,231.822531 C150.53295,232.382973 150.451393,232.973738 150.448257,233.584893 L150.430387,236.875403 C150.41898,239.078486 151.463013,241.020692 153.052851,242.155693 L153.007368,250.74636 C152.997957,252.455397 154.392791,253.848139 156.122739,253.857069 C157.852165,253.865914 159.261114,252.48781 159.270524,250.778774 L159.315485,242.314625 C161.019294,241.218834 162.164751,239.222779 162.176775,236.936048 L162.196716,233.22416 C162.198733,232.778734 162.156909,232.344286 162.074306,231.925522" id="Fill-87" fill="#FFFFFF"></path>
                        <path d="M156.139051,254.470847 L156.119184,254.470847 C155.120111,254.465619 154.182729,254.076132 153.479039,253.373488 C152.77378,252.668752 152.387953,251.734506 152.393641,250.742753 L152.437619,242.407736 C152.43971,242.070006 152.714181,241.797627 153.051388,241.797627 L153.054524,241.797627 C153.393299,241.799195 153.666724,242.075234 153.665156,242.414532 L153.620718,250.749549 C153.617058,251.410892 153.874799,252.034071 154.346366,252.505115 C154.819501,252.977727 155.451567,253.240173 156.125458,253.243833 L156.139051,253.243833 C157.521337,253.243833 158.649541,252.139154 158.65686,250.775166 L158.701298,242.407736 C158.702867,242.070006 158.977337,241.797627 159.314544,241.797627 L159.317681,241.797627 C159.656979,241.799195 159.929881,242.075757 159.928319,242.414532 L159.883874,250.781963 C159.872896,252.819841 158.194704,254.470847 156.139051,254.470847" id="Fill-89" fill="#000000"></path>
                        <path d="M156.317901,239.789234 C156.313196,239.789234 156.30849,239.789234 156.303785,239.789234 C155.50965,239.785052 154.744792,239.450459 154.204739,238.869627 C153.973661,238.62182 153.987777,238.233378 154.236107,238.0023 C154.483915,237.771745 154.872879,237.785861 155.103434,238.034191 C155.41816,238.372443 155.846334,238.559606 156.309536,238.561697 C156.774306,238.553333 157.20614,238.37924 157.526617,238.04151 C157.759263,237.795794 158.147182,237.784815 158.393944,238.018507 C158.63966,238.251676 158.650116,238.640118 158.416947,238.885834 C157.864346,239.468757 157.119355,239.789234 156.317901,239.789234" id="Fill-91" fill="#000000"></path>
                        <path d="M156.299132,243.821965 C156.288676,243.821965 156.277697,243.821965 156.267241,243.821965 C155.928466,243.819874 155.655041,243.543835 155.65661,243.205059 C155.658701,242.86733 155.933172,242.594428 156.270378,242.594428 C156.27822,242.594428 156.289199,242.594951 156.299132,242.594951 C159.187608,242.594951 161.546486,240.060411 161.563216,236.933015 L161.583082,233.221128 C161.590402,231.749443 161.066032,230.366111 160.105647,229.324169 C159.15624,228.294774 157.893153,227.723875 156.549031,227.717079 C156.540666,227.717079 156.531256,227.717079 156.522368,227.717079 C153.526196,227.717079 151.078964,230.344677 151.061711,233.588134 L151.044459,236.878644 C151.032435,239.110482 152.237491,241.153065 154.114869,242.082083 C154.418094,242.23265 154.542521,242.600701 154.392477,242.904449 C154.24191,243.207673 153.874381,243.332623 153.570111,243.182056 C151.27606,242.046532 149.802806,239.569501 149.816822,236.871848 L149.834697,233.581861 C149.855609,229.66399 152.852305,226.489542 156.522368,226.489542 C156.53387,226.489542 156.544849,226.489542 156.555828,226.489542 C158.243952,226.498429 159.824902,227.209439 161.008001,228.492392 C162.179598,229.762799 162.819507,231.44465 162.810199,233.227402 L162.790753,236.939289 C162.770364,240.741621 159.861499,243.821965 156.299132,243.821965" id="Fill-93" fill="#000000"></path>
                        <path d="M156.252969,258.067352 C148.693789,258.067352 141.632315,253.334434 139.111891,245.865699 C137.595245,241.371701 137.929315,236.557749 140.051887,232.311036 C142.203214,228.00786 145.923989,224.802567 150.529343,223.284876 C159.970084,220.172641 170.215416,225.235447 173.365293,234.569014 C174.414554,237.678111 174.580282,241.00208 173.844701,244.181756 C173.768372,244.512167 173.437439,244.717627 173.108597,244.641299 C172.778187,244.564447 172.572726,244.235082 172.649055,243.904672 C173.333402,240.947709 173.178653,237.854818 172.202583,234.961114 C169.267578,226.264319 159.717571,221.549176 150.913079,224.450199 C146.620882,225.864899 143.153666,228.851139 141.14977,232.859454 C139.174627,236.81183 138.863561,241.291712 140.274601,245.473598 C143.209606,254.170393 152.760658,258.885536 161.563582,255.984513 C165.369051,254.730836 168.599961,252.171725 170.661889,248.779792 C170.838072,248.49016 171.215535,248.398147 171.505167,248.573808 C171.794276,248.749992 171.886289,249.127454 171.710627,249.417086 C169.497088,253.058395 166.029871,255.804669 161.947841,257.149836 C160.061052,257.77197 158.140803,258.067352 156.252969,258.067352" id="Fill-95" fill="#000000"></path>
                        <path d="M152.062562,130.94833 C152.062562,119.882201 161.132637,110.911457 172.322148,110.911457 C183.511136,110.911457 192.581211,119.882201 192.581211,130.94833 C192.581211,142.014983 183.511136,150.985203 172.322148,150.985203 C161.132637,150.985203 152.062562,142.014983 152.062562,130.94833" id="Fill-97" fill="#FFD2C8"></path>
                        <path d="M158.060083,145.517854 C161.709234,148.920766 166.625655,151.010925 172.03926,151.010925 C177.452865,151.010925 182.369286,148.920766 186.018437,145.517854 C181.796819,144.22549 177.053968,143.49932 172.03926,143.49932 C167.024553,143.49932 162.281179,144.22549 158.060083,145.517854" id="Fill-99" fill="#F66442"></path>
                        <path d="M159.300742,145.79473 C162.8652,148.769991 167.347173,150.396947 172.039312,150.396947 C176.731452,150.396947 181.213425,148.769991 184.77736,145.79473 C180.762771,144.678027 176.483644,144.112879 172.039312,144.112879 C167.594458,144.112879 163.314809,144.678027 159.300742,145.79473 M172.039312,151.624484 C166.667009,151.624484 161.554015,149.614837 157.641372,145.966731 C157.481395,145.81721 157.412908,145.593451 157.462051,145.380149 C157.511194,145.166323 157.671171,144.995367 157.880292,144.931063 C162.31469,143.573871 167.078976,142.885342 172.039312,142.885342 C176.999126,142.885342 181.762889,143.573871 186.19781,144.931063 C186.407454,144.995367 186.566908,145.166323 186.616051,145.380149 C186.665717,145.593451 186.59723,145.81721 186.43673,145.966731 C182.52461,149.614837 177.411616,151.624484 172.039312,151.624484" id="Fill-101" fill="#000000"></path>
                        <path d="M178.56847,119.242031 C177.650954,118.657539 176.581303,118.346995 175.489172,118.346995 L169.058719,118.346995 C167.62363,118.346995 166.241344,118.883389 165.188946,119.84848 L164.836578,120.172094 C163.165706,121.705469 162.582783,124.076372 163.356005,126.19633 L165.470213,131.994194 L179.025921,131.910023 L180.939373,125.574197 C181.66293,123.177154 180.696793,120.596608 178.56847,119.242031" id="Fill-103" fill="#000000"></path>
                        <path d="M175.216218,121.770401 C175.186941,121.757331 175.128387,121.731714 175.128387,121.731714 L165.39906,127.976572 L165.39906,131.742831 C165.39906,133.897294 166.418522,135.814406 168.003654,137.056581 L168.003654,142.795368 C168.003654,145.063802 169.864826,146.902493 172.160445,146.902493 C174.456065,146.902493 176.317237,145.063802 176.317237,142.795368 L176.317237,137.204534 C178.016863,135.9702 179.124155,133.986693 179.124155,131.742831 L179.124155,127.748631 C179.124155,125.088097 177.520202,122.797705 175.216218,121.770401" id="Fill-105" fill="#FFFFFF"></path>
                        <path d="M172.26166,139.1378 C171.922885,139.1378 171.647891,138.862806 171.647891,138.524031 C171.647891,138.185256 171.922885,137.910786 172.26166,137.910786 C175.707441,137.910786 178.510701,135.1436 178.510701,131.742779 L178.510701,127.748579 C178.510701,124.472185 175.810433,121.806945 172.491169,121.806945 L166.012619,121.806945 L166.012619,131.742779 C166.012619,134.153937 167.449276,136.358589 169.672749,137.358708 C169.982247,137.497773 170.119744,137.861119 169.980679,138.170095 C169.841614,138.47907 169.479313,138.61709 169.169292,138.478025 C166.506143,137.279765 164.785082,134.63596 164.785082,131.742779 L164.785082,121.193177 C164.785082,120.854401 165.060075,120.579931 165.39885,120.579931 L172.491169,120.579931 C176.486938,120.579931 179.737715,123.79568 179.737715,127.748579 L179.737715,131.742779 C179.737715,135.820104 176.383946,139.1378 172.26166,139.1378" id="Fill-107" fill="#000000"></path>
                        <path d="M172.034346,151.598449 C166.610808,151.598972 161.191975,149.540704 157.091124,145.433056 C153.15234,141.487477 151.003628,136.261557 151.04127,130.717775 C151.078912,125.172947 153.299248,119.975259 157.293448,116.08196 C165.141737,108.430767 177.736537,108.10297 185.965425,115.3354 C186.220029,115.559159 186.245124,115.946554 186.021365,116.201158 C185.797606,116.455763 185.409688,116.480857 185.155606,116.257098 C177.404558,109.445001 165.542202,109.753976 158.149796,116.960788 C154.392947,120.623533 152.304357,125.512245 152.268807,130.72614 C152.233256,135.938989 154.254405,140.854365 157.960019,144.566252 C165.614872,152.234698 178.155823,152.318869 185.915759,144.753938 C189.98106,140.791106 192.110952,135.285488 191.759629,129.64917 C191.738717,129.310917 191.995413,129.019717 192.334188,128.998282 C192.670349,128.976848 192.96364,129.234589 192.984552,129.572841 C193.358355,135.566232 191.094104,141.420035 186.77263,145.632766 C182.6906,149.612328 177.360643,151.597926 172.034346,151.598449" id="Fill-109" fill="#000000"></path>
                        <path d="M172.160393,147.516314 C169.530181,147.516314 167.390356,145.398447 167.390356,142.794897 L167.390356,137.056633 C167.390356,136.717858 167.664827,136.442865 168.003602,136.442865 C168.3429,136.442865 168.61737,136.717858 168.61737,137.056633 L168.61737,142.794897 C168.61737,144.721942 170.206686,146.2893 172.160393,146.2893 C174.114101,146.2893 175.703939,144.721942 175.703939,142.794897 L175.703939,137.347833 C175.703939,137.009058 175.978409,136.734588 176.317184,136.734588 C176.656482,136.734588 176.930953,137.009058 176.930953,137.347833 L176.930953,142.794897 C176.930953,145.398447 174.791128,147.516314 172.160393,147.516314" id="Fill-111" fill="#000000"></path>
                        <polygon id="Fill-113" fill="#FFFFFF" points="25.7060452 312.166491 26.6941392 321.643305 33.0597647 322.394047 33.0597647 311.158007"></polygon>
                        <path d="M27.2535886,321.09128 L32.4460486,321.704002 L32.4460486,311.861227 L26.3778968,312.693526 L27.2535886,321.09128 Z M33.059817,323.007868 C33.0357681,323.007868 33.0117193,323.0063 32.9881932,323.003686 L26.6220449,322.252421 C26.3371184,322.218961 26.1138823,321.992066 26.0840826,321.706616 L25.0959887,312.230325 C25.0614838,311.90096 25.2946531,311.603486 25.6229721,311.558525 L32.9766916,310.550042 C33.1523528,310.525993 33.3295823,310.578796 33.4634194,310.695381 C33.5967337,310.811965 33.6735854,310.980307 33.6735854,311.157537 L33.6735854,322.3941 C33.6735854,322.569761 33.5988249,322.736534 33.4676018,322.852596 C33.3546768,322.953497 33.2093381,323.007868 33.059817,323.007868 L33.059817,323.007868 Z" id="Fill-115" fill="#000000"></path>
                        <path d="M34.0623926,338.891557 C31.4086545,339.267451 27.0568586,339.597861 21.9480467,338.885806 C20.2776974,338.652637 19.1693592,337.018361 19.5724388,335.370492 C20.696461,330.769843 22.6344845,322.041157 25.960022,317.995722 L26.7865704,320.189395 L27.9273223,318.123809 C28.0836398,317.840973 28.364384,317.649628 28.6832926,317.609372 L31.1822816,317.290464 C31.704037,317.223545 32.1897192,317.571731 32.297939,318.089826 L32.6957906,319.993345 L34.2192329,317.498016 L34.8957374,326.816944 C35.0405533,328.813521 35.3406411,330.79546 35.7923412,332.744985 L36.4740738,335.684173 C36.6774434,337.23846 35.6041328,338.673026 34.0623926,338.891557" id="Fill-117" fill="#FFD2C8"></path>
                        <path d="M25.7827924,319.265658 C23.1483979,323.187189 21.4539998,330.200565 20.4099661,334.519947 L20.168432,335.515883 C20.0173425,336.134357 20.1354955,336.790995 20.4925686,337.317456 C20.8533014,337.848621 21.4001512,338.190011 22.0327405,338.277841 C27.0244449,338.973689 31.2826594,338.665759 33.9761304,338.284115 C35.1686396,338.11525 36.0124405,337.000638 35.869193,335.791922 L35.1947796,332.88358 C34.7373287,330.910006 34.4304445,328.883629 34.2835374,326.861435 L33.7455751,319.45073 L33.2191145,320.312829 C33.0878914,320.5277 32.8379925,320.640625 32.5912304,320.597755 C32.3428999,320.554886 32.1463267,320.365109 32.0950922,320.118347 L31.6972406,318.215351 C31.6548937,318.011981 31.462503,317.873439 31.260179,317.899056 L28.7606672,318.217965 C28.6367633,318.233649 28.5259295,318.309455 28.464239,318.420289 L27.3234871,320.485876 C27.2079481,320.695519 26.9841892,320.8189 26.7421323,320.801125 C26.5032122,320.783873 26.296183,320.629646 26.2120121,320.405887 L25.7827924,319.265658 Z M28.0439069,339.919959 C26.1712336,339.919959 24.0878714,339.803897 21.863353,339.493354 C20.8966938,339.358994 20.0272757,338.816849 19.477289,338.00703 C18.9257339,337.193552 18.7427535,336.179318 18.9764456,335.224683 L19.2169341,334.231884 C20.3691876,329.463938 22.2972778,321.484426 25.4863642,317.606288 C25.6254293,317.4369 25.8444829,317.35482 26.0603998,317.390371 C26.2763166,317.425921 26.4572058,317.574397 26.5345803,317.779335 L26.8921762,318.728742 L27.3904056,317.82691 C27.6403045,317.374687 28.0946186,317.065711 28.6053952,317.000361 L31.1043842,316.681453 C31.9366835,316.57637 32.7261131,317.138381 32.8986374,317.964406 L32.9791488,318.350756 L33.6953862,317.178114 C33.8344513,316.950695 34.1036938,316.838816 34.363526,316.901552 C34.6228353,316.964288 34.8115665,317.187524 34.8309101,317.45363 L35.5079374,326.772558 C35.6501393,328.731494 35.9470903,330.694612 36.3904256,332.606495 L37.0716354,335.545683 C37.0763406,335.565026 37.0800002,335.584893 37.0826142,335.604759 C37.3288535,337.487889 36.0129633,339.23509 34.1486547,339.499104 C32.5781604,339.721295 30.4911386,339.919959 28.0439069,339.919959 L28.0439069,339.919959 Z" id="Fill-119" fill="#000000"></path>
                        <path d="M28.2379707,337.103996 C26.6460415,337.103996 24.7535017,336.938268 22.6277927,336.450495 C22.2973824,336.375211 22.090876,336.045847 22.1672049,335.715436 C22.2424883,335.385026 22.5734214,335.17852 22.9022632,335.254849 C29.0321055,336.660661 33.1841914,335.216161 33.2254926,335.201 C33.5438785,335.087552 33.8957236,335.252235 34.010217,335.571143 C34.1247104,335.889529 33.9605509,336.240329 33.6421651,336.355345 C33.5203524,336.399783 31.5180244,337.103996 28.2379707,337.103996" id="Fill-121" fill="#000000"></path>
                        <path d="M25.1683966,329.824305 C24.839032,329.824305 24.5666526,329.562904 24.5556738,329.230926 C24.5441722,328.892151 24.8097551,328.608793 25.1485302,328.597291 L31.1152585,328.399149 C31.4535108,328.389216 31.7373917,328.653231 31.7488934,328.992006 C31.7598722,329.330781 31.4948121,329.614662 31.156037,329.625641 L25.1893087,329.823782 C25.1819894,329.824305 25.175193,329.824305 25.1683966,329.824305" id="Fill-123" fill="#000000"></path>
                        <polygon id="Fill-125" fill="#FFFFFF" points="55.5218593 307.120781 56.4759712 320.949914 64.1355293 320.949914 64.4915569 307.120781"></polygon>
                        <path d="M57.0485429,320.336303 L63.5375495,320.336303 L63.862209,307.734183 L56.1791248,307.734183 L57.0485429,320.336303 Z M64.1356339,321.563317 L56.4760758,321.563317 C56.1535076,321.563317 55.8858334,321.31394 55.8638758,320.992418 L54.9097639,307.163285 C54.8982622,306.993374 54.9573388,306.826601 55.0734006,306.702174 C55.1894624,306.577747 55.3520535,306.507169 55.5219639,306.507169 L64.4916614,306.507169 C64.6573893,306.507169 64.8157981,306.574088 64.9313371,306.692764 C65.0468761,306.810917 65.1096123,306.971417 65.1054298,307.136622 L64.7488795,320.965755 C64.7405147,321.298256 64.4686582,321.563317 64.1356339,321.563317 L64.1356339,321.563317 Z" id="Fill-127" fill="#000000"></path>
                        <path d="M54.4747411,328.757059 C54.4553975,330.065107 55.3436365,331.213701 56.6093378,331.510129 C61.012891,332.542139 70.932518,334.838804 73.7624401,335.262795 C77.4345946,335.813305 81.9484588,334.680918 83.8885735,332.518612 C85.8286882,330.35683 79.543574,325.193647 76.5604713,323.315223 C72.1286868,320.525034 67.8715179,315.010005 66.0866751,314.761675 C64.3013096,314.513344 60.9689757,319.726194 60.9689757,319.726194 L55.5219116,317.423778 C55.5219116,317.423778 54.5725049,322.122191 54.4747411,328.757059" id="Fill-129" fill="#FFD2C8"></path>
                        <path d="M55.9903936,318.287968 C55.7279475,319.856371 55.161754,323.775811 55.0883197,328.765947 L55.0883197,328.765947 C55.0734006,329.781226 55.7718628,330.684104 56.7495007,330.91309 C60.9507299,331.897525 71.0277201,334.232877 73.8534597,334.656346 C77.3980508,335.186989 81.6949526,334.044669 83.4322205,332.108736 C83.5435771,331.984833 83.6847334,331.770484 83.6261797,331.349107 C83.3402075,329.303386 79.1494343,325.670442 76.2332501,323.834887 C73.97109,322.410254 71.8197637,320.355646 69.9214731,318.542572 C68.3384315,317.030109 66.7010186,315.466411 66.0020336,315.369693 C65.1817588,315.252062 62.9938364,317.699294 61.4860782,320.057127 C61.3250555,320.309117 61.0061469,320.408449 60.7301079,320.291864 L55.9903936,318.287968 Z M75.6728074,336.014583 C74.9963028,336.014583 74.3245035,335.967531 73.671525,335.869767 C70.8013472,335.439502 60.6856698,333.095785 56.4692794,332.107691 C54.9348583,331.748004 53.8380217,330.335395 53.861025,328.748171 C53.9587888,322.132647 54.9108095,317.34954 54.9202199,317.301965 C54.956816,317.121599 55.072355,316.96685 55.2354689,316.88111 C55.39806,316.794848 55.5914964,316.787006 55.760884,316.85863 L60.7358587,318.961859 C61.8117833,317.346403 64.3405719,313.899576 66.1708984,314.15418 C67.2112725,314.298473 68.5292539,315.516077 70.7694564,317.654856 C72.6254001,319.428197 74.7296743,321.437322 76.8872742,322.796081 C78.8169329,324.011071 84.4197917,328.158975 84.8416921,331.179196 C84.9363191,331.856224 84.7643175,332.461627 84.3450311,332.928489 C82.6621345,334.804299 79.1117926,336.014583 75.6728074,336.014583 L75.6728074,336.014583 Z" id="Fill-131" fill="#000000"></path>
                        <path d="M75.6308264,332.619409 C68.9091734,332.619409 60.2693633,329.563636 57.1158274,328.354398 C56.79901,328.232585 56.6411241,327.878126 56.7624139,327.561308 C56.8837038,327.245014 57.2381629,327.086605 57.5549803,327.208418 C60.5150798,328.343942 75.5644307,333.821851 81.1557879,330.156493 C81.4386233,329.970898 81.8197452,330.049841 82.0053396,330.333722 C82.190934,330.617081 82.111991,330.997157 81.8286328,331.183274 C80.2492509,332.21842 78.0655109,332.619409 75.6308264,332.619409" id="Fill-133" fill="#000000"></path>
                        <path d="M67.117116,325.100954 C66.9581845,325.100954 66.7987301,325.039264 66.6784859,324.916928 C66.441657,324.674349 66.4453166,324.285908 66.6878963,324.049079 L69.8607759,320.941549 C70.1028328,320.70472 70.4912739,320.70838 70.7286256,320.950437 C70.9654545,321.193017 70.9617949,321.581458 70.7192152,321.818287 L67.5463356,324.925816 C67.427137,325.042401 67.2718651,325.100954 67.117116,325.100954" id="Fill-135" fill="#000000"></path>
                        <path d="M23.5338592,216.966355 C23.5338592,216.966355 21.1603424,260.198341 19.9181671,275.12222 C18.6759918,290.046099 22.8228497,314.035348 22.8228497,314.035348 L34.6459954,313.410077 C34.6459954,313.410077 35.456337,284.241962 36.3346427,276.142205 C36.3346427,276.142205 41.3289611,265.161292 42.8090109,255.368183 C44.2895834,245.575073 49.3314767,230.106436 49.3314767,230.106436 C49.3314767,230.106436 53.4260545,307.314217 53.8207693,313.379755 C53.8207693,313.379755 63.092123,313.795382 66.4160921,311.690062 C66.4160921,311.690062 72.3059686,283.537749 71.4605993,268.220724 C70.6147073,252.903699 71.5436122,214.847965 71.5436122,214.847965 L23.5338592,216.966355 Z" id="Fill-137" fill="#F66442"></path>
                        <path d="M34.1576992,276.753359 L30.5435756,276.753359 C30.2048005,276.753359 29.9298071,276.478366 29.9298071,276.139591 C29.9298071,275.800816 30.2048005,275.526345 30.5435756,275.526345 L34.1576992,275.526345 C34.4964743,275.526345 34.7714676,275.800816 34.7714676,276.139591 C34.7714676,276.478366 34.4964743,276.753359 34.1576992,276.753359" id="Fill-139" fill="#FFFFFF"></path>
                        <path d="M59.9021479,299.207978 C59.8984883,299.207978 59.8948287,299.207978 59.8906463,299.207978 C59.5518712,299.201704 59.2821058,298.922006 59.2883795,298.583231 C59.4196025,291.380601 67.2354781,278.529105 67.5679796,277.985392 C67.7452092,277.696806 68.1226715,277.605839 68.4117805,277.782546 C68.7008895,277.959252 68.7918569,278.337237 68.6146273,278.626346 C68.5351615,278.756524 60.6408658,291.736105 60.5153935,298.605711 C60.5096427,298.940304 60.235695,299.207978 59.9021479,299.207978" id="Fill-141" fill="#FFFFFF"></path>
                        <path d="M78.8311008,148.574934 C79.4866933,148.523176 84.9353258,157.877655 87.4980965,162.344467 C88.2268811,163.614351 89.851224,164.027364 91.0933993,163.260938 L111.127658,150.893033 C112.762457,149.883505 114.167223,148.531541 115.224327,146.920791 C116.89729,144.37109 117.892704,141.779566 120.132383,139.968583 C121.954345,138.495329 123.798787,136.858439 124.351388,136.430265 C124.696436,136.162591 126.30405,137.305957 125.093765,139.337039 C124.721531,139.961264 123.331403,141.225919 122.951327,141.800478 C122.344355,142.716425 122.344877,143.935597 123.019291,144.802401 C123.738142,145.726191 124.337795,147.20624 123.53059,149.266599 C122.337035,152.313484 119.631017,153.067886 118.098687,153.244592 C117.329124,153.333991 116.622297,153.706749 116.110998,154.292286 L97.6231843,175.47723 C94.754575,178.76408 89.958921,179.506457 86.243374,177.236978 C80.2322076,173.564823 72.4937065,166.166143 66.9185561,156.813232 L78.8311008,148.574934 Z" id="Fill-143" fill="#FFFFFF"></path>
                        <path d="M67.7415496,156.990305 C73.6052861,166.629711 81.2789598,173.485201 86.5634328,176.712975 C90.0280353,178.829273 94.4849142,178.140221 97.16061,175.073993 L115.648946,153.889049 C116.261669,153.186928 117.106515,152.742024 118.028214,152.635372 C119.40684,152.475918 121.879689,151.797322 122.959273,149.042684 C123.533309,147.577795 123.390584,146.278112 122.534759,145.179184 C121.70821,144.117375 121.670046,142.62321 122.439609,141.461546 C122.645592,141.150479 123.052855,140.721259 123.484165,140.266945 C123.914431,139.813154 124.401681,139.299241 124.566364,139.023202 C124.917686,138.434005 125.012836,137.896043 124.842402,137.468391 C124.761368,137.264499 124.637464,137.13223 124.544929,137.061652 C124.296075,137.266067 123.920704,137.587067 123.471618,137.970803 C122.674347,138.652013 121.583261,139.58469 120.518315,140.445743 C119.02415,141.653936 118.089904,143.276711 117.100765,144.995158 C116.67625,145.73283 116.237097,146.495074 115.737299,147.257318 C114.646737,148.919303 113.164073,150.357005 111.449808,151.415155 L91.4155493,163.783059 C90.6731718,164.241556 89.7995712,164.375915 88.9547248,164.161567 C88.1083099,163.947219 87.4025285,163.410302 86.9659896,162.649626 C82.1123047,154.18966 79.6269085,150.305771 78.8050653,149.339112 L67.7415496,156.990305 Z M90.890657,179.16282 C89.187894,179.16282 87.4699698,178.704847 85.9235243,177.760668 C80.4247029,174.401671 72.4054577,167.217339 66.3916773,157.127279 C66.2264721,156.850194 66.3038467,156.492076 66.5694296,156.308573 L78.482497,148.070274 C78.5713732,148.008583 78.6748878,147.971987 78.7831076,147.963099 C79.3090455,147.921275 79.9050387,147.876314 88.0304125,162.038995 C88.299655,162.50847 88.7351483,162.839926 89.2569038,162.972195 C89.7755224,163.103941 90.3134847,163.020815 90.7709356,162.738503 L110.805194,150.370598 C112.367847,149.40603 113.718242,148.096937 114.711041,146.58395 C115.191495,145.852029 115.621238,145.104946 116.036864,144.382958 C117.084558,142.562565 118.074743,140.843595 119.746661,139.491109 C120.798536,138.641034 121.838388,137.752272 122.674347,137.038126 C123.288638,136.513234 123.732496,136.13368 123.975076,135.945472 C124.351492,135.653749 124.910889,135.744716 125.400754,136.178118 C126.09242,136.790318 126.565032,138.066998 125.620853,139.651608 C125.386116,140.044755 124.894683,140.562851 124.374496,141.111269 C123.998079,141.507552 123.609638,141.917428 123.462731,142.139096 C122.99221,142.850105 123.008939,143.790102 123.503509,144.425305 C124.287188,145.43222 125.027474,147.128186 124.102116,149.490201 C122.78884,152.842924 119.820898,153.663722 118.16937,153.854544 C117.551419,153.925645 116.984703,154.224688 116.573781,154.695731 L98.085445,175.880675 C96.2085893,178.030956 93.568444,179.16282 90.890657,179.16282 L90.890657,179.16282 Z" id="Fill-145" fill="#000000"></path>
                        <path d="M10.0694319,165.972759 C10.0694319,165.972759 8.73681205,141.344647 27.3548029,134.425898 C41.7726101,129.068233 60.1830489,131.379537 65.953204,133.380819 C80.1592768,138.308742 87.1522636,157.078868 87.1522636,157.078868 L70.5026187,159.425199 C70.5026187,159.425199 75.5209859,213.355263 73.3445652,225.38387 C73.3445652,225.38387 59.9456972,226.956455 54.2628499,224.703706 C48.5800025,222.450956 29.8950931,219.294806 20.9630373,223.424934 L22.5863345,165.741158 L10.0694319,165.972759 Z" id="Fill-147" fill="#000000"></path>
                        <path d="M33.2748451,212.150887 C32.9831221,212.150887 32.7243356,211.941766 32.6715327,211.644815 C32.6119333,211.310745 32.8346466,210.992359 33.1681936,210.933283 C54.3191555,207.170684 60.5007551,192.448606 60.5603544,192.300131 C60.6873951,191.985927 61.044991,191.834315 61.3591944,191.960833 C61.6733978,192.087351 61.8255329,192.444424 61.6990151,192.758627 C61.6368018,192.912854 55.2345802,208.253928 33.3830649,212.141476 C33.3464688,212.14775 33.3103955,212.150887 33.2748451,212.150887" id="Fill-149" fill="#FFFFFF"></path>
                        <polygon id="Fill-151" fill="#FFD2C8" points="72.9994642 185.81149 45.7223197 185.81149 54.2659344 155.14189 81.5430789 155.14189"></polygon>
                        <path d="M46.530361,185.197826 L72.5334394,185.197826 L80.7351422,155.75524 L54.7320638,155.75524 L46.530361,185.197826 Z M72.9992551,186.42484 L45.7221106,186.42484 C45.5307654,186.42484 45.3498762,186.335441 45.2338144,186.182784 C45.1177526,186.029603 45.0795881,185.831461 45.1313454,185.646912 L53.6749601,154.977312 C53.748675,154.711729 53.9907319,154.528226 54.2662481,154.528226 L81.5428698,154.528226 C81.7347378,154.528226 81.9156269,154.617625 82.0316888,154.770806 C82.1477506,154.923463 82.1853923,155.121605 82.1341578,155.306677 L73.5905431,185.976277 C73.5168281,186.241337 73.2747713,186.42484 72.9992551,186.42484 L72.9992551,186.42484 Z" id="Fill-153" fill="#000000"></path>
                        <path d="M13.3020676,165.995501 L25.2972148,165.450742 C25.2972148,165.450742 25.3876594,175.6187 26.4698575,175.800112 C30.326038,176.447339 38.4007002,176.47923 43.6564191,175.84089 C45.4862227,175.6187 46.93595,174.208705 47.2799531,172.385698 C47.5397853,171.009163 48.2800715,169.391616 50.1590185,168.227861 C51.9752293,167.103316 50.1841129,170.642679 51.8826935,172.921569 C52.7949814,174.145969 55.6829343,173.603302 59.6217174,172.685263 C63.5605005,171.766702 64.5606189,176.003481 60.1460869,178.563638 C55.3608889,181.339712 52.320278,181.028122 50.7942218,181.352782 C47.7546565,182.000532 20.8779776,186.240449 16.7295513,183.970969 C13.5242581,182.217494 13.3020676,165.995501 13.3020676,165.995501" id="Fill-155" fill="#FFFFFF"></path>
                        <path d="M13.9260829,166.581456 C14.0593972,172.755214 14.9852779,182.317245 17.0236791,183.43238 C20.7261561,185.457188 46.4735848,181.645968 50.6664492,180.753024 C51.0250907,180.676695 51.4401947,180.633826 51.9206489,180.585205 C53.6207979,180.411635 56.190365,180.149189 59.8384707,178.03289 C61.9997302,176.779213 62.7243325,175.098408 62.3228213,174.08522 C62.0091407,173.294744 61.0278431,172.987337 59.7610962,173.28272 C55.4506015,174.287544 52.5396453,174.830734 51.3905286,173.288471 C50.4290975,171.997675 50.4421675,170.394244 50.4510552,169.332435 C50.4526236,169.156774 50.454192,168.946085 50.4484411,168.770947 C49.0468115,169.650298 48.183667,170.904498 47.8830564,172.499564 C47.484682,174.609066 45.8159011,176.196813 43.7304477,176.449849 C38.448066,177.091848 30.3347165,177.070936 26.368225,176.405411 C25.9024093,176.326991 24.8233479,176.146101 24.6905565,166.092637 L13.9260829,166.581456 Z M21.9348722,185.239703 C19.3736698,185.239703 17.3885943,185.031105 16.4350052,184.50935 C13.0143179,182.637722 12.7116161,167.700773 12.6885498,166.003761 C12.6839077,165.672828 12.943217,165.397312 13.27415,165.382673 L25.26982,164.837915 C25.435548,164.831118 25.5986619,164.890718 25.7194289,165.005211 C25.840196,165.119705 25.9092057,165.278636 25.9112969,165.44541 C25.9473702,169.550443 26.26837,174.334073 26.7300033,175.221266 C30.5982083,175.833989 38.5547174,175.842354 43.582495,175.231722 C45.1346913,175.042991 46.3779122,173.853619 46.6769544,172.272146 C47.0418695,170.33935 48.1340009,168.760491 49.8362411,167.706524 C50.0511124,167.572687 50.6225339,167.218228 51.1442893,167.511519 C51.6911392,167.818926 51.6853884,168.491248 51.6780692,169.342891 C51.6702272,170.293344 51.6592484,171.595641 52.3744402,172.554981 C53.1298877,173.568692 56.9526089,172.677316 59.4824432,172.087597 C61.3556393,171.651058 62.9182917,172.257507 63.4635732,173.63352 C64.0402227,175.088475 63.3443745,177.418076 60.4538075,179.094699 C56.5777606,181.343267 53.7405193,181.632898 52.0455983,181.805945 C51.6001719,181.851429 51.2159131,181.890639 50.9220989,181.953375 C49.4007479,182.276989 31.5847338,185.239703 21.9348722,185.239703 L21.9348722,185.239703 Z" id="Fill-157" fill="#000000"></path>
                        <path d="M54.6085259,133.819972 C54.6085259,133.819972 51.5025649,131.908611 51.5328874,130.791908 L50.6462168,125.056258 C50.6373292,124.530843 50.9614658,124.059276 51.449762,123.887275 L55.1229621,122.625756 C55.5908691,122.460551 55.8925253,121.998917 55.8611572,121.496506 L55.5746622,116.938203 L57.0144563,115.663614 C57.1273813,115.563759 57.1409742,115.391235 57.0453016,115.27465 L54.771117,112.503805 C54.0276939,111.456634 53.2816569,108.950849 52.6725936,109.122328 C52.6725936,109.122328 39.7154925,107.625548 39.0834261,114.159516 C38.9924587,115.105263 39.2768625,116.049964 39.8252808,116.823187 L40.972829,118.441256 C42.1250826,120.066122 42.7315318,122.056948 42.5271166,124.047775 C42.4847697,124.46131 41.9468074,127.124459 41.5860747,128.885253 C41.3816595,129.884848 40.8264448,130.77361 40.0213311,131.393652 C39.0091883,132.173671 37.7769463,133.166471 37.9777019,133.230775 C37.9777019,133.230775 39.4127907,134.284742 41.6775649,135.218465 C45.7005189,136.87679 50.2755508,136.4643 53.9926663,134.195866 L54.6085259,133.819972 Z" id="Fill-159" fill="#FFFFFF"></path>
                        <path d="M38.8851799,133.097827 C39.4837871,133.474766 40.5450732,134.087489 41.9116752,134.651069 C45.6319274,136.184967 49.9283064,135.863967 53.458259,133.800471 C52.359854,133.037182 50.9529964,131.862971 50.9195372,130.84194 L50.0401858,125.149683 C50.0360034,125.122497 50.0333894,125.094266 50.0328666,125.066557 C50.0192738,124.275559 50.5065243,123.569255 51.2452422,123.308377 L54.9236704,122.04529 C55.12704,121.973666 55.2629683,121.762977 55.2488526,121.535036 L54.9623577,116.976734 C54.9503332,116.788003 55.0261394,116.603977 55.1678185,116.479027 L56.3676469,115.416695 L54.2968319,112.893135 C54.2879443,112.881633 54.2790567,112.870654 54.2706919,112.859153 C53.9570112,112.41634 53.6616287,111.782705 53.3761793,111.168937 C53.1487608,110.680641 52.814691,109.962835 52.6139354,109.733325 C52.6097529,109.733325 52.6060933,109.732803 52.6024337,109.73228 C52.5224452,109.722869 44.5418872,108.841427 41.1384524,111.592929 C40.2695571,112.295573 39.7974677,113.154535 39.6944759,114.218436 C39.6197154,114.99009 39.843997,115.789453 40.3254968,116.468048 L41.4730451,118.086118 C42.7591357,119.899192 43.3504236,122.038494 43.1376436,124.110354 C43.1026159,124.452266 42.7826617,126.099612 42.1871913,129.008477 C41.9534992,130.150275 41.3172504,131.170259 40.3960749,131.8797 C39.6212838,132.476739 39.1591277,132.857861 38.8851799,133.097827 M46.7894089,136.837423 C44.9695385,136.837423 43.1512364,136.48976 41.4437682,135.785547 C39.1361244,134.834572 37.6754183,133.770149 37.6142506,133.725188 L37.6152962,133.724142 C37.4809363,133.625856 37.3800357,133.474766 37.3523273,133.314266 C37.2786123,132.895503 37.3695797,132.661811 39.646901,130.907813 C40.3349072,130.377693 40.8101334,129.615449 40.9847489,128.761715 C41.7841117,124.860051 41.9027875,124.121333 41.9169032,123.984882 C42.0993607,122.209449 41.5859701,120.366576 40.4718811,118.796081 L39.3243328,117.178535 C38.6723999,116.258928 38.3696981,115.165751 38.4726899,114.100805 C38.6070498,112.710677 39.244867,111.545354 40.3683665,110.637771 C43.9992197,107.702766 51.6561638,108.398091 52.6479174,108.502652 C53.439961,108.39966 53.9068223,109.400824 54.4886999,110.651364 C54.7469636,111.206056 55.0135922,111.779046 55.2598314,112.131937 L57.5193776,114.885007 C57.8262618,115.25881 57.7828693,115.802523 57.421091,116.123 L56.2061013,117.198924 L56.4732527,121.458184 C56.5218732,122.230884 56.0508294,122.949213 55.32675,123.20434 L51.6488446,124.467427 C51.4240402,124.546893 51.2698139,124.76281 51.2604035,125.010617 L52.139232,130.69817 C52.1449828,130.734766 52.1475968,130.771885 52.1465512,130.808481 C52.1481196,131.208424 53.5006059,132.418185 54.929944,133.297537 C55.1118787,133.409416 55.2227126,133.607558 55.2221898,133.820861 C55.221667,134.034686 55.1103103,134.232828 54.9278528,134.343662 L54.312516,134.719556 C52.0137598,136.122754 49.3992317,136.837423 46.7894089,136.837423" id="Fill-161" fill="#000000"></path>
                        <path d="M53.1035908,99.1785473 C50.1513333,99.026935 53.8846556,102.069637 42.9460893,98.9255116 C38.590111,97.6739259 40.8276995,102.784306 39.6968808,102.462261 C35.5207461,101.274457 35.6645164,101.310007 33.6344799,101.864176 C32.2903584,102.231183 31.4324419,104.745856 31.700116,106.618529 C32.0535295,109.08981 34.8259435,113.013954 37.3087256,117.161335 C38.5942934,119.309002 40.871092,119.503484 43.6236395,116.307078 C43.9169309,115.966734 42.4191059,113.962838 43.2012162,113.098648 C45.2328211,110.852695 46.1356985,114.245151 47.7757254,113.19798 C49.3504021,112.192634 50.0012894,111.542269 51.6653651,110.021964 C53.6791948,108.182227 57.0606719,111.045608 58.2265183,106.904501 C58.8350587,104.745333 57.1458885,99.3860993 53.1035908,99.1785473" id="Fill-163" fill="#000000"></path>
                        <path d="M252.905969,311.815221 C252.330888,311.815221 251.962313,311.806333 251.916307,311.805287 L251.948197,310.578273 C251.984271,310.579319 255.528862,310.665058 258.384401,310.275572 L258.550129,311.491607 C256.508068,311.77026 254.191537,311.815221 252.905969,311.815221" id="Fill-165" fill="#000000"></path>
                        <path d="M303.862759,334.599152 L316.598716,334.63837 C317.654251,334.641498 318.509554,333.784627 318.509031,332.72491 L318.495438,263.534283 C318.495438,262.353275 317.541849,261.392367 316.366069,261.388707 L284.093561,261.289375 L303.862759,334.599152 Z" id="Fill-167" fill="#FFFFFF"></path>
                        <path d="M303.862759,334.599152 L316.598716,334.638373 C317.217712,334.640453 317.767699,334.346639 318.11693,333.889188 C318.11693,333.889188 318.687829,333.101849 318.690991,331.117297 C318.693579,329.410874 318.495438,264.036172 318.495438,264.036172 C318.495438,262.603697 317.541849,261.643311 316.366069,261.639652 L284.093561,261.540319 L303.862759,334.599152 Z" id="Fill-169" fill="#FFFFFF"></path>
                        <path d="M316.604937,335.252025 L316.597095,335.252025 L303.861139,335.212815 C303.521841,335.21177 303.247893,334.936254 303.248939,334.597479 C303.249984,334.259226 303.524978,333.985279 303.862707,333.985279 L303.864276,333.985279 L316.600755,334.025011 C317.015859,334.038081 317.381819,333.840985 317.629104,333.516849 L317.629104,333.516849 C317.627536,333.516849 318.074531,332.809499 318.077145,331.116146 C318.079759,329.430636 317.883708,264.69166 317.88214,264.038158 C317.881617,263.005626 317.243277,262.25593 316.363926,262.253316 L284.09194,262.153983 C283.752642,262.152938 283.479217,261.876899 283.479739,261.538124 C283.480786,261.199871 283.755779,260.926447 284.093508,260.926447 L284.0956,260.926447 L316.367585,261.025779 C317.930238,261.030484 319.109154,262.324939 319.109154,264.036067 C319.111245,264.688 319.307296,329.42959 319.304196,331.118238 C319.301022,333.240287 318.684117,334.152575 318.613539,334.249293 C318.123674,334.891293 317.395412,335.252025 316.604937,335.252025" id="Fill-171" fill="#000000"></path>
                        <path d="M313.19847,288.694083 L303.450322,337.89123 C303.314393,338.582895 302.710035,339.080079 302.007914,339.077476 L227.59189,338.848478 C226.664964,338.845342 225.968593,337.992653 226.148436,337.07932 L240.92959,262.482407 C241.066041,261.790741 241.670399,261.293557 242.372521,261.295642 L316.788545,261.525158 C317.715471,261.528295 318.411842,262.380984 318.231998,263.294317 L314.193883,283.750476 L313.19847,288.694083 Z" id="Fill-173" fill="#FFFFFF"></path>
                        <path d="M297.194589,300.407754 C297.194589,314.122917 286.076702,325.240804 272.361539,325.240804 C258.646377,325.240804 247.52849,314.122917 247.52849,300.407754 C247.52849,286.692591 258.646377,275.574704 272.361539,275.574704 C286.076702,275.574704 297.194589,286.692591 297.194589,300.407754" id="Fill-175" fill="#FFF1ED"></path>
                        <path d="M302.012462,339.691338 L302.005666,339.691338 L227.589642,339.461829 C226.965418,339.459737 226.37988,339.181084 225.982552,338.696971 C225.584177,338.210766 225.424723,337.577654 225.546536,336.960748 L240.327689,262.363313 C240.52008,261.388289 241.376951,260.682508 242.367659,260.682508 L242.374456,260.682508 L316.790479,260.911494 C317.414704,260.913586 318.000764,261.192239 318.39757,261.676875 C318.796467,262.16308 318.955398,262.795669 318.834108,263.412575 L314.795993,283.869257 C314.73012,284.201758 314.407552,284.417675 314.07505,284.352325 C313.742549,284.286975 313.526109,283.963884 313.59146,283.631382 L317.630098,263.175223 C317.680286,262.919573 317.614414,262.656604 317.448686,262.454803 C317.284526,262.25457 317.043515,262.139554 316.78682,262.139031 L242.370796,261.909522 L242.367659,261.909522 C241.961966,261.909522 241.611166,262.199676 241.5317,262.601187 L226.750024,337.198623 C226.699835,337.454273 226.76623,337.716719 226.931958,337.919043 C227.095595,338.118753 227.337129,338.233769 227.593302,338.234815 L302.009848,338.464324 L302.012462,338.464324 C302.418156,338.464324 302.769478,338.173647 302.848421,337.772658 L312.596569,288.574989 C312.661919,288.242487 312.98501,288.026048 313.317512,288.091921 C313.650013,288.157794 313.86593,288.480885 313.800057,288.813386 L304.052432,338.010533 C303.860564,338.985034 303.003693,339.691338 302.012462,339.691338" id="Fill-177" fill="#000000"></path>
                        <path d="M251.918398,267.978876 L251.916829,267.978876 C248.099859,267.967374 244.993375,264.838933 244.992852,261.005233 C244.99233,259.14197 245.716409,257.393723 247.031254,256.082538 C248.333028,254.784423 250.05984,254.0708 251.895917,254.0708 C252.04021,254.071322 252.193914,254.074982 252.341344,254.084915 C252.679596,254.10635 252.935769,254.398073 252.914334,254.736325 C252.892376,255.074578 252.600653,255.333364 252.262401,255.309315 C252.141111,255.301473 252.019821,255.297291 251.895917,255.297814 C250.387114,255.297814 248.967709,255.884396 247.898058,256.951433 C246.81586,258.030495 246.219866,259.470289 246.219866,261.005233 C246.220912,264.163997 248.777932,266.741928 251.919966,266.751862 C252.259264,266.752385 252.533212,267.028423 252.532166,267.367199 C252.531121,267.705451 252.256127,267.978876 251.918398,267.978876" id="Fill-179" fill="#000000"></path>
                        <path d="M261.471646,268.008362 L261.470077,268.008362 C257.652584,267.99686 254.546623,264.868419 254.5461,261.034719 C254.545578,259.171456 255.269657,257.422686 256.584502,256.112024 C257.890981,254.809204 259.626681,254.104991 261.471123,254.100286 C261.613325,254.100286 261.754481,254.104991 261.894592,254.114401 C262.232844,254.135836 262.489539,254.427559 262.467582,254.765811 C262.446147,255.104064 262.150242,255.361282 261.816172,255.338801 C261.694882,255.330959 261.572546,255.326254 261.449165,255.3273 C259.940362,255.3273 258.520957,255.913882 257.451306,256.980919 C256.368585,258.059981 255.773114,259.499775 255.773114,261.034719 C255.77416,264.193483 258.33118,266.771414 261.473214,266.781348 C261.812512,266.78187 262.08646,267.057909 262.085414,267.396685 C262.084369,267.734937 261.809375,268.008362 261.471646,268.008362" id="Fill-181" fill="#000000"></path>
                        <path d="M271.024789,268.037795 L271.022698,268.037795 C267.205728,268.025771 264.099767,264.897852 264.099244,261.064152 C264.098721,259.200889 264.822801,257.45212 266.137645,256.141458 C267.43942,254.843343 269.166232,254.129719 271.002309,254.129719 C271.153398,254.130765 271.300305,254.134424 271.447213,254.143312 C271.785465,254.164747 272.04216,254.45647 272.020725,254.794722 C271.999813,255.132974 271.708613,255.388624 271.369838,255.368235 C271.248548,255.360393 271.12569,255.357256 271.002309,255.356733 C269.493505,255.356733 268.0741,255.943316 267.004449,257.010353 C265.922251,258.089414 265.326258,259.529208 265.326258,261.064152 C265.327304,264.222916 267.884323,266.800848 271.026358,266.810781 C271.365656,266.811827 271.639603,267.087343 271.638558,267.426118 C271.637512,267.76437 271.362519,268.037795 271.024789,268.037795" id="Fill-183" fill="#000000"></path>
                        <path d="M280.578194,268.067281 L280.576103,268.067281 C276.759133,268.055257 273.653172,264.927338 273.652126,261.093638 C273.652126,259.230375 274.376205,257.481606 275.690527,256.170944 C276.99753,254.867601 278.727479,254.156068 280.577671,254.158675 C280.71935,254.159205 280.860507,254.16391 281.000617,254.172798 C281.33887,254.194233 281.595565,254.485956 281.57413,254.824208 C281.552695,255.16246 281.2662,255.419156 280.92272,255.397721 C280.80143,255.389879 280.677004,255.385696 280.555714,255.386219 C279.04691,255.386219 277.627505,255.972802 276.557331,257.039839 C275.475133,258.1189 274.87914,259.558694 274.879663,261.093638 C274.880186,264.252402 277.437728,266.830334 280.580285,266.840267 C280.91906,266.841313 281.193008,267.116829 281.191963,267.455604 C281.190917,267.793856 280.916446,268.067281 280.578194,268.067281" id="Fill-185" fill="#000000"></path>
                        <path d="M290.131442,268.096767 L290.129351,268.096767 C286.312381,268.084743 283.20642,264.956824 283.205374,261.123124 C283.205374,259.259861 283.929453,257.511092 285.243775,256.20043 C286.550778,254.897087 288.303207,254.181895 290.130397,254.188127 C290.272599,254.188691 290.413755,254.193396 290.553866,254.202284 C290.892118,254.223719 291.148813,254.515442 291.127378,254.853694 C291.105943,255.191946 290.818403,255.447596 290.475968,255.427207 C290.354678,255.419365 290.232866,255.41466 290.108962,255.415705 C288.600158,255.415705 287.180753,256.002288 286.110579,257.069325 C285.028381,258.148386 284.432388,259.58818 284.432911,261.123124 C284.433434,264.281888 286.990976,266.85982 290.133533,266.869753 C290.472309,266.870799 290.746256,267.146315 290.745211,267.48509 C290.744165,267.823342 290.469172,268.096767 290.131442,268.096767" id="Fill-187" fill="#000000"></path>
                        <path d="M299.684586,268.126149 L299.683017,268.126149 C295.865524,268.114647 292.759563,264.986206 292.75904,261.152506 C292.758518,259.289243 293.482597,257.540996 294.796919,256.229811 C296.098693,254.931696 297.826028,254.21755 299.662105,254.21755 C299.812672,254.218073 299.960625,254.222255 300.107532,254.232188 C300.445784,254.253623 300.701957,254.545346 300.680522,254.883598 C300.658564,255.221851 300.367887,255.480114 300.028589,255.456588 C299.907299,255.448746 299.78235,255.445087 299.662105,255.445087 C298.153302,255.445087 296.733897,256.031669 295.663723,257.098706 C294.581525,258.177768 293.985532,259.617562 293.986054,261.152506 C293.986577,264.31127 296.54412,266.889202 299.686154,266.899135 C300.025452,266.899658 300.2994,267.175697 300.298354,267.514472 C300.297309,267.852724 300.022315,268.126149 299.684586,268.126149" id="Fill-189" fill="#000000"></path>
                        <path d="M308.694487,268.153962 L308.692395,268.153962 C304.875425,268.141937 301.769464,265.014019 301.768941,261.180319 C301.768418,259.317056 302.492498,257.568809 303.80682,256.257624 C305.113822,254.954281 306.859978,254.240658 308.693964,254.24534 C311.109828,254.253205 313.312388,255.493289 314.585409,257.562535 C314.763161,257.851122 314.672717,258.229107 314.38413,258.406859 C314.095544,258.584612 313.717559,258.494167 313.539807,258.205581 C312.491591,256.500727 310.678517,255.47865 308.690304,255.4729 C307.162157,255.483356 305.74798,256.0553 304.673624,257.126519 C303.591426,258.205581 302.995433,259.645375 302.995955,261.180319 C302.996478,264.339083 305.554021,266.917015 308.696578,266.926948 C309.035353,266.927993 309.309301,267.20351 309.308255,267.542285 C309.30721,267.880537 309.032216,268.153962 308.694487,268.153962" id="Fill-191" fill="#000000"></path>
                        <path d="M331.130546,56.1591314 C331.130546,79.4995841 312.20933,98.4213223 288.868355,98.4213223 C265.527902,98.4213223 246.606164,79.4995841 246.606164,56.1591314 C246.606164,32.8186788 265.527902,13.8969405 288.868355,13.8969405 C312.20933,13.8969405 331.130546,32.8186788 331.130546,56.1591314" id="Fill-193" fill="#000000"></path>
                        <path d="M288.868407,14.510709 C265.903326,14.510709 247.219985,33.1940499 247.219985,56.1591314 C247.219985,79.1242129 265.903326,97.8075539 288.868407,97.8075539 C311.833489,97.8075539 330.51683,79.1242129 330.51683,56.1591314 C330.51683,33.1940499 311.833489,14.510709 288.868407,14.510709 M288.868407,99.0350907 C265.226821,99.0350907 245.992448,79.8007175 245.992448,56.1591314 C245.992448,32.5175454 265.226821,13.2836949 288.868407,13.2836949 C312.509993,13.2836949 331.744367,32.5175454 331.744367,56.1591314 C331.744367,79.8007175 312.509993,99.0350907 288.868407,99.0350907" id="Fill-195" fill="#000000"></path>
                        <path d="M325.924075,56.1591314 C325.924075,79.4995841 307.002859,98.4213223 283.661884,98.4213223 C260.321431,98.4213223 241.399693,79.4995841 241.399693,56.1591314 C241.399693,32.8186788 260.321431,13.8969405 283.661884,13.8969405 C307.002859,13.8969405 325.924075,32.8186788 325.924075,56.1591314" id="Fill-197" fill="#F66442"></path>
                        <path d="M283.661936,14.510709 C260.696855,14.510709 242.013514,33.1940499 242.013514,56.1591314 C242.013514,79.1242129 260.696855,97.8075539 283.661936,97.8075539 C306.627018,97.8075539 325.310359,79.1242129 325.310359,56.1591314 C325.310359,33.1940499 306.627018,14.510709 283.661936,14.510709 M283.661936,99.0350907 C260.02035,99.0350907 240.7865,79.8007175 240.7865,56.1591314 C240.7865,32.5175454 260.02035,13.2836949 283.661936,13.2836949 C307.303522,13.2836949 326.537895,32.5175454 326.537895,56.1591314 C326.537895,79.8007175 307.303522,99.0350907 283.661936,99.0350907" id="Fill-199" fill="#000000"></path>
                        <path d="M311.836782,56.1591314 C311.836782,71.7197817 299.222639,84.3339253 283.661988,84.3339253 C268.101338,84.3339253 255.487195,71.7197817 255.487195,56.1591314 C255.487195,40.5984811 268.101338,27.9843375 283.661988,27.9843375 C299.222639,27.9843375 311.836782,40.5984811 311.836782,56.1591314" id="Fill-201" fill="#FFFFFF"></path>
                        <path d="M297.749385,56.1591314 C297.749385,63.9394566 291.442314,70.2465284 283.661988,70.2465284 C275.881663,70.2465284 269.574592,63.9394566 269.574592,56.1591314 C269.574592,48.3788063 275.881663,42.0717345 283.661988,42.0717345 C291.442314,42.0717345 297.749385,48.3788063 297.749385,56.1591314" id="Fill-203" fill="#F66442"></path>
                        <path d="M283.211334,56.6684442 L290.454742,48.5524808 L291.537463,49.6352017 L283.4215,56.8786102 C283.281389,57.0035597 283.086385,56.8085549 283.211334,56.6684442" id="Fill-205" fill="#FFFFFF"></path>
                        <path d="M290.479994,49.445425 L289.114437,50.9751408 L290.644676,49.6101073 L290.479994,49.445425 Z M283.321802,57.5336799 C283.127843,57.5336799 282.933883,57.457351 282.783317,57.3067843 C282.492639,57.0166297 282.480092,56.566498 282.753517,56.2601366 C282.753517,56.2601366 282.753517,56.2596138 282.753517,56.2596138 L289.996926,48.1436504 C290.109328,48.0176553 290.268259,47.9439404 290.437124,47.9387123 C290.602852,47.9345299 290.769103,47.9988345 290.888301,48.1185559 L291.971545,49.2012769 C292.090744,49.3209983 292.156094,49.4841122 292.150866,49.6524542 C292.146161,49.8213189 292.072446,49.9807732 291.946451,50.0931754 L283.830487,57.3365839 C283.682535,57.4683298 283.502168,57.5336799 283.321802,57.5336799 L283.321802,57.5336799 Z" id="Fill-207" fill="#000000"></path>
                        <path d="M290.445907,49.6439848 L290.445907,49.6439848 C290.026621,49.2246984 290.026621,48.5445342 290.445907,48.1252478 L293.429533,45.1416222 L294.94827,46.6603592 L291.964644,49.6439848 C291.545358,50.063794 290.865194,50.0632712 290.445907,49.6439848" id="Fill-209" fill="#FFFFFF"></path>
                        <path d="M290.942829,49.2732666 C291.087645,49.4180825 291.323429,49.4180825 291.467722,49.2732666 L294.080681,46.6608297 L293.429271,46.0094196 L290.816834,48.6223793 C290.672019,48.7666724 290.672019,49.0024556 290.816834,49.1472715 L290.942829,49.2732666 Z M291.205276,50.6085004 C290.795922,50.6085004 290.386569,50.4527057 290.07498,50.1411163 C290.07498,50.1411163 290.07498,50.1411163 290.074457,50.1405935 L289.948462,50.0145985 C289.325806,49.3914196 289.325806,48.3777084 289.948985,47.7545295 L292.995869,44.707645 C293.235312,44.4682022 293.623753,44.4682022 293.863196,44.707645 L295.382456,46.2263821 C295.621899,46.4663478 295.621899,46.8547889 295.382456,47.0942318 L292.335571,50.1411163 C292.023982,50.4527057 291.614629,50.6085004 291.205276,50.6085004 L291.205276,50.6085004 Z" id="Fill-211" fill="#000000"></path>
                        <path d="M292.792395,47.6508058 L292.438982,47.2973923 C291.817894,46.6763047 291.817894,45.6683442 292.438982,45.0472566 L327.584805,9.90143355 C328.205892,9.27982311 329.213853,9.27982311 329.83494,9.90143355 L330.188354,10.2548471 C330.809964,10.8764575 330.809964,11.8838951 330.188354,12.5055056 L295.043054,47.6508058 C294.421443,48.2724162 293.414005,48.2724162 292.792395,47.6508058" id="Fill-213" fill="#FFFFFF"></path>
                        <path d="M328.709977,10.0495954 C328.459555,10.0495954 328.209134,10.1447452 328.018311,10.3355675 L292.873011,45.4808678 C292.491889,45.8619898 292.491889,46.4825546 292.873011,46.8636766 L293.226424,47.2170901 L293.226424,47.2170901 C293.607546,47.598212 294.228111,47.598212 294.609233,47.2170901 L329.754533,12.071267 C330.135655,11.690145 330.135655,11.070103 329.754533,10.6884582 L329.40112,10.3355675 C329.21082,10.1447452 328.960399,10.0495954 328.709977,10.0495954 M293.917567,48.7295535 C293.352942,48.7295535 292.788317,48.5146823 292.358575,48.0849398 L292.358575,48.0849398 L292.005161,47.7315263 C291.145676,46.8720414 291.145676,45.4730258 292.005161,44.6130181 L327.150984,9.4677178 C328.010469,8.60823289 329.409485,8.60771009 330.26897,9.4677178 L330.622383,9.82060851 C331.481868,10.6806162 331.481868,12.0796318 330.622383,12.9391167 L295.477083,48.0849398 C295.046818,48.5146823 294.482193,48.7295535 293.917567,48.7295535" id="Fill-215" fill="#000000"></path>
                        <path d="M317.240924,20.2453136 L316.162909,15.0094612 C315.738394,12.9454426 316.379348,10.8066636 317.869331,9.31668058 L324.543932,2.64207964 C324.786512,2.39949996 325.202139,2.5239266 325.271671,2.86008768 L326.868306,10.6179324 L317.240924,20.2453136 Z" id="Fill-217" fill="#5479F7"></path>
                        <path d="M324.738571,3.31518599 L318.30289,9.75086685 C316.955109,11.0986479 316.379505,13.0183734 316.764287,14.8852959 L317.61227,19.0060137 L326.200323,10.417961 L324.738571,3.31518599 Z M317.241081,20.8588207 C317.182005,20.8588207 317.122928,20.8504558 317.064897,20.8332034 C316.848458,20.7683761 316.685344,20.5901009 316.63986,20.3689561 L315.561844,15.1331036 C315.09446,12.8604875 315.794491,10.5235668 317.435563,8.88301712 L324.110164,2.20841617 C324.382021,1.93603683 324.780395,1.83565903 325.149493,1.94597005 C325.518067,2.05680387 325.795152,2.35950568 325.872527,2.73696803 L327.469161,10.4942899 C327.510985,10.6960911 327.448249,10.9057344 327.302387,11.0515959 L317.675006,20.6789771 C317.558422,20.7960845 317.401581,20.8588207 317.241081,20.8588207 L317.241081,20.8588207 Z" id="Fill-219" fill="#000000"></path>
                        <path d="M319.844683,22.8491242 L325.080535,23.92714 C327.144554,24.3516544 329.283333,23.7107004 330.773316,22.2207174 L337.447917,15.5461164 C337.690496,15.3035367 337.56607,14.8879099 337.229909,14.8183774 L329.472064,13.221743 L319.844683,22.8491242 Z" id="Fill-221" fill="#5479F7"></path>
                        <path d="M321.08393,22.4776741 L325.204125,23.3256574 C327.072616,23.710439 328.991819,23.134835 330.3396,21.7870539 L336.774758,15.351373 L329.672506,13.8896213 L321.08393,22.4776741 Z M326.351674,24.6703017 C325.888472,24.6703017 325.421611,24.6237724 324.956841,24.5280998 L319.720988,23.450084 C319.499843,23.4046003 319.321568,23.2414864 319.256741,23.0250468 C319.191913,22.80913 319.251513,22.5749151 319.410967,22.4154608 L329.038348,12.7880795 C329.18421,12.6416952 329.393853,12.5794819 329.595654,12.6207832 L337.353499,14.2174176 C337.730438,14.2953149 338.03314,14.5723995 338.143451,14.9409742 C338.254285,15.309549 338.153907,15.7079234 337.881528,15.9803027 L331.20745,22.6549036 C329.901493,23.9603379 328.155337,24.6703017 326.351674,24.6703017 L326.351674,24.6703017 Z" id="Fill-223" fill="#000000"></path>
                        <path d="M328.384429,15.9367534 L334.690455,17.1167153 L328.384429,15.9367534 Z" id="Fill-225" fill="#FFFFFF"></path>
                        <path d="M334.691082,17.7303269 C334.653963,17.7303269 334.615799,17.7266673 334.577635,17.7198709 L328.271608,16.5399089 C327.938584,16.4776956 327.719008,16.1572186 327.781221,15.8236715 C327.843957,15.4906472 328.163388,15.2710708 328.497458,15.3338069 L334.803485,16.5132461 C335.136509,16.5759822 335.356085,16.8964593 335.293872,17.2294835 C335.238455,17.5243433 334.980714,17.7303269 334.691082,17.7303269" id="Fill-227" fill="#000000"></path>
                        <path d="M325.821344,18.4998901 L332.127371,19.679852 L325.821344,18.4998901 Z" id="Fill-229" fill="#FFFFFF"></path>
                        <path d="M332.12805,20.2934636 C332.090931,20.2934636 332.052767,20.289804 332.014602,20.2830076 L325.708576,19.1030456 C325.375552,19.0408323 325.155975,18.7203553 325.218189,18.3868082 C325.280925,18.0537839 325.601402,17.8342075 325.934426,17.8969436 L332.240452,19.0763828 C332.573477,19.1391189 332.793053,19.4595959 332.73084,19.7926202 C332.675423,20.08748 332.417682,20.2934636 332.12805,20.2934636" id="Fill-231" fill="#000000"></path>
                        <path d="M316.220312,22.5687983 L317.521041,23.8695273 L316.220312,22.5687983 Z" id="Fill-233" fill="#FFFFFF"></path>
                        <path d="M317.521198,24.4834003 C317.364358,24.4834003 317.206995,24.4232782 317.087273,24.3035567 L315.786544,23.0028277 C315.546579,22.7628621 315.546579,22.3744209 315.786544,22.134978 C316.025987,21.8955351 316.414428,21.8955351 316.653871,22.134978 L317.955123,23.435707 C318.194566,23.6756727 318.194566,24.0641139 317.955123,24.3035567 C317.835402,24.4232782 317.678038,24.4834003 317.521198,24.4834003" id="Fill-235" fill="#000000"></path>
                        <path d="M317.725561,21.063445 L319.02629,22.3646968 L317.725561,21.063445 Z" id="Fill-237" fill="#FFFFFF"></path>
                        <path d="M319.026499,22.978047 C318.869659,22.978047 318.712296,22.9179248 318.592574,22.7982034 L317.291845,21.4974744 C317.05188,21.2575087 317.05188,20.8690676 317.291845,20.6296247 C317.531288,20.389659 317.919729,20.389659 318.159172,20.6296247 L319.460424,21.9303537 C319.699867,22.1703194 319.699867,22.5587605 319.460424,22.7982034 C319.340703,22.9179248 319.18334,22.978047 319.026499,22.978047" id="Fill-239" fill="#000000"></path>
                        <path d="M319.230967,19.5581962 L320.531696,20.8589252 L319.230967,19.5581962 Z" id="Fill-241" fill="#FFFFFF"></path>
                        <path d="M320.531853,21.4727459 C320.375012,21.4727459 320.217649,21.4126238 320.097928,21.2929024 L318.797199,19.9921734 C318.557233,19.7522077 318.557233,19.3637665 318.797199,19.1243236 C319.036642,18.8843579 319.425083,18.8843579 319.664526,19.1243236 L320.965777,20.4250526 C321.20522,20.6650183 321.20522,21.0534595 320.965777,21.2929024 C320.846056,21.4126238 320.688693,21.4727459 320.531853,21.4727459" id="Fill-243" fill="#000000"></path>
                        <path d="M266.417814,315.174949 C266.333643,315.218342 265.625248,315.517384 265.09931,314.652148 L265.092514,314.628099 L263.786034,311.016067 C263.570117,310.419551 262.850743,310.213045 262.181557,310.555479 C261.512372,310.897914 261.143797,311.658589 261.360237,312.256674 L262.59823,315.675793 L262.629598,315.765192 L262.62071,315.770942 L262.668285,315.899551 L262.702267,315.98895 C263.388705,317.328367 264.467766,317.750267 265.452724,317.750267 C266.114067,317.750267 266.728358,317.568332 267.154441,317.357121 L266.518715,315.473991 L266.417814,315.174949 Z M272.846699,313.728882 C272.074522,314.01224 271.517216,314.095365 271.089564,313.419906 L270.509778,311.786153 L268.965947,307.427561 C268.754212,306.829476 268.040589,306.618265 267.368789,306.95704 C266.698036,307.297906 266.325801,308.058059 266.537013,308.657189 L268.068297,312.978662 L268.09496,313.051854 L268.495948,314.105298 L268.790285,314.886363 L268.833155,315.006607 C268.908438,315.124238 268.982676,315.239254 269.063188,315.3412 C269.72244,316.175068 270.566241,316.436468 271.365081,316.436468 C272.275277,316.436468 273.12692,316.105535 273.568164,315.935102 C273.64397,315.904779 273.707752,315.879685 273.763692,315.86191 L273.443215,315.111167 L272.846699,313.728882 Z" id="Fill-245" fill="#F66442"></path>
                        <path d="M260.20929,315.958001 C259.588203,315.953818 258.832755,315.716467 258.456861,314.721053 L254.957754,305.31534 L252.218799,305.31534 L255.455461,290.087714 L263.44752,290.087714 L265.952783,287.595521 L255.985581,287.595521 L256.604577,284.683519 L248.098604,284.683519 L247.568484,287.175712 L253.582264,287.175712 L249.035986,308.564025 L242.967835,308.564025 L242.438237,311.056218 L250.998582,311.056218 L251.687111,307.817466 L253.005092,307.817466 L256.039429,315.982572 C256.761418,317.896547 258.331912,318.444442 259.721517,318.444442 C260.169035,318.442351 260.626486,318.38432 261.082891,318.271918 L260.20929,315.958001 Z" id="Fill-247" fill="#F66442"></path>
                        <path d="M282.263757,308.371007 L277.669904,293.587239 L277.679315,293.550643 C277.013789,293.506205 272.863794,293.136585 272.82197,293.134494 L272.248457,293.082214 L265.918905,298.370869 C264.926106,299.007641 264.096944,299.253357 263.447625,299.092857 C262.799351,298.937585 262.351311,298.384985 262.084682,297.910281 L269.364687,290.480233 C271.456937,288.403667 273.032136,288.292833 273.054094,288.290742 L282.130966,288.283946 L289.743472,291.950349 L286.255866,308.357937 L282.263757,308.371007 Z M292.813882,289.231261 L298.842301,289.231261 L299.371898,286.739068 L290.851287,286.739068 L290.32169,289.231261 L283.24976,285.824167 L283.244532,285.829917 L283.252897,285.79123 L273.566439,285.797504 C273.289354,285.802209 270.773113,285.924022 267.727274,288.94738 L259.158565,297.69175 L259.345205,298.384985 C259.417351,298.645339 260.106926,300.954552 262.348174,301.516563 C262.668128,301.594983 262.998016,301.635761 263.338882,301.635761 C264.478588,301.635761 265.735925,301.188244 267.088411,300.300005 L272.651014,295.667465 C273.363069,295.731246 274.595834,295.837898 275.582883,295.923114 L280.192942,310.757594 C280.189805,310.763345 280.186146,310.769096 280.181441,310.774324 C279.65132,311.483242 279.090878,312.090214 278.65277,312.376186 C278.5388,312.450424 278.435285,312.499044 278.342749,312.525707 C278.313472,312.533549 278.277922,312.554461 278.250736,312.558644 C278.134152,312.566486 277.89314,312.455652 277.617624,312.065119 L276.218609,308.788725 L274.263855,304.203237 C274.015525,303.622928 273.28099,303.454586 272.624351,303.823684 C271.965099,304.195395 271.631029,304.965481 271.878837,305.54579 L273.682501,309.770023 L273.803791,310.055995 L274.729148,312.202093 L275.322528,313.578629 L275.333506,313.611042 C275.358078,313.647638 275.382127,313.679529 275.405653,313.714034 C275.416109,313.729195 275.423428,313.742788 275.435453,313.754812 C275.773182,314.235789 276.157964,314.582407 276.589275,314.793618 C276.927527,314.957778 277.290874,315.050836 277.68402,315.050836 C277.724798,315.050836 277.7661,315.047177 277.807401,315.045085 C277.863341,315.042994 277.917712,315.042994 277.973129,315.037243 C278.489134,314.985486 278.989454,314.797278 279.465203,314.524898 C280.962505,313.663845 282.205203,311.939647 282.882231,310.85954 L285.726268,310.849607 L285.245291,313.11229 L293.821843,313.11229 L294.350917,310.621666 L288.267081,310.621666 L292.813882,289.231261 Z" id="Fill-249" fill="#F66442"></path>
                        <path d="M127.899011,98.8675853 C127.619835,100.155767 127.341705,101.148043 127.063575,101.843369 C126.358839,103.479736 125.249455,104.675905 123.735946,105.432921 C122.220869,106.189937 120.419819,106.567922 118.329661,106.567922 L115.149985,106.567922 C114.393492,106.567922 113.845073,105.956245 113.924539,105.201843 L115.282253,92.2818605 C115.346035,91.6769797 115.857857,91.1803187 116.466921,91.1097406 C121.003788,90.5806659 124.879312,86.7767655 125.364472,82.1620007 L125.364994,82.1567727 C125.390089,81.9209894 125.646784,81.7573527 125.853291,81.8535481 C125.970398,81.9079194 126.084891,81.9649047 126.195725,82.0255496 C127.552394,82.7616535 128.409265,83.9688011 128.766338,85.6449012 C128.897561,86.341795 128.967616,87.332503 128.975981,88.6212076 C128.983823,89.9093894 128.876126,91.618426 128.65289,93.744135 C128.429131,95.8714125 128.177664,97.5788807 127.899011,98.8675853 M138.236879,86.7804251 C138.205511,85.1236686 138.047102,83.7032181 137.762698,82.5164598 C137.013002,79.1213898 135.33481,76.6673617 132.727602,75.1538527 C130.11987,73.6408664 126.582075,72.8833277 122.116309,72.8833277 L112.219162,72.8833277 C110.989534,72.8833277 109.987324,73.2513797 109.213579,73.9880063 C108.438788,74.7241102 107.990224,75.6855413 107.865798,76.8712541 L104.312319,110.678706 C104.18737,111.864942 104.435177,112.81644 105.057311,113.531632 C105.678398,114.247869 106.604279,114.605465 107.833907,114.605465 L117.731054,114.605465 C122.197343,114.605465 125.894069,113.848972 128.819664,112.335463 C131.744736,110.822477 133.938932,108.368449 135.402252,104.972333 C135.936032,103.78662 136.39296,102.365124 136.773036,100.708368 C137.151544,99.0516112 137.498161,96.7308974 137.811842,93.7446578 C138.126045,90.7589411 138.267201,88.4371816 138.236879,86.7804251" id="Fill-251" fill="#F66442"></path>
                    </g>
                </g>
            </g>
        </g>
    </g>
</svg>