<?xml version="1.0" encoding="UTF-8"?>
<svg width="56px" height="56px" viewBox="0 0 56 56" version="1.1" xmlns="http://www.w3.org/2000/svg" xmlns:xlink="http://www.w3.org/1999/xlink">
    <title>编组 8</title>
    <g id="24DET" stroke="none" stroke-width="1" fill="none" fill-rule="evenodd">
        <g id="8分享有礼" transform="translate(-1340.000000, -1622.000000)">
            <g id="编组-9备份-2" transform="translate(1176.000000, 1590.000000)">
                <g id="编组-8" transform="translate(164.000000, 32.000000)">
                    <rect id="矩形" fill-opacity="0" fill="#FFFFFF" x="0" y="0" width="56" height="56"></rect>
                    <circle id="椭圆形" fill="#FCE2DB" cx="31" cy="30" r="20"></circle>
                    <g id="编组" transform="translate(3.000000, 3.000000)" fill="#F66442" fill-rule="nonzero">
                        <path d="M25,0 C11.1928813,0 0,11.1928813 0,25 C0,38.8071187 11.1928813,50 25,50 C38.8071187,50 50,38.8071187 50,25 C50,18.3695878 47.366079,12.0107399 42.6776695,7.32233047 C37.9892601,2.63392101 31.6304122,0 25,0 L25,0 Z M25,47.3684211 C12.6462622,47.3684211 2.63157891,37.3537378 2.63157891,25 C2.63157891,12.6462622 12.6462622,2.63157891 25,2.63157891 C37.3537378,2.63157891 47.3684211,12.6462622 47.3684211,25 C47.3684211,37.3537378 37.3537378,47.3684211 25,47.3684211 L25,47.3684211 Z" id="形状" stroke="#F66442"></path>
                        <path d="M29.5263158,20.618421 C29.5263158,21.3451115 30.1154148,21.9342105 30.8421053,21.9342105 C31.5687957,21.9342105 32.1578947,21.3451115 32.1578947,20.618421 C32.1578947,17.8289473 29.6447368,15.5 26.3157895,15.0131579 L26.3157895,13.1578947 C26.3157895,12.4312043 25.7266904,11.8421053 25,11.8421053 C24.2733096,11.8421053 23.6842105,12.4312043 23.6842105,13.1578947 L23.6842105,15.0131579 C20.3552632,15.5 17.8421053,17.8289473 17.8421053,20.618421 C17.8421053,23.4078948 20.3552632,25.7236842 23.6842105,26.2105263 L23.6842105,32.3026316 C21.8552632,31.9078947 20.4736842,30.7368421 20.4736842,29.381579 C20.4736842,28.6548885 19.8845852,28.0657895 19.1578947,28.0657895 C18.4312043,28.0657895 17.8421053,28.6548885 17.8421053,29.381579 C17.8421053,32.1710527 20.3552632,34.5 23.6842105,34.9868421 L23.6842105,36.8421053 C23.6842105,37.5687957 24.2733096,38.1578947 25,38.1578947 C25.7266904,38.1578947 26.3157895,37.5687957 26.3157895,36.8421053 L26.3157895,34.9868421 C29.6447368,34.5 32.1578947,32.1710527 32.1578947,29.381579 C32.1578947,26.5921052 29.6447368,24.2763158 26.3157895,23.7894737 L26.3157895,17.6973684 C28.1447368,18.0921053 29.5263158,19.2631579 29.5263158,20.618421 L29.5263158,20.618421 Z M20.4736842,20.618421 C20.4736842,19.3026316 21.8552631,18.0921053 23.6842105,17.6973684 L23.6842105,23.5263158 C21.8552632,23.131579 20.4736842,21.9736842 20.4736842,20.618421 Z M29.5263158,29.381579 C29.5263158,30.6973684 28.1447369,31.9078947 26.3157895,32.3026316 L26.3157895,26.4736842 C28.1447368,26.868421 29.5263158,28.0263158 29.5263158,29.381579 Z" id="形状"></path>
                    </g>
                </g>
            </g>
        </g>
    </g>
</svg>