<?xml version="1.0" encoding="UTF-8"?>
<svg width="18px" height="18px" viewBox="0 0 18 18" version="1.1" xmlns="http://www.w3.org/2000/svg" xmlns:xlink="http://www.w3.org/1999/xlink">
    <title>编组</title>
    <g id="24DET" stroke="none" stroke-width="1" fill="none" fill-rule="evenodd">
        <g id="8分享有礼" transform="translate(-400.000000, -3382.000000)" fill="#06CC76" fill-rule="nonzero">
            <g id="编组" transform="translate(400.000000, 3382.000000)">
                <path d="M8.99979517,0 C4.03819105,0 0,4.03778137 0,8.99979515 C0,13.9618089 4.03778137,18 8.99979517,18 C13.961809,18 18,13.9622186 18,8.99979515 C17.9995903,4.03778137 13.9618089,0 8.99979517,0 Z M14.0359606,7.27423355 L8.18207889,13.2747798 C8.04177064,13.4179022 7.8499231,13.4987733 7.64949814,13.4992835 L7.64540137,13.4992835 C7.44668394,13.4994993 7.25600969,13.420813 7.11527869,13.2805153 L3.96936522,10.1325534 C3.82854277,9.99199255 3.74940752,9.80119404 3.74940752,9.6022259 C3.74940752,9.40325777 3.82854277,9.21245926 3.96936522,9.07189839 C4.10992609,8.93107594 4.3007246,8.85194069 4.49969273,8.85194069 C4.69866087,8.85194069 4.88945938,8.93107594 5.03002025,9.07189839 L7.64171428,11.681544 L12.9634249,6.22341079 C13.2532277,5.92783848 13.727506,5.92234278 14.0240799,6.21112047 C14.3198231,6.50188299 14.325132,6.97693441 14.0359606,7.27423355 L14.0359606,7.27423355 Z" id="形状"></path>
            </g>
        </g>
    </g>
</svg>