<?xml version="1.0" encoding="UTF-8"?>
<svg width="18px" height="18px" viewBox="0 0 18 18" version="1.1" xmlns="http://www.w3.org/2000/svg" xmlns:xlink="http://www.w3.org/1999/xlink">
    <title>编组</title>
    <g id="24DET" stroke="none" stroke-width="1" fill="none" fill-rule="evenodd">
        <g id="8分享有礼" transform="translate(-1012.000000, -3382.000000)" fill-rule="nonzero">
            <g id="编组" transform="translate(1012.000000, 3382.000000)">
                <path d="M0,9 C0,12.2153905 1.71539023,15.1865338 4.5,16.794229 C7.28460966,18.4019242 10.7153903,18.4019242 13.5,16.794229 C16.2846098,15.1865338 18,12.2153905 18,9 C18,5.78460984 16.2846098,2.81346659 13.5,1.2057714 C10.7153903,-0.401923799 7.28460966,-0.401923799 4.5,1.2057714 C1.71539023,2.81346659 0,5.78460984 0,9 L0,9 Z" id="路径" fill="#F66442"></path>
                <path d="M13.3048828,13.0078127 L13.1589844,13.1607424 C12.9585938,13.3699221 12.6228516,13.3751955 12.4136719,13.1748049 L4.69160156,5.739258 C4.48242187,5.53886737 4.47714843,5.20312518 4.67753906,4.9939455 L4.82343749,4.84101582 C5.02382812,4.63183614 5.35957031,4.62656269 5.56874999,4.82695332 L13.2908203,12.2625002 C13.5,12.4628908 13.5070313,12.798633 13.3048828,13.0078127 L13.3048828,13.0078127 Z" id="路径" fill="#FFFFFF"></path>
                <path d="M4.98339843,13.3154299 L4.83046875,13.1695314 C4.62128907,12.9691408 4.61601562,12.6333986 4.81640625,12.4242189 L12.2519531,4.70214863 C12.4523438,4.49296894 12.7880859,4.4876955 12.9972656,4.68808613 L13.1501953,4.83398456 C13.359375,5.03437519 13.3646484,5.37011738 13.1642578,5.57929706 L5.73046875,13.3013674 C5.5283203,13.5105471 5.19257811,13.5158205 4.98339843,13.3154299 Z" id="路径" fill="#FFFFFF"></path>
            </g>
        </g>
    </g>
</svg>