<?xml version="1.0" encoding="UTF-8"?>
<svg width="56px" height="56px" viewBox="0 0 56 56" version="1.1" xmlns="http://www.w3.org/2000/svg" xmlns:xlink="http://www.w3.org/1999/xlink">
    <title>编组 8</title>
    <g id="24DET" stroke="none" stroke-width="1" fill="none" fill-rule="evenodd">
        <g id="8分享有礼" transform="translate(-932.000000, -1622.000000)">
            <g id="编组-9备份" transform="translate(768.000000, 1590.000000)">
                <g id="编组-8" transform="translate(164.000000, 32.000000)">
                    <rect id="矩形" fill-opacity="0" fill="#FFFFFF" x="0" y="0" width="56" height="56"></rect>
                    <rect id="矩形" fill="#FCE2DB" x="12" y="12" width="39" height="40" rx="8"></rect>
                    <g id="编组" transform="translate(3.000000, 3.000000)" fill="#F66442" fill-rule="nonzero">
                        <path d="M41.9280202,49.9999885 L8.07185482,49.9999885 C3.61603416,49.9948223 0.00516618376,46.3839543 0,41.9281337 L0,8.07196827 C0.00516618376,3.61614761 3.61603416,0.00527963149 8.07185482,0.000113447724 L24.9999375,0.000113447724 C25.8628803,0.000113447724 26.5624336,0.699666778 26.5624336,1.56260954 C26.5624336,2.42555231 25.8628803,3.12510564 24.9999375,3.12510564 L8.07185482,3.12510564 C5.34373665,3.12510564 3.12499219,5.3438501 3.12499219,8.07196827 L3.12499219,41.9250087 C3.12499219,44.6562518 5.34373665,46.8749963 8.07185482,46.8749963 L41.9248952,46.8749963 C44.6561384,46.8749963 46.8748828,44.6562518 46.8748828,41.9281337 L46.8748828,28.3469176 C46.8748828,27.4839748 47.5744362,26.7844215 48.4373789,26.7844215 C49.3003217,26.7844215 49.999875,27.4839748 49.999875,28.3469176 L49.999875,41.9281337 C49.9947089,46.3839543 46.3838409,49.9948223 41.9280202,49.9999885 Z" id="路径"></path>
                        <path d="M17.9062052,36.2562745 C17.1087599,36.2574294 16.4394757,35.6556133 16.3562091,34.8625263 C16.3124592,34.4500273 15.3562116,24.6531768 22.399944,16.8563213 C27.3843066,11.3375851 35.0124125,8.30009274 45.1030123,7.80634393 L40.6248985,2.578232 C40.2620515,2.15398017 40.1531027,1.56837877 40.3390921,1.04201817 C40.5250815,0.515657575 40.9777528,0.128504479 41.5265892,0.0263957108 C42.0754255,-0.0757130577 42.6370456,0.122735251 42.9998925,0.546987081 L49.624876,8.27821775 C50.0213272,8.74172068 50.111836,9.39354234 49.8566678,9.94752591 C49.6014996,10.5015095 49.047304,10.8563764 48.4373789,10.8563363 L48.1217547,10.8563363 C37.4624063,10.8563363 29.596801,13.5688295 24.7436882,18.9188162 C18.6312035,25.6562993 19.4530764,34.4469024 19.4624514,34.5344021 C19.5499035,35.391485 18.9284526,36.1581738 18.0718298,36.2500228 C18.01558,36.2562745 17.9624551,36.2562745 17.9062052,36.2562745 L17.9062052,36.2562745 Z" id="路径"></path>
                        <path d="M41.8123955,19.6906924 C41.2200028,19.6918749 40.6778843,19.3579504 40.4124283,18.8283622 C40.1469722,18.2987741 40.2038361,17.6646097 40.5592737,17.1906955 L47.1842571,8.35634256 C47.7020227,7.66512542 48.6820969,7.5245152 49.3733141,8.04228086 C50.0645312,8.56004651 50.2051415,9.54012071 49.6873758,10.2313379 L43.0623924,19.0656908 C42.7673081,19.4591364 42.3042025,19.6906924 41.8123955,19.6906924 L41.8123955,19.6906924 Z" id="路径"></path>
                    </g>
                </g>
            </g>
        </g>
    </g>
</svg>