<?xml version="1.0" encoding="UTF-8"?>
<svg width="56px" height="56px" viewBox="0 0 56 56" version="1.1" xmlns="http://www.w3.org/2000/svg" xmlns:xlink="http://www.w3.org/1999/xlink">
    <title>编组 8</title>
    <g id="24DET" stroke="none" stroke-width="1" fill="none" fill-rule="evenodd">
        <g id="8分享有礼" transform="translate(-524.000000, -1622.000000)">
            <g id="编组-9" transform="translate(360.000000, 1590.000000)">
                <g id="编组-8" transform="translate(164.000000, 32.000000)">
                    <rect id="矩形" fill-opacity="0" fill="#FFFFFF" x="0" y="0" width="56" height="56"></rect>
                    <circle id="椭圆形" fill="#FCE2DB" cx="28" cy="23" r="12"></circle>
                    <g id="编组" transform="translate(5.000000, 3.000000)" fill="#F66442" fill-rule="nonzero">
                        <path d="M29.5498299,30.600375 C30.3174256,30.9005485 31.0674129,31.2439351 31.7961923,31.6288866 C32.6994349,32.1059532 33.0449688,33.2249587 32.5679023,34.1282665 C32.0908357,35.0315743 30.9718302,35.377043 30.0685224,34.9000417 C27.4701668,33.5277577 24.5712959,32.8004791 21.5636626,32.8004791 C12.7909097,32.8004791 5.3076457,39.0396641 3.66616353,47.5420446 C3.47251835,48.5450457 2.50240037,49.201208 1.49939925,49.0075628 C0.496332875,48.8139176 -0.159764134,47.8437996 0.0338810454,46.8407985 C1.48471927,39.325891 6.72207759,33.2832872 13.5804966,30.6020061 C8.58813075,27.805112 5.21402008,22.4661683 5.21402008,16.3394645 C5.21402008,7.31512933 12.5343037,0 21.5637279,0 C30.5930216,0 37.9133052,7.31519458 37.9133052,16.3394645 C37.9133052,22.4649939 34.5404994,27.8030242 29.5498299,30.600375 L29.5498299,30.600375 Z M34.2139516,16.3394645 C34.2139516,9.35884281 28.5504825,3.69935366 21.5637279,3.69935366 C14.5768428,3.69935366 8.91337374,9.35877757 8.91337374,16.3394645 C8.91337374,23.3200861 14.5768428,28.97951 21.5637279,28.97951 C28.5504825,28.97951 34.2139516,23.3200208 34.2139516,16.3394645 Z M35.0421631,38.9642417 L35.0421631,33.4168423 C35.0415863,33.0883935 35.1287561,32.7657525 35.2946587,32.4822825 C35.455454,32.2078212 35.6840427,31.979255 35.9585198,31.8184866 C36.2419898,31.6525841 36.5646308,31.5654143 36.8930796,31.5659882 C37.2215284,31.5654143 37.5441693,31.6525841 37.8276394,31.8184866 C38.1020926,31.9792638 38.3306581,32.2078293 38.4914352,32.4822825 C38.6573378,32.7657525 38.7445076,33.0883935 38.7439308,33.4168423 L38.7439308,38.9642417 L44.2361335,38.9642417 C45.2575988,38.9642417 46.0856798,39.7923228 46.0856798,40.8138533 C46.0856798,41.8353185 45.2575988,42.6633996 44.2361335,42.6633996 L38.7438656,42.6633996 L38.7438656,48.1491431 C38.7444424,48.4775919 38.6572726,48.8002329 38.49137,49.0837029 C38.330611,49.358148 38.1020687,49.5867128 37.8276394,49.7474988 C37.5441693,49.9134013 37.2215284,50.0005712 36.8930796,49.9999972 C36.5646308,50.0005712 36.2419898,49.9134013 35.9585198,49.7474988 C35.6840427,49.5867305 35.455454,49.3581642 35.2946587,49.0837029 C35.1287561,48.8002329 35.0415863,48.4775919 35.0421631,48.1491431 L35.0421631,42.6633996 L29.4883045,42.6633996 C28.4668393,42.6633996 27.6387582,41.8353185 27.6387582,40.8138533 C27.6387582,39.7923228 28.4668393,38.9642417 29.4883045,38.9642417 L35.0421631,38.9642417 L35.0421631,38.9642417 Z" id="形状"></path>
                    </g>
                </g>
            </g>
        </g>
    </g>
</svg>