<?xml version="1.0" encoding="UTF-8"?>
<svg width="1920px" height="384px" viewBox="0 0 1920 384" version="1.1" xmlns="http://www.w3.org/2000/svg" xmlns:xlink="http://www.w3.org/1999/xlink">
    <title>编组 4</title>
    <defs>
        <linearGradient x1="50%" y1="0%" x2="50%" y2="100%" id="linearGradient-1">
            <stop stop-color="#FFE4DD" offset="0%"></stop>
            <stop stop-color="#FFF0EC" offset="100%"></stop>
        </linearGradient>
        <polygon id="path-2" points="0 0.49779661 4.81012658 0.49779661 4.81012658 5.32805085 0 5.32805085"></polygon>
        <polygon id="path-4" points="0.119392405 0.49779661 4.92951899 0.49779661 4.92951899 5.32805085 0.119392405 5.32805085"></polygon>
        <polygon id="path-6" points="0.238835443 0.49779661 5.04896203 0.49779661 5.04896203 5.32805085 0.238835443 5.32805085"></polygon>
        <polygon id="path-8" points="0.357974684 0.49779661 5.16810127 0.49779661 5.16810127 5.32805085 0.357974684 5.32805085"></polygon>
        <polygon id="path-10" points="0.477417722 0.49779661 5.2875443 0.49779661 5.2875443 5.32805085 0.477417722 5.32805085"></polygon>
        <polygon id="path-12" points="0.0904810127 0.49779661 4.90060759 0.49779661 4.90060759 5.32805085 0.0904810127 5.32805085"></polygon>
        <polygon id="path-14" points="0.209924051 0.49779661 5.02005063 0.49779661 5.02005063 5.32805085 0.209924051 5.32805085"></polygon>
        <polygon id="path-16" points="0.329063291 0.49779661 5.13918987 0.49779661 5.13918987 5.32805085 0.329063291 5.32805085"></polygon>
        <polygon id="path-18" points="0.448455696 0.49779661 5.25858228 0.49779661 5.25858228 5.32805085 0.448455696 5.32805085"></polygon>
        <polygon id="path-20" points="0.0615696203 0.49779661 4.8716962 0.49779661 4.8716962 5.32805085 0.0615696203 5.32805085"></polygon>
    </defs>
    <g id="页面-1" stroke="none" stroke-width="1" fill="none" fill-rule="evenodd">
        <g id="编组-4">
            <rect id="矩形" fill="#FFF4F1" x="0" y="0" width="1920" height="384"></rect>
            <g id="编组-2备份-2" transform="translate(202.000000, 264.000000)">
                <circle id="椭圆形" fill="url(#linearGradient-1)" cx="50" cy="50" r="50"></circle>
                <g id="编组" transform="translate(30.000000, 25.000000)" fill="#FFD7CC" fill-rule="nonzero">
                    <path d="M31.5955556,1.58583333 C30.72,0.728055573 29.0222222,0.0347222396 27.7955556,0.0347222396 L4,0.0347222396 C1.79111109,0.0347222396 0,1.93694443 0,4.28805557 L0,44.6702778 C0,47.0191667 1.79555557,48.9236111 4,48.9236111 L36,48.9236111 C38.2088889,48.9236111 40,47.0125 40,44.6747222 L40,12.0569444 C40,10.8236111 39.2822222,9.11916667 38.4177778,8.2725 L31.5955556,1.58361109 L31.5955556,1.58583333 Z M11.1111111,13.3680555 L28.8888889,13.3680555 C30.1160555,13.3682434 31.1107709,14.3631112 31.1107709,15.5902778 C31.1107709,16.8174444 30.1160555,17.8123121 28.8888889,17.8125 L11.1111111,17.8125 C10.3171065,17.8126216 9.58336405,17.389095 9.18632668,16.7014871 C8.7892893,16.0138792 8.7892893,15.1666763 9.18632668,14.4790685 C9.58336405,13.7914606 10.3171065,13.367934 11.1111111,13.3680555 Z M11.1111111,22.2569444 L20,22.2569444 C21.2272995,22.2569444 22.2222222,23.2518672 22.2222222,24.4791667 C22.2222222,25.7064661 21.2272995,26.7013889 20,26.7013889 L11.1111111,26.7013889 C9.88381164,26.7013889 8.88888885,25.7064661 8.88888885,24.4791667 C8.88888885,23.2518672 9.88381164,22.2569444 11.1111111,22.2569444 L11.1111111,22.2569444 Z" id="形状"></path>
                </g>
            </g>
            <g id="编组" opacity="0.1" transform="translate(360.000000, 184.000000)" fill="#F66442">
                <polygon id="Fill-1" points="8.1504 0.0004 0.0004 8.1514 23.5144 31.6664 0.0004 55.1804 8.1514 63.3314 31.6654 39.8174 39.8174 31.6664 31.6654 23.5134 8.1524 0.0004"></polygon>
                <polygon id="Fill-2" points="36.9711 0.0004 28.8211 8.1514 52.3341 31.6664 28.8211 55.1804 36.9721 63.3314 60.4861 39.8174 68.6381 31.6664 60.4861 23.5134 36.9731 0.0004"></polygon>
                <polygon id="Fill-3" points="65.7909 0.0004 57.6409 8.1514 81.1549 31.6664 57.6409 55.1804 65.7919 63.3314 89.3059 39.8174 97.4569 31.6674 97.4569 31.6654 89.3059 23.5134 65.7929 0.0004"></polygon>
            </g>
            <g id="编组" opacity="0.302664621" transform="translate(1449.000000, 230.000000)">
                <g transform="translate(0.000000, 0.010678)">
                    <mask id="mask-3" fill="white">
                        <use xlink:href="#path-2"></use>
                    </mask>
                    <g id="Clip-2"></g>
                    <path d="M4.81012658,2.91279661 C4.81012658,4.2470339 3.73367089,5.32805085 2.40506329,5.32805085 C1.0764557,5.32805085 0,4.2470339 0,2.91279661 C0,1.57855932 1.0764557,0.497542373 2.40506329,0.497542373 C3.73367089,0.497542373 4.81012658,1.57855932 4.81012658,2.91279661" id="Fill-1" fill="#F66442" mask="url(#mask-3)"></path>
                </g>
                <g transform="translate(12.658228, 0.010678)">
                    <mask id="mask-5" fill="white">
                        <use xlink:href="#path-4"></use>
                    </mask>
                    <g id="Clip-4"></g>
                    <path d="M4.92951899,2.91279661 C4.92951899,4.2470339 3.85255696,5.32805085 2.5244557,5.32805085 C1.1958481,5.32805085 0.119392405,4.2470339 0.119392405,2.91279661 C0.119392405,1.57855932 1.1958481,0.497542373 2.5244557,0.497542373 C3.85255696,0.497542373 4.92951899,1.57855932 4.92951899,2.91279661" id="Fill-3" fill="#F66442" mask="url(#mask-5)"></path>
                </g>
                <g transform="translate(25.316456, 0.010678)">
                    <mask id="mask-7" fill="white">
                        <use xlink:href="#path-6"></use>
                    </mask>
                    <g id="Clip-6"></g>
                    <path d="M5.04896203,2.91279661 C5.04896203,4.2470339 3.972,5.32805085 2.64389873,5.32805085 C1.31529114,5.32805085 0.238835443,4.2470339 0.238835443,2.91279661 C0.238835443,1.57855932 1.31529114,0.497542373 2.64389873,0.497542373 C3.972,0.497542373 5.04896203,1.57855932 5.04896203,2.91279661" id="Fill-5" fill="#F66442" mask="url(#mask-7)"></path>
                </g>
                <g transform="translate(37.974684, 0.010678)">
                    <mask id="mask-9" fill="white">
                        <use xlink:href="#path-8"></use>
                    </mask>
                    <g id="Clip-8"></g>
                    <path d="M5.16810127,2.91279661 C5.16810127,4.2470339 4.09164557,5.32805085 2.76303797,5.32805085 C1.43493671,5.32805085 0.357974684,4.2470339 0.357974684,2.91279661 C0.357974684,1.57855932 1.43493671,0.497542373 2.76303797,0.497542373 C4.09164557,0.497542373 5.16810127,1.57855932 5.16810127,2.91279661" id="Fill-7" fill="#F66442" mask="url(#mask-9)"></path>
                </g>
                <g transform="translate(50.632911, 0.010678)">
                    <mask id="mask-11" fill="white">
                        <use xlink:href="#path-10"></use>
                    </mask>
                    <g id="Clip-10"></g>
                    <path d="M5.2875443,2.91279661 C5.2875443,4.2470339 4.21108861,5.32805085 2.88248101,5.32805085 C1.55387342,5.32805085 0.477417722,4.2470339 0.477417722,2.91279661 C0.477417722,1.57855932 1.55387342,0.497542373 2.88248101,0.497542373 C4.21108861,0.497542373 5.2875443,1.57855932 5.2875443,2.91279661" id="Fill-9" fill="#F66442" mask="url(#mask-11)"></path>
                </g>
                <g transform="translate(63.797468, 0.010678)">
                    <mask id="mask-13" fill="white">
                        <use xlink:href="#path-12"></use>
                    </mask>
                    <g id="Clip-12"></g>
                    <path d="M4.90060759,2.91279661 C4.90060759,4.2470339 3.82364557,5.32805085 2.4955443,5.32805085 C1.16693671,5.32805085 0.0904810127,4.2470339 0.0904810127,2.91279661 C0.0904810127,1.57855932 1.16693671,0.497542373 2.4955443,0.497542373 C3.82364557,0.497542373 4.90060759,1.57855932 4.90060759,2.91279661" id="Fill-11" fill="#F66442" mask="url(#mask-13)"></path>
                </g>
                <g transform="translate(76.455696, 0.010678)">
                    <mask id="mask-15" fill="white">
                        <use xlink:href="#path-14"></use>
                    </mask>
                    <g id="Clip-14"></g>
                    <path d="M5.02005063,2.91279661 C5.02005063,4.2470339 3.94308861,5.32805085 2.61498734,5.32805085 C1.28637975,5.32805085 0.209924051,4.2470339 0.209924051,2.91279661 C0.209924051,1.57855932 1.28637975,0.497542373 2.61498734,0.497542373 C3.94308861,0.497542373 5.02005063,1.57855932 5.02005063,2.91279661" id="Fill-13" fill="#F66442" mask="url(#mask-15)"></path>
                </g>
                <g transform="translate(89.113924, 0.010678)">
                    <mask id="mask-17" fill="white">
                        <use xlink:href="#path-16"></use>
                    </mask>
                    <g id="Clip-16"></g>
                    <path d="M5.13918987,2.91279661 C5.13918987,4.2470339 4.06273418,5.32805085 2.73412658,5.32805085 C1.40602532,5.32805085 0.329063291,4.2470339 0.329063291,2.91279661 C0.329063291,1.57855932 1.40602532,0.497542373 2.73412658,0.497542373 C4.06273418,0.497542373 5.13918987,1.57855932 5.13918987,2.91279661" id="Fill-15" fill="#F66442" mask="url(#mask-17)"></path>
                </g>
                <g transform="translate(101.772152, 0.010678)">
                    <mask id="mask-19" fill="white">
                        <use xlink:href="#path-18"></use>
                    </mask>
                    <g id="Clip-18"></g>
                    <path d="M5.25858228,2.91279661 C5.25858228,4.2470339 4.18212658,5.32805085 2.85351899,5.32805085 C1.52541772,5.32805085 0.448455696,4.2470339 0.448455696,2.91279661 C0.448455696,1.57855932 1.52541772,0.497542373 2.85351899,0.497542373 C4.18212658,0.497542373 5.25858228,1.57855932 5.25858228,2.91279661" id="Fill-17" fill="#F66442" mask="url(#mask-19)"></path>
                </g>
                <g transform="translate(114.936709, 0.010678)">
                    <mask id="mask-21" fill="white">
                        <use xlink:href="#path-20"></use>
                    </mask>
                    <g id="Clip-20"></g>
                    <path d="M4.8716962,2.91279661 C4.8716962,4.2470339 3.79524051,5.32805085 2.46663291,5.32805085 C1.13802532,5.32805085 0.0615696203,4.2470339 0.0615696203,2.91279661 C0.0615696203,1.57855932 1.13802532,0.497542373 2.46663291,0.497542373 C3.79524051,0.497542373 4.8716962,1.57855932 4.8716962,2.91279661" id="Fill-19" fill="#F66442" mask="url(#mask-21)"></path>
                </g>
                <path d="M4.81012658,15.6082881 C4.81012658,16.9425254 3.73367089,18.0235424 2.40506329,18.0235424 C1.0764557,18.0235424 0,16.9425254 0,15.6082881 C0,14.2740508 1.0764557,13.1930339 2.40506329,13.1930339 C3.73367089,13.1930339 4.81012658,14.2740508 4.81012658,15.6082881" id="Fill-21" fill="#F66442"></path>
                <path d="M17.5877468,15.6082881 C17.5877468,16.9425254 16.5107848,18.0235424 15.1826835,18.0235424 C13.8540759,18.0235424 12.7776203,16.9425254 12.7776203,15.6082881 C12.7776203,14.2740508 13.8540759,13.1930339 15.1826835,13.1930339 C16.5107848,13.1930339 17.5877468,14.2740508 17.5877468,15.6082881" id="Fill-23" fill="#F66442"></path>
                <path d="M30.3654177,15.6082881 C30.3654177,16.9425254 29.2884557,18.0235424 27.9603544,18.0235424 C26.6317468,18.0235424 25.5552911,16.9425254 25.5552911,15.6082881 C25.5552911,14.2740508 26.6317468,13.1930339 27.9603544,13.1930339 C29.2884557,13.1930339 30.3654177,14.2740508 30.3654177,15.6082881" id="Fill-25" fill="#F66442"></path>
                <path d="M43.1427848,15.6082881 C43.1427848,16.9425254 42.0663291,18.0235424 40.7377215,18.0235424 C39.4096203,18.0235424 38.3326582,16.9425254 38.3326582,15.6082881 C38.3326582,14.2740508 39.4096203,13.1930339 40.7377215,13.1930339 C42.0663291,13.1930339 43.1427848,14.2740508 43.1427848,15.6082881" id="Fill-27" fill="#F66442"></path>
                <path d="M55.9204557,15.6082881 C55.9204557,16.9425254 54.844,18.0235424 53.5153924,18.0235424 C52.1867848,18.0235424 51.1103291,16.9425254 51.1103291,15.6082881 C51.1103291,14.2740508 52.1867848,13.1930339 53.5153924,13.1930339 C54.844,13.1930339 55.9204557,14.2740508 55.9204557,15.6082881" id="Fill-29" fill="#F66442"></path>
                <path d="M68.6980759,15.6082881 C68.6980759,16.9425254 67.6211139,18.0235424 66.2930127,18.0235424 C64.9644051,18.0235424 63.8879494,16.9425254 63.8879494,15.6082881 C63.8879494,14.2740508 64.9644051,13.1930339 66.2930127,13.1930339 C67.6211139,13.1930339 68.6980759,14.2740508 68.6980759,15.6082881" id="Fill-31" fill="#F66442"></path>
                <path d="M81.4757468,15.6082881 C81.4757468,16.9425254 80.3987848,18.0235424 79.0706835,18.0235424 C77.7420759,18.0235424 76.6656203,16.9425254 76.6656203,15.6082881 C76.6656203,14.2740508 77.7420759,13.1930339 79.0706835,13.1930339 C80.3987848,13.1930339 81.4757468,14.2740508 81.4757468,15.6082881" id="Fill-33" fill="#F66442"></path>
                <path d="M94.2531139,15.6082881 C94.2531139,16.9425254 93.1766582,18.0235424 91.8480506,18.0235424 C90.5199494,18.0235424 89.4429873,16.9425254 89.4429873,15.6082881 C89.4429873,14.2740508 90.5199494,13.1930339 91.8480506,13.1930339 C93.1766582,13.1930339 94.2531139,14.2740508 94.2531139,15.6082881" id="Fill-35" fill="#F66442"></path>
                <path d="M107.030734,15.6082881 C107.030734,16.9425254 105.954278,18.0235424 104.625671,18.0235424 C103.29757,18.0235424 102.220608,16.9425254 102.220608,15.6082881 C102.220608,14.2740508 103.29757,13.1930339 104.625671,13.1930339 C105.954278,13.1930339 107.030734,14.2740508 107.030734,15.6082881" id="Fill-37" fill="#F66442"></path>
                <path d="M119.808405,15.6082881 C119.808405,16.9425254 118.731949,18.0235424 117.403342,18.0235424 C116.074734,18.0235424 114.998278,16.9425254 114.998278,15.6082881 C114.998278,14.2740508 116.074734,13.1930339 117.403342,13.1930339 C118.731949,13.1930339 119.808405,14.2740508 119.808405,15.6082881" id="Fill-39" fill="#F66442"></path>
                <path d="M4.81012658,28.2931017 C4.81012658,29.627339 3.73367089,30.7083559 2.40506329,30.7083559 C1.0764557,30.7083559 0,29.627339 0,28.2931017 C0,26.9593729 1.0764557,25.8778475 2.40506329,25.8778475 C3.73367089,25.8778475 4.81012658,26.9593729 4.81012658,28.2931017" id="Fill-41" fill="#F66442"></path>
                <path d="M17.5877468,28.2931017 C17.5877468,29.627339 16.5107848,30.7083559 15.1826835,30.7083559 C13.8540759,30.7083559 12.7776203,29.627339 12.7776203,28.2931017 C12.7776203,26.9593729 13.8540759,25.8778475 15.1826835,25.8778475 C16.5107848,25.8778475 17.5877468,26.9593729 17.5877468,28.2931017" id="Fill-43" fill="#F66442"></path>
                <path d="M30.3654177,28.2931017 C30.3654177,29.627339 29.2884557,30.7083559 27.9603544,30.7083559 C26.6317468,30.7083559 25.5552911,29.627339 25.5552911,28.2931017 C25.5552911,26.9593729 26.6317468,25.8778475 27.9603544,25.8778475 C29.2884557,25.8778475 30.3654177,26.9593729 30.3654177,28.2931017" id="Fill-45" fill="#F66442"></path>
                <path d="M43.1427848,28.2931017 C43.1427848,29.627339 42.0663291,30.7083559 40.7377215,30.7083559 C39.4096203,30.7083559 38.3326582,29.627339 38.3326582,28.2931017 C38.3326582,26.9593729 39.4096203,25.8778475 40.7377215,25.8778475 C42.0663291,25.8778475 43.1427848,26.9593729 43.1427848,28.2931017" id="Fill-47" fill="#F66442"></path>
                <path d="M55.9204557,28.2931017 C55.9204557,29.627339 54.844,30.7083559 53.5153924,30.7083559 C52.1867848,30.7083559 51.1103291,29.627339 51.1103291,28.2931017 C51.1103291,26.9593729 52.1867848,25.8778475 53.5153924,25.8778475 C54.844,25.8778475 55.9204557,26.9593729 55.9204557,28.2931017" id="Fill-49" fill="#F66442"></path>
                <path d="M68.6980759,28.2931017 C68.6980759,29.627339 67.6211139,30.7083559 66.2930127,30.7083559 C64.9644051,30.7083559 63.8879494,29.627339 63.8879494,28.2931017 C63.8879494,26.9593729 64.9644051,25.8778475 66.2930127,25.8778475 C67.6211139,25.8778475 68.6980759,26.9593729 68.6980759,28.2931017" id="Fill-51" fill="#F66442"></path>
                <path d="M81.4757468,28.2931017 C81.4757468,29.627339 80.3987848,30.7083559 79.0706835,30.7083559 C77.7420759,30.7083559 76.6656203,29.627339 76.6656203,28.2931017 C76.6656203,26.9593729 77.7420759,25.8778475 79.0706835,25.8778475 C80.3987848,25.8778475 81.4757468,26.9593729 81.4757468,28.2931017" id="Fill-53" fill="#F66442"></path>
                <path d="M94.2531139,28.2931017 C94.2531139,29.627339 93.1766582,30.7083559 91.8480506,30.7083559 C90.5199494,30.7083559 89.4429873,29.627339 89.4429873,28.2931017 C89.4429873,26.9593729 90.5199494,25.8778475 91.8480506,25.8778475 C93.1766582,25.8778475 94.2531139,26.9593729 94.2531139,28.2931017" id="Fill-55" fill="#F66442"></path>
                <path d="M107.030734,28.2931017 C107.030734,29.627339 105.954278,30.7083559 104.625671,30.7083559 C103.29757,30.7083559 102.220608,29.627339 102.220608,28.2931017 C102.220608,26.9593729 103.29757,25.8778475 104.625671,25.8778475 C105.954278,25.8778475 107.030734,26.9593729 107.030734,28.2931017" id="Fill-57" fill="#F66442"></path>
                <path d="M119.808405,28.2931017 C119.808405,29.627339 118.731949,30.7083559 117.403342,30.7083559 C116.074734,30.7083559 114.998278,29.627339 114.998278,28.2931017 C114.998278,26.9593729 116.074734,25.8778475 117.403342,25.8778475 C118.731949,25.8778475 119.808405,26.9593729 119.808405,28.2931017" id="Fill-59" fill="#F66442"></path>
                <path d="M4.81012658,40.9778644 C4.81012658,42.3121017 3.73367089,43.3931186 2.40506329,43.3931186 C1.0764557,43.3931186 0,42.3121017 0,40.9778644 C0,39.6441356 1.0764557,38.5626102 2.40506329,38.5626102 C3.73367089,38.5626102 4.81012658,39.6441356 4.81012658,40.9778644" id="Fill-61" fill="#F66442"></path>
                <path d="M17.5877468,40.9778644 C17.5877468,42.3121017 16.5107848,43.3931186 15.1826835,43.3931186 C13.8540759,43.3931186 12.7776203,42.3121017 12.7776203,40.9778644 C12.7776203,39.6441356 13.8540759,38.5626102 15.1826835,38.5626102 C16.5107848,38.5626102 17.5877468,39.6441356 17.5877468,40.9778644" id="Fill-63" fill="#F66442"></path>
                <path d="M30.3654177,40.9778644 C30.3654177,42.3121017 29.2884557,43.3931186 27.9603544,43.3931186 C26.6317468,43.3931186 25.5552911,42.3121017 25.5552911,40.9778644 C25.5552911,39.6441356 26.6317468,38.5626102 27.9603544,38.5626102 C29.2884557,38.5626102 30.3654177,39.6441356 30.3654177,40.9778644" id="Fill-65" fill="#F66442"></path>
                <path d="M43.1427848,40.9778644 C43.1427848,42.3121017 42.0663291,43.3931186 40.7377215,43.3931186 C39.4096203,43.3931186 38.3326582,42.3121017 38.3326582,40.9778644 C38.3326582,39.6441356 39.4096203,38.5626102 40.7377215,38.5626102 C42.0663291,38.5626102 43.1427848,39.6441356 43.1427848,40.9778644" id="Fill-67" fill="#F66442"></path>
                <path d="M55.9204557,40.9778644 C55.9204557,42.3121017 54.844,43.3931186 53.5153924,43.3931186 C52.1867848,43.3931186 51.1103291,42.3121017 51.1103291,40.9778644 C51.1103291,39.6441356 52.1867848,38.5626102 53.5153924,38.5626102 C54.844,38.5626102 55.9204557,39.6441356 55.9204557,40.9778644" id="Fill-69" fill="#F66442"></path>
                <path d="M68.6980759,40.9778644 C68.6980759,42.3121017 67.6211139,43.3931186 66.2930127,43.3931186 C64.9644051,43.3931186 63.8879494,42.3121017 63.8879494,40.9778644 C63.8879494,39.6441356 64.9644051,38.5626102 66.2930127,38.5626102 C67.6211139,38.5626102 68.6980759,39.6441356 68.6980759,40.9778644" id="Fill-71" fill="#F66442"></path>
                <path d="M81.4757468,40.9778644 C81.4757468,42.3121017 80.3987848,43.3931186 79.0706835,43.3931186 C77.7420759,43.3931186 76.6656203,42.3121017 76.6656203,40.9778644 C76.6656203,39.6441356 77.7420759,38.5626102 79.0706835,38.5626102 C80.3987848,38.5626102 81.4757468,39.6441356 81.4757468,40.9778644" id="Fill-73" fill="#F66442"></path>
                <path d="M94.2531139,40.9778644 C94.2531139,42.3121017 93.1766582,43.3931186 91.8480506,43.3931186 C90.5199494,43.3931186 89.4429873,42.3121017 89.4429873,40.9778644 C89.4429873,39.6441356 90.5199494,38.5626102 91.8480506,38.5626102 C93.1766582,38.5626102 94.2531139,39.6441356 94.2531139,40.9778644" id="Fill-75" fill="#F66442"></path>
                <path d="M107.030734,40.9778644 C107.030734,42.3121017 105.954278,43.3931186 104.625671,43.3931186 C103.29757,43.3931186 102.220608,42.3121017 102.220608,40.9778644 C102.220608,39.6441356 103.29757,38.5626102 104.625671,38.5626102 C105.954278,38.5626102 107.030734,39.6441356 107.030734,40.9778644" id="Fill-77" fill="#F66442"></path>
                <path d="M119.808405,40.9778644 C119.808405,42.3121017 118.731949,43.3931186 117.403342,43.3931186 C116.074734,43.3931186 114.998278,42.3121017 114.998278,40.9778644 C114.998278,39.6441356 116.074734,38.5626102 117.403342,38.5626102 C118.731949,38.5626102 119.808405,39.6441356 119.808405,40.9778644" id="Fill-79" fill="#F66442"></path>
                <path d="M4.81012658,53.662678 C4.81012658,54.9969153 3.73367089,56.0779322 2.40506329,56.0779322 C1.0764557,56.0779322 0,54.9969153 0,53.662678 C0,52.3289492 1.0764557,51.2474237 2.40506329,51.2474237 C3.73367089,51.2474237 4.81012658,52.3289492 4.81012658,53.662678" id="Fill-81" fill="#F66442"></path>
                <path d="M17.5877468,53.662678 C17.5877468,54.9969153 16.5107848,56.0779322 15.1826835,56.0779322 C13.8540759,56.0779322 12.7776203,54.9969153 12.7776203,53.662678 C12.7776203,52.3289492 13.8540759,51.2474237 15.1826835,51.2474237 C16.5107848,51.2474237 17.5877468,52.3289492 17.5877468,53.662678" id="Fill-83" fill="#F66442"></path>
                <path d="M30.3654177,53.662678 C30.3654177,54.9969153 29.2884557,56.0779322 27.9603544,56.0779322 C26.6317468,56.0779322 25.5552911,54.9969153 25.5552911,53.662678 C25.5552911,52.3289492 26.6317468,51.2474237 27.9603544,51.2474237 C29.2884557,51.2474237 30.3654177,52.3289492 30.3654177,53.662678" id="Fill-85" fill="#F66442"></path>
                <path d="M43.1427848,53.662678 C43.1427848,54.9969153 42.0663291,56.0779322 40.7377215,56.0779322 C39.4096203,56.0779322 38.3326582,54.9969153 38.3326582,53.662678 C38.3326582,52.3289492 39.4096203,51.2474237 40.7377215,51.2474237 C42.0663291,51.2474237 43.1427848,52.3289492 43.1427848,53.662678" id="Fill-87" fill="#F66442"></path>
                <path d="M55.9204557,53.662678 C55.9204557,54.9969153 54.844,56.0779322 53.5153924,56.0779322 C52.1867848,56.0779322 51.1103291,54.9969153 51.1103291,53.662678 C51.1103291,52.3289492 52.1867848,51.2474237 53.5153924,51.2474237 C54.844,51.2474237 55.9204557,52.3289492 55.9204557,53.662678" id="Fill-89" fill="#F66442"></path>
                <path d="M68.6980759,53.662678 C68.6980759,54.9969153 67.6211139,56.0779322 66.2930127,56.0779322 C64.9644051,56.0779322 63.8879494,54.9969153 63.8879494,53.662678 C63.8879494,52.3289492 64.9644051,51.2474237 66.2930127,51.2474237 C67.6211139,51.2474237 68.6980759,52.3289492 68.6980759,53.662678" id="Fill-91" fill="#F66442"></path>
                <path d="M81.4757468,53.662678 C81.4757468,54.9969153 80.3987848,56.0779322 79.0706835,56.0779322 C77.7420759,56.0779322 76.6656203,54.9969153 76.6656203,53.662678 C76.6656203,52.3289492 77.7420759,51.2474237 79.0706835,51.2474237 C80.3987848,51.2474237 81.4757468,52.3289492 81.4757468,53.662678" id="Fill-93" fill="#F66442"></path>
                <path d="M94.2531139,53.662678 C94.2531139,54.9969153 93.1766582,56.0779322 91.8480506,56.0779322 C90.5199494,56.0779322 89.4429873,54.9969153 89.4429873,53.662678 C89.4429873,52.3289492 90.5199494,51.2474237 91.8480506,51.2474237 C93.1766582,51.2474237 94.2531139,52.3289492 94.2531139,53.662678" id="Fill-95" fill="#F66442"></path>
                <path d="M107.030734,53.662678 C107.030734,54.9969153 105.954278,56.0779322 104.625671,56.0779322 C103.29757,56.0779322 102.220608,54.9969153 102.220608,53.662678 C102.220608,52.3289492 103.29757,51.2474237 104.625671,51.2474237 C105.954278,51.2474237 107.030734,52.3289492 107.030734,53.662678" id="Fill-97" fill="#F66442"></path>
                <path d="M119.808405,53.662678 C119.808405,54.9969153 118.731949,56.0779322 117.403342,56.0779322 C116.074734,56.0779322 114.998278,54.9969153 114.998278,53.662678 C114.998278,52.3289492 116.074734,51.2474237 117.403342,51.2474237 C118.731949,51.2474237 119.808405,52.3289492 119.808405,53.662678" id="Fill-99" fill="#F66442"></path>
                <path d="M4.81012658,66.3477458 C4.81012658,67.6814746 3.73367089,68.763 2.40506329,68.763 C1.0764557,68.763 0,67.6814746 0,66.3477458 C0,65.0135085 1.0764557,63.9324915 2.40506329,63.9324915 C3.73367089,63.9324915 4.81012658,65.0135085 4.81012658,66.3477458" id="Fill-101" fill="#F66442"></path>
                <path d="M17.5877468,66.3477458 C17.5877468,67.6814746 16.5107848,68.763 15.1826835,68.763 C13.8540759,68.763 12.7776203,67.6814746 12.7776203,66.3477458 C12.7776203,65.0135085 13.8540759,63.9324915 15.1826835,63.9324915 C16.5107848,63.9324915 17.5877468,65.0135085 17.5877468,66.3477458" id="Fill-103" fill="#F66442"></path>
                <path d="M30.3654177,66.3477458 C30.3654177,67.6814746 29.2884557,68.763 27.9603544,68.763 C26.6317468,68.763 25.5552911,67.6814746 25.5552911,66.3477458 C25.5552911,65.0135085 26.6317468,63.9324915 27.9603544,63.9324915 C29.2884557,63.9324915 30.3654177,65.0135085 30.3654177,66.3477458" id="Fill-105" fill="#F66442"></path>
                <path d="M43.1427848,66.3477458 C43.1427848,67.6814746 42.0663291,68.763 40.7377215,68.763 C39.4096203,68.763 38.3326582,67.6814746 38.3326582,66.3477458 C38.3326582,65.0135085 39.4096203,63.9324915 40.7377215,63.9324915 C42.0663291,63.9324915 43.1427848,65.0135085 43.1427848,66.3477458" id="Fill-107" fill="#F66442"></path>
                <path d="M55.9204557,66.3477458 C55.9204557,67.6814746 54.844,68.763 53.5153924,68.763 C52.1867848,68.763 51.1103291,67.6814746 51.1103291,66.3477458 C51.1103291,65.0135085 52.1867848,63.9324915 53.5153924,63.9324915 C54.844,63.9324915 55.9204557,65.0135085 55.9204557,66.3477458" id="Fill-109" fill="#F66442"></path>
                <path d="M68.6980759,66.3477458 C68.6980759,67.6814746 67.6211139,68.763 66.2930127,68.763 C64.9644051,68.763 63.8879494,67.6814746 63.8879494,66.3477458 C63.8879494,65.0135085 64.9644051,63.9324915 66.2930127,63.9324915 C67.6211139,63.9324915 68.6980759,65.0135085 68.6980759,66.3477458" id="Fill-111" fill="#F66442"></path>
                <path d="M81.4757468,66.3477458 C81.4757468,67.6814746 80.3987848,68.763 79.0706835,68.763 C77.7420759,68.763 76.6656203,67.6814746 76.6656203,66.3477458 C76.6656203,65.0135085 77.7420759,63.9324915 79.0706835,63.9324915 C80.3987848,63.9324915 81.4757468,65.0135085 81.4757468,66.3477458" id="Fill-113" fill="#F66442"></path>
                <path d="M94.2531139,66.3477458 C94.2531139,67.6814746 93.1766582,68.763 91.8480506,68.763 C90.5199494,68.763 89.4429873,67.6814746 89.4429873,66.3477458 C89.4429873,65.0135085 90.5199494,63.9324915 91.8480506,63.9324915 C93.1766582,63.9324915 94.2531139,65.0135085 94.2531139,66.3477458" id="Fill-115" fill="#F66442"></path>
                <path d="M107.030734,66.3477458 C107.030734,67.6814746 105.954278,68.763 104.625671,68.763 C103.29757,68.763 102.220608,67.6814746 102.220608,66.3477458 C102.220608,65.0135085 103.29757,63.9324915 104.625671,63.9324915 C105.954278,63.9324915 107.030734,65.0135085 107.030734,66.3477458" id="Fill-117" fill="#F66442"></path>
                <path d="M119.808405,66.3477458 C119.808405,67.6814746 118.731949,68.763 117.403342,68.763 C116.074734,68.763 114.998278,67.6814746 114.998278,66.3477458 C114.998278,65.0135085 116.074734,63.9324915 117.403342,63.9324915 C118.731949,63.9324915 119.808405,65.0135085 119.808405,66.3477458" id="Fill-119" fill="#F66442"></path>
                <path d="M4.81012658,79.0325593 C4.81012658,80.3662881 3.73367089,81.4478136 2.40506329,81.4478136 C1.0764557,81.4478136 0,80.3662881 0,79.0325593 C0,77.698322 1.0764557,76.6173051 2.40506329,76.6173051 C3.73367089,76.6173051 4.81012658,77.698322 4.81012658,79.0325593" id="Fill-121" fill="#F66442"></path>
                <path d="M17.5877468,79.0325593 C17.5877468,80.3662881 16.5107848,81.4478136 15.1826835,81.4478136 C13.8540759,81.4478136 12.7776203,80.3662881 12.7776203,79.0325593 C12.7776203,77.698322 13.8540759,76.6173051 15.1826835,76.6173051 C16.5107848,76.6173051 17.5877468,77.698322 17.5877468,79.0325593" id="Fill-123" fill="#F66442"></path>
                <path d="M30.3654177,79.0325593 C30.3654177,80.3662881 29.2884557,81.4478136 27.9603544,81.4478136 C26.6317468,81.4478136 25.5552911,80.3662881 25.5552911,79.0325593 C25.5552911,77.698322 26.6317468,76.6173051 27.9603544,76.6173051 C29.2884557,76.6173051 30.3654177,77.698322 30.3654177,79.0325593" id="Fill-125" fill="#F66442"></path>
                <path d="M43.1427848,79.0325593 C43.1427848,80.3662881 42.0663291,81.4478136 40.7377215,81.4478136 C39.4096203,81.4478136 38.3326582,80.3662881 38.3326582,79.0325593 C38.3326582,77.698322 39.4096203,76.6173051 40.7377215,76.6173051 C42.0663291,76.6173051 43.1427848,77.698322 43.1427848,79.0325593" id="Fill-127" fill="#F66442"></path>
                <path d="M55.9204557,79.0325593 C55.9204557,80.3662881 54.844,81.4478136 53.5153924,81.4478136 C52.1867848,81.4478136 51.1103291,80.3662881 51.1103291,79.0325593 C51.1103291,77.698322 52.1867848,76.6173051 53.5153924,76.6173051 C54.844,76.6173051 55.9204557,77.698322 55.9204557,79.0325593" id="Fill-129" fill="#F66442"></path>
                <path d="M68.6980759,79.0325593 C68.6980759,80.3662881 67.6211139,81.4478136 66.2930127,81.4478136 C64.9644051,81.4478136 63.8879494,80.3662881 63.8879494,79.0325593 C63.8879494,77.698322 64.9644051,76.6173051 66.2930127,76.6173051 C67.6211139,76.6173051 68.6980759,77.698322 68.6980759,79.0325593" id="Fill-131" fill="#F66442"></path>
                <path d="M81.4757468,79.0325593 C81.4757468,80.3662881 80.3987848,81.4478136 79.0706835,81.4478136 C77.7420759,81.4478136 76.6656203,80.3662881 76.6656203,79.0325593 C76.6656203,77.698322 77.7420759,76.6173051 79.0706835,76.6173051 C80.3987848,76.6173051 81.4757468,77.698322 81.4757468,79.0325593" id="Fill-133" fill="#F66442"></path>
                <path d="M94.2531139,79.0325593 C94.2531139,80.3662881 93.1766582,81.4478136 91.8480506,81.4478136 C90.5199494,81.4478136 89.4429873,80.3662881 89.4429873,79.0325593 C89.4429873,77.698322 90.5199494,76.6173051 91.8480506,76.6173051 C93.1766582,76.6173051 94.2531139,77.698322 94.2531139,79.0325593" id="Fill-135" fill="#F66442"></path>
                <path d="M107.030734,79.0325593 C107.030734,80.3662881 105.954278,81.4478136 104.625671,81.4478136 C103.29757,81.4478136 102.220608,80.3662881 102.220608,79.0325593 C102.220608,77.698322 103.29757,76.6173051 104.625671,76.6173051 C105.954278,76.6173051 107.030734,77.698322 107.030734,79.0325593" id="Fill-137" fill="#F66442"></path>
                <path d="M119.808405,79.0325593 C119.808405,80.3662881 118.731949,81.4478136 117.403342,81.4478136 C116.074734,81.4478136 114.998278,80.3662881 114.998278,79.0325593 C114.998278,77.698322 116.074734,76.6173051 117.403342,76.6173051 C118.731949,76.6173051 119.808405,77.698322 119.808405,79.0325593" id="Fill-139" fill="#F66442"></path>
                <path d="M4.81012658,91.717322 C4.81012658,93.0510508 3.73367089,94.1325763 2.40506329,94.1325763 C1.0764557,94.1325763 0,93.0510508 0,91.717322 C0,90.3830847 1.0764557,89.3020678 2.40506329,89.3020678 C3.73367089,89.3020678 4.81012658,90.3830847 4.81012658,91.717322" id="Fill-141" fill="#F66442"></path>
                <path d="M17.5877468,91.717322 C17.5877468,93.0510508 16.5107848,94.1325763 15.1826835,94.1325763 C13.8540759,94.1325763 12.7776203,93.0510508 12.7776203,91.717322 C12.7776203,90.3830847 13.8540759,89.3020678 15.1826835,89.3020678 C16.5107848,89.3020678 17.5877468,90.3830847 17.5877468,91.717322" id="Fill-143" fill="#F66442"></path>
                <path d="M30.3654177,91.717322 C30.3654177,93.0510508 29.2884557,94.1325763 27.9603544,94.1325763 C26.6317468,94.1325763 25.5552911,93.0510508 25.5552911,91.717322 C25.5552911,90.3830847 26.6317468,89.3020678 27.9603544,89.3020678 C29.2884557,89.3020678 30.3654177,90.3830847 30.3654177,91.717322" id="Fill-145" fill="#F66442"></path>
                <path d="M43.1427848,91.717322 C43.1427848,93.0510508 42.0663291,94.1325763 40.7377215,94.1325763 C39.4096203,94.1325763 38.3326582,93.0510508 38.3326582,91.717322 C38.3326582,90.3830847 39.4096203,89.3020678 40.7377215,89.3020678 C42.0663291,89.3020678 43.1427848,90.3830847 43.1427848,91.717322" id="Fill-147" fill="#F66442"></path>
                <path d="M55.9204557,91.717322 C55.9204557,93.0510508 54.844,94.1325763 53.5153924,94.1325763 C52.1867848,94.1325763 51.1103291,93.0510508 51.1103291,91.717322 C51.1103291,90.3830847 52.1867848,89.3020678 53.5153924,89.3020678 C54.844,89.3020678 55.9204557,90.3830847 55.9204557,91.717322" id="Fill-149" fill="#F66442"></path>
                <path d="M68.6980759,91.717322 C68.6980759,93.0510508 67.6211139,94.1325763 66.2930127,94.1325763 C64.9644051,94.1325763 63.8879494,93.0510508 63.8879494,91.717322 C63.8879494,90.3830847 64.9644051,89.3020678 66.2930127,89.3020678 C67.6211139,89.3020678 68.6980759,90.3830847 68.6980759,91.717322" id="Fill-151" fill="#F66442"></path>
                <path d="M81.4757468,91.717322 C81.4757468,93.0510508 80.3987848,94.1325763 79.0706835,94.1325763 C77.7420759,94.1325763 76.6656203,93.0510508 76.6656203,91.717322 C76.6656203,90.3830847 77.7420759,89.3020678 79.0706835,89.3020678 C80.3987848,89.3020678 81.4757468,90.3830847 81.4757468,91.717322" id="Fill-153" fill="#F66442"></path>
                <path d="M94.2531139,91.717322 C94.2531139,93.0510508 93.1766582,94.1325763 91.8480506,94.1325763 C90.5199494,94.1325763 89.4429873,93.0510508 89.4429873,91.717322 C89.4429873,90.3830847 90.5199494,89.3020678 91.8480506,89.3020678 C93.1766582,89.3020678 94.2531139,90.3830847 94.2531139,91.717322" id="Fill-155" fill="#F66442"></path>
                <path d="M107.030734,91.717322 C107.030734,93.0510508 105.954278,94.1325763 104.625671,94.1325763 C103.29757,94.1325763 102.220608,93.0510508 102.220608,91.717322 C102.220608,90.3830847 103.29757,89.3020678 104.625671,89.3020678 C105.954278,89.3020678 107.030734,90.3830847 107.030734,91.717322" id="Fill-157" fill="#F66442"></path>
                <path d="M119.808405,91.717322 C119.808405,93.0510508 118.731949,94.1325763 117.403342,94.1325763 C116.074734,94.1325763 114.998278,93.0510508 114.998278,91.717322 C114.998278,90.3830847 116.074734,89.3020678 117.403342,89.3020678 C118.731949,89.3020678 119.808405,90.3830847 119.808405,91.717322" id="Fill-159" fill="#F66442"></path>
                <path d="M4.81012658,104.402136 C4.81012658,105.736373 3.73367089,106.81739 2.40506329,106.81739 C1.0764557,106.81739 0,105.736373 0,104.402136 C0,103.067898 1.0764557,101.986881 2.40506329,101.986881 C3.73367089,101.986881 4.81012658,103.067898 4.81012658,104.402136" id="Fill-161" fill="#F66442"></path>
                <path d="M17.5877468,104.402136 C17.5877468,105.736373 16.5107848,106.81739 15.1826835,106.81739 C13.8540759,106.81739 12.7776203,105.736373 12.7776203,104.402136 C12.7776203,103.067898 13.8540759,101.986881 15.1826835,101.986881 C16.5107848,101.986881 17.5877468,103.067898 17.5877468,104.402136" id="Fill-163" fill="#F66442"></path>
                <path d="M30.3654177,104.402136 C30.3654177,105.736373 29.2884557,106.81739 27.9603544,106.81739 C26.6317468,106.81739 25.5552911,105.736373 25.5552911,104.402136 C25.5552911,103.067898 26.6317468,101.986881 27.9603544,101.986881 C29.2884557,101.986881 30.3654177,103.067898 30.3654177,104.402136" id="Fill-165" fill="#F66442"></path>
                <path d="M43.1427848,104.402136 C43.1427848,105.736373 42.0663291,106.81739 40.7377215,106.81739 C39.4096203,106.81739 38.3326582,105.736373 38.3326582,104.402136 C38.3326582,103.067898 39.4096203,101.986881 40.7377215,101.986881 C42.0663291,101.986881 43.1427848,103.067898 43.1427848,104.402136" id="Fill-167" fill="#F66442"></path>
                <path d="M55.9204557,104.402136 C55.9204557,105.736373 54.844,106.81739 53.5153924,106.81739 C52.1867848,106.81739 51.1103291,105.736373 51.1103291,104.402136 C51.1103291,103.067898 52.1867848,101.986881 53.5153924,101.986881 C54.844,101.986881 55.9204557,103.067898 55.9204557,104.402136" id="Fill-169" fill="#F66442"></path>
                <path d="M68.6980759,104.402136 C68.6980759,105.736373 67.6211139,106.81739 66.2930127,106.81739 C64.9644051,106.81739 63.8879494,105.736373 63.8879494,104.402136 C63.8879494,103.067898 64.9644051,101.986881 66.2930127,101.986881 C67.6211139,101.986881 68.6980759,103.067898 68.6980759,104.402136" id="Fill-171" fill="#F66442"></path>
                <path d="M81.4757468,104.402136 C81.4757468,105.736373 80.3987848,106.81739 79.0706835,106.81739 C77.7420759,106.81739 76.6656203,105.736373 76.6656203,104.402136 C76.6656203,103.067898 77.7420759,101.986881 79.0706835,101.986881 C80.3987848,101.986881 81.4757468,103.067898 81.4757468,104.402136" id="Fill-173" fill="#F66442"></path>
                <path d="M94.2531139,104.402136 C94.2531139,105.736373 93.1766582,106.81739 91.8480506,106.81739 C90.5199494,106.81739 89.4429873,105.736373 89.4429873,104.402136 C89.4429873,103.067898 90.5199494,101.986881 91.8480506,101.986881 C93.1766582,101.986881 94.2531139,103.067898 94.2531139,104.402136" id="Fill-175" fill="#F66442"></path>
                <path d="M107.030734,104.402136 C107.030734,105.736373 105.954278,106.81739 104.625671,106.81739 C103.29757,106.81739 102.220608,105.736373 102.220608,104.402136 C102.220608,103.067898 103.29757,101.986881 104.625671,101.986881 C105.954278,101.986881 107.030734,103.067898 107.030734,104.402136" id="Fill-177" fill="#F66442"></path>
                <path d="M119.808405,104.402136 C119.808405,105.736373 118.731949,106.81739 117.403342,106.81739 C116.074734,106.81739 114.998278,105.736373 114.998278,104.402136 C114.998278,103.067898 116.074734,101.986881 117.403342,101.986881 C118.731949,101.986881 119.808405,103.067898 119.808405,104.402136" id="Fill-179" fill="#F66442"></path>
                <path d="M4.81012658,117.086949 C4.81012658,118.420678 3.73367089,119.502203 2.40506329,119.502203 C1.0764557,119.502203 0,118.420678 0,117.086949 C0,115.75322 1.0764557,114.671695 2.40506329,114.671695 C3.73367089,114.671695 4.81012658,115.75322 4.81012658,117.086949" id="Fill-181" fill="#F66442"></path>
                <path d="M17.5877468,117.086949 C17.5877468,118.420678 16.5107848,119.502203 15.1826835,119.502203 C13.8540759,119.502203 12.7776203,118.420678 12.7776203,117.086949 C12.7776203,115.75322 13.8540759,114.671695 15.1826835,114.671695 C16.5107848,114.671695 17.5877468,115.75322 17.5877468,117.086949" id="Fill-183" fill="#F66442"></path>
                <path d="M30.3654177,117.086949 C30.3654177,118.420678 29.2884557,119.502203 27.9603544,119.502203 C26.6317468,119.502203 25.5552911,118.420678 25.5552911,117.086949 C25.5552911,115.75322 26.6317468,114.671695 27.9603544,114.671695 C29.2884557,114.671695 30.3654177,115.75322 30.3654177,117.086949" id="Fill-185" fill="#F66442"></path>
                <path d="M43.1427848,117.086949 C43.1427848,118.420678 42.0663291,119.502203 40.7377215,119.502203 C39.4096203,119.502203 38.3326582,118.420678 38.3326582,117.086949 C38.3326582,115.75322 39.4096203,114.671695 40.7377215,114.671695 C42.0663291,114.671695 43.1427848,115.75322 43.1427848,117.086949" id="Fill-187" fill="#F66442"></path>
                <path d="M55.9204557,117.086949 C55.9204557,118.420678 54.844,119.502203 53.5153924,119.502203 C52.1867848,119.502203 51.1103291,118.420678 51.1103291,117.086949 C51.1103291,115.75322 52.1867848,114.671695 53.5153924,114.671695 C54.844,114.671695 55.9204557,115.75322 55.9204557,117.086949" id="Fill-189" fill="#F66442"></path>
                <path d="M68.6980759,117.086949 C68.6980759,118.420678 67.6211139,119.502203 66.2930127,119.502203 C64.9644051,119.502203 63.8879494,118.420678 63.8879494,117.086949 C63.8879494,115.75322 64.9644051,114.671695 66.2930127,114.671695 C67.6211139,114.671695 68.6980759,115.75322 68.6980759,117.086949" id="Fill-191" fill="#F66442"></path>
                <path d="M81.4757468,117.086949 C81.4757468,118.420678 80.3987848,119.502203 79.0706835,119.502203 C77.7420759,119.502203 76.6656203,118.420678 76.6656203,117.086949 C76.6656203,115.75322 77.7420759,114.671695 79.0706835,114.671695 C80.3987848,114.671695 81.4757468,115.75322 81.4757468,117.086949" id="Fill-193" fill="#F66442"></path>
                <path d="M94.2531139,117.086949 C94.2531139,118.420678 93.1766582,119.502203 91.8480506,119.502203 C90.5199494,119.502203 89.4429873,118.420678 89.4429873,117.086949 C89.4429873,115.75322 90.5199494,114.671695 91.8480506,114.671695 C93.1766582,114.671695 94.2531139,115.75322 94.2531139,117.086949" id="Fill-195" fill="#F66442"></path>
                <path d="M107.030734,117.086949 C107.030734,118.420678 105.954278,119.502203 104.625671,119.502203 C103.29757,119.502203 102.220608,118.420678 102.220608,117.086949 C102.220608,115.75322 103.29757,114.671695 104.625671,114.671695 C105.954278,114.671695 107.030734,115.75322 107.030734,117.086949" id="Fill-197" fill="#F66442"></path>
                <path d="M119.808405,117.086949 C119.808405,118.420678 118.731949,119.502203 117.403342,119.502203 C116.074734,119.502203 114.998278,118.420678 114.998278,117.086949 C114.998278,115.75322 116.074734,114.671695 117.403342,114.671695 C118.731949,114.671695 119.808405,115.75322 119.808405,117.086949" id="Fill-199" fill="#F66442"></path>
            </g>
            <g id="编组-2" transform="translate(1584.000000, 132.000000)">
                <circle id="椭圆形" fill="url(#linearGradient-1)" cx="60" cy="60" r="60"></circle>
                <path d="M57.1860113,31 C63.3812868,31 68.3991267,32.070806 72.236502,34.2102164 C76.0738774,36.3509478 78.7597805,39.8213806 80.2946441,44.6219552 C80.8619421,46.3003731 81.2886057,48.3094552 81.5737692,50.6518433 C81.8576346,52.9946716 82,56.2784179 82,60.5 C82,64.722903 81.8576346,68.0048881 81.5737692,70.3477164 C81.2886057,72.6905448 80.8619421,74.7009478 80.2946441,76.3780448 C78.7597805,81.1799403 76.0738774,84.6508134 72.236502,86.7897836 C68.3991267,88.9305149 63.3812868,90 57.1860113,90 L57.1860113,90 L43.4574851,90 C41.7516965,90 40.4154521,89.4945373 39.4491847,88.4818507 C38.4820519,87.4704851 38,86.1249328 38,84.4469552 L38,84.4469552 L38,36.6393433 C38,34.9626866 38.4820519,33.6026045 39.4491847,32.5617388 C40.4154521,31.5204328 41.7516965,31 43.4574851,31 L43.4574851,31 Z M64.3109127,43.0395273 C64.0071967,42.9038714 63.6701728,43.1346627 63.6701728,43.4685172 L63.6701728,43.4685172 C63.6701728,50.003786 58.7866122,55.3850984 52.4909695,56.1329678 C51.6455609,56.2333884 51,56.9358924 51,57.7912295 L51,57.7912295 L51,76.0677838 C51,77.1349732 51.8607478,78 52.9230964,78 L52.9230964,78 L57.3907457,78 C60.3271054,78 62.8019745,77.4657446 64.8179826,76.3945913 C66.8326759,75.3238784 68.214518,73.6317027 68.9635089,71.3167429 C69.2510092,70.3332374 69.4955597,68.9299913 69.6975988,67.1074449 C69.8987613,65.2844582 70,62.8695183 70,59.8599825 C70,56.852649 69.8987613,54.4355068 69.6975988,52.6129605 C69.4955597,50.7904142 69.2510092,49.3884894 68.9635089,48.4032221 C68.214518,46.0318859 66.8326759,44.3242947 64.8179826,43.282651 C64.6527576,43.1972053 64.4835882,43.1166046 64.3109127,43.0395273 Z" id="形状结合" fill="#FFD7CC"></path>
            </g>
        </g>
    </g>
</svg>