<?xml version="1.0" encoding="UTF-8"?>
<svg width="24px" height="24px" viewBox="0 0 24 24" version="1.1" xmlns="http://www.w3.org/2000/svg" xmlns:xlink="http://www.w3.org/1999/xlink">
    <title>select</title>
    <g id="页面-1" stroke="none" stroke-width="1" fill="none" fill-rule="evenodd">
        <g id="learn移动端" transform="translate(-672.000000, -481.000000)" fill="#403F3E" fill-rule="nonzero">
            <g id="编组-4" transform="translate(30.000000, 445.000000)">
                <g id="编组-6" transform="translate(642.000000, 36.000000)">
                    <g id="编组" transform="translate(3.000000, 7.500000)">
                        <path d="M8.23525905,9.68314145 L0.302898849,1.75041118 C-0.0913042619,1.35147053 -0.0894269935,0.709095739 0.307101083,0.312465911 C0.703629159,-0.0841639173 1.34600345,-0.0862060026 1.74504523,0.307894737 L8.95688734,7.52047697 L16.1687294,0.307894737 C16.5740768,-0.0829858666 17.2194122,-0.0717252026 17.6108758,0.333059211 C17.9924004,0.728485413 17.9924004,1.35498498 17.6108758,1.75041118 L9.67851563,9.68314145 C9.48738788,9.87460572 9.2280208,9.98228974 8.95748737,9.98249825 C8.68695394,9.98270616 8.42742141,9.87542149 8.23599918,9.68425164 L8.23488898,9.68314145 L8.23525905,9.68314145 Z" id="路径"></path>
                    </g>
                </g>
            </g>
        </g>
    </g>
</svg>