<?xml version="1.0" encoding="UTF-8"?>
<svg width="36px" height="36px" viewBox="0 0 36 36" version="1.1" xmlns="http://www.w3.org/2000/svg" xmlns:xlink="http://www.w3.org/1999/xlink">
    <title>编组</title>
    <g id="页面-1" stroke="none" stroke-width="1" fill="none" fill-rule="evenodd">
        <g id="移动端菜单" transform="translate(-678.000000, -36.000000)" fill="#403F3E" fill-rule="nonzero">
            <g id="路径" transform="translate(678.000000, 36.000000)">
                <path d="M19.8832564,17.9376776 L35.431907,2.38902699 C35.9712358,1.84969815 35.9712358,0.97878196 35.431907,0.443448153 C34.8925781,-0.0958806818 34.0216619,-0.0958806818 33.4863281,0.443448153 L17.9376776,15.9920987 L2.38902699,0.443448153 C1.84969815,-0.0958806818 0.97878196,-0.0958806818 0.443448153,0.443448153 C-0.0958806818,0.982776989 -0.0958806818,1.85369318 0.443448153,2.38902699 L15.9920987,17.9376776 L0.443448153,33.4863281 C-0.0958806818,34.025657 -0.0958806818,34.8965732 0.443448153,35.431907 C0.711115057,35.6995739 1.06267756,35.8354048 1.41823509,35.8354048 C1.76979759,35.8354048 2.12136009,35.6995739 2.39302202,35.431907 L17.9376776,19.8832564 L33.4863281,35.431907 C33.753995,35.6995739 34.1055575,35.8354048 34.4611151,35.8354048 C34.8126776,35.8354048 35.1642401,35.6995739 35.435902,35.431907 C35.9752308,34.8925781 35.9752308,34.0216619 35.435902,33.4863281 L19.8832564,17.9376776 Z"></path>
            </g>
        </g>
    </g>
</svg>