<?xml version="1.0" encoding="UTF-8"?>
<svg width="48px" height="48px" viewBox="0 0 48 48" version="1.1" xmlns="http://www.w3.org/2000/svg" xmlns:xlink="http://www.w3.org/1999/xlink">
    <title>select</title>
    <g id="页面-1" stroke="none" stroke-width="1" fill="none" fill-rule="evenodd">
        <g id="移动端菜单" transform="translate(-672.000000, -253.000000)" fill="#403F3E" fill-rule="nonzero">
            <g id="编组-6备份-9" transform="translate(696.000000, 277.000000) scale(1, -1) translate(-696.000000, -277.000000) translate(672.000000, 253.000000)">
                <g id="编组" transform="translate(12.000000, 17.000000)">
                    <path d="M10.9803454,12.9108553 L0.403865132,2.33388158 C-0.121739016,1.80196071 -0.119235991,0.945460986 0.40946811,0.416621215 C0.938172211,-0.112218556 1.79467127,-0.114941337 2.32672697,0.410526316 L11.9425164,10.0273026 L21.5583059,0.410526316 C22.0987691,-0.110647822 22.9592163,-0.0956336035 23.4811678,0.444078947 C23.9898672,0.971313883 23.9898672,1.80664664 23.4811678,2.33388158 L12.9046875,12.9108553 C12.6498505,13.166141 12.3040277,13.3097196 11.9433165,13.3099977 C11.5826052,13.3102749 11.2365619,13.1672287 10.9813322,12.9123355 L10.979852,12.9108553 L10.9803454,12.9108553 Z" id="路径"></path>
                </g>
            </g>
        </g>
    </g>
</svg>