<?xml version="1.0" encoding="UTF-8"?>
<svg width="24px" height="24px" viewBox="0 0 24 24" version="1.1" xmlns="http://www.w3.org/2000/svg" xmlns:xlink="http://www.w3.org/1999/xlink">
    <title>暂停</title>
    <g id="页面-1" stroke="none" stroke-width="1" fill="none" fill-rule="evenodd">
        <g id="听力" transform="translate(-1458.000000, -434.000000)" fill-rule="nonzero">
            <g id="暂停" transform="translate(1458.000000, 434.000000)">
                <path d="M23.9950781,12 C23.9950781,18.6259219 18.6235312,23.9976094 11.9974687,23.9976094 C5.37145313,23.9976094 0,18.6259219 0,12 C0,5.37396094 5.37142969,0.00253125 11.9974687,0.00253125 C18.6235313,0.00253125 23.9950781,5.37396094 23.9950781,12 Z" id="形状" fill="#F66442"></path>
                <path d="M10.17,7.98 C10.17,7.38346875 9.68653125,6.9 9.09,6.9 C8.49346875,6.9 8.01,7.38346875 8.01,7.98 L8.01,16.02 C8.01,16.6165313 8.49346875,17.1 9.09,17.1 C9.68653125,17.1 10.17,16.6165313 10.17,16.02 L10.17,7.98 Z" id="路径" fill="#FFFFFF"></path>
                <path d="M15.975,7.98 C15.975,7.38346875 15.4915313,6.9 14.895,6.9 C14.2984688,6.9 13.815,7.38346875 13.815,7.98 L13.815,16.0201172 C13.815,16.6166484 14.2984688,17.1001172 14.895,17.1001172 C15.4915313,17.1001172 15.975,16.6166484 15.975,16.0201172 L15.975,7.98 Z" id="路径" fill="#FFFFFF"></path>
            </g>
        </g>
    </g>
</svg>