<?xml version="1.0" encoding="UTF-8"?>
<svg width="24px" height="24px" viewBox="0 0 24 24" version="1.1" xmlns="http://www.w3.org/2000/svg" xmlns:xlink="http://www.w3.org/1999/xlink">
    <title>编组</title>
    <g id="页面-1" stroke="none" stroke-width="1" fill="none" fill-rule="evenodd">
        <g id="听力" transform="translate(-1458.000000, -261.000000)" fill-rule="nonzero">
            <g id="编组" transform="translate(1458.000000, 261.000000)">
                <path d="M11.97,0 C5.35914844,0 0,5.35914844 0,11.97 C0,18.5808516 5.35914844,23.94 11.97,23.94 C18.5810156,23.94 23.94,18.5808516 23.94,11.97 C23.94,5.35905469 18.5810156,0 11.97,0 Z" id="形状" fill="#F66442"></path>
                <path d="M17.8231875,12.2111016 C17.2160156,12.5663438 10.1032969,16.7183672 9.74742188,16.9239141 C9.30321094,17.1807891 8.8539375,16.8540234 8.8539375,16.4149219 L8.8539375,6.9703125 C8.8539375,6.48653906 9.35048438,6.251625 9.72914063,6.46446094 C10.2464063,6.75440625 17.3859844,10.9275234 17.8231641,11.1879141 C18.2153438,11.4215625 18.2217422,11.9778281 17.8231641,12.2111016 L17.8231875,12.2111016 Z" id="路径" fill="#FFFFFF"></path>
            </g>
        </g>
    </g>
</svg>