<?xml version="1.0" encoding="UTF-8"?>
<svg width="24px" height="24px" viewBox="0 0 24 24" version="1.1" xmlns="http://www.w3.org/2000/svg" xmlns:xlink="http://www.w3.org/1999/xlink">
    <title>编组</title>
    <g id="页面-1" stroke="none" stroke-width="1" fill="none" fill-rule="evenodd">
        <g id="听力" transform="translate(-1456.000000, -377.000000)" fill="#F66442" fill-rule="nonzero">
            <g id="编组-3" transform="translate(1456.000000, 377.000000)">
                <g id="编组" transform="translate(0.000000, 4.000000)">
                    <path d="M11.7738971,5.296875 C11.1231618,5.296875 10.5965074,5.82352941 10.5965074,6.47426471 L10.5965074,14.5919118 C10.5965074,15.2426471 11.1231618,15.7693015 11.7738971,15.7693015 C12.4246324,15.7693015 12.9512868,15.2426471 12.9512868,14.5919118 L12.9512868,6.47150735 C12.9512868,5.82352941 12.4246324,5.296875 11.7738971,5.296875 Z M6.47977941,7.91360294 C5.82904412,7.91360294 5.30238971,8.44025735 5.30238971,9.09099265 L5.30238971,14.6553309 C5.30238971,15.3060662 5.82904412,15.8327206 6.47977941,15.8327206 C7.13051471,15.8327206 7.65716912,15.3060662 7.65716912,14.6553309 L7.65716912,9.09099265 C7.65716912,8.44025735 7.13051471,7.91360294 6.47977941,7.91360294 Z M17.0680147,0.0137867647 C16.4172794,0.0137867647 15.890625,0.540441176 15.890625,1.19117647 L15.890625,14.5450368 C15.890625,15.1957721 16.4172794,15.7224265 17.0680147,15.7224265 C17.71875,15.7224265 18.2454044,15.1957721 18.2454044,14.5450368 L18.2454044,1.19117647 C18.2454044,0.540441176 17.71875,0.0137867647 17.0680147,0.0137867647 Z M1.18566176,5.296875 C0.534926471,5.296875 0.00827205882,5.82352941 0.00827205882,6.47426471 L0.00827205882,14.5919118 C0.00827205882,15.2426471 0.534926471,15.7693015 1.18566176,15.7693015 C1.83639706,15.7693015 2.36305147,15.2426471 2.36305147,14.5919118 L2.36305147,6.47150735 C2.36305147,5.82352941 1.83639706,5.296875 1.18566176,5.296875 L1.18566176,5.296875 Z M22.3621324,7.84191176 C21.7113971,7.84191176 21.1847426,8.36856618 21.1847426,9.01930147 L21.1847426,14.4788603 C21.1847426,15.1295956 21.7113971,15.65625 22.3621324,15.65625 C23.0128676,15.65625 23.5395221,15.1295956 23.5395221,14.4788603 L23.5395221,9.01930147 C23.5395221,8.36856618 23.0128676,7.84191176 22.3621324,7.84191176 Z" id="形状"></path>
                </g>
            </g>
        </g>
    </g>
</svg>