<?xml version="1.0" encoding="UTF-8"?>
<svg width="24px" height="24px" viewBox="0 0 24 24" version="1.1" xmlns="http://www.w3.org/2000/svg" xmlns:xlink="http://www.w3.org/1999/xlink">
    <title>编组备份</title>
    <defs>
        <linearGradient x1="-1.11022302e-14%" y1="50%" x2="100%" y2="50%" id="linearGradient-1">
            <stop stop-color="#FFFFFF" offset="0%"></stop>
            <stop stop-color="#F66442" offset="100%"></stop>
        </linearGradient>
    </defs>
    <g id="24.9" stroke="none" stroke-width="1" fill="none" fill-rule="evenodd" opacity="0.4">
        <g id="Course-购买合集" transform="translate(-1080.000000, -668.000000)" fill="url(#linearGradient-1)" fill-rule="nonzero">
            <g id="编组-10" transform="translate(360.000000, 128.000000)">
                <g id="编组-8" transform="translate(394.000000, 414.000000)">
                    <g id="编组-13" transform="translate(148.000000, 118.000000)">
                        <g id="编组备份" transform="translate(178.019015, 8.013720)">
                            <path d="M10.7783136,0.500489666 C11.4458347,-0.166829889 12.5278865,-0.166829889 13.1954076,0.500489666 L23.4518178,10.7568999 C24.1191374,11.424421 24.1191374,12.5064728 23.4518178,13.1739939 L13.1954076,23.4304042 C12.7662206,23.8747748 12.1306589,24.0529906 11.5330015,23.896554 C10.9353441,23.7401174 10.4686003,23.2733737 10.3121637,22.6757163 C10.1557271,22.0780588 10.3339429,21.4424972 10.7783136,21.0133102 L19.8261768,11.9654469 L10.7783136,2.91758366 C10.110994,2.25006254 10.110994,1.16801078 10.7783136,0.500489666 Z M0.521903295,0.500489666 C1.18942441,-0.166829889 2.27147621,-0.166829889 2.93899733,0.500489666 L13.1954076,10.7568999 C13.8627271,11.424421 13.8627271,12.5064728 13.1954076,13.1739939 L2.93899733,23.4304042 C2.50981029,23.8747748 1.87424867,24.0529906 1.27659125,23.896554 C0.678933821,23.7401174 0.212190082,23.2733737 0.0557534835,22.6757163 C-0.100683115,22.0780588 0.0775326255,21.4424972 0.521903295,21.0133102 L9.56976656,11.9654469 L0.521903295,2.91758366 C-0.145416233,2.25006254 -0.145416233,1.16801078 0.521903295,0.500489666 L0.521903295,0.500489666 Z" id="形状"></path>
                        </g>
                    </g>
                </g>
            </g>
        </g>
    </g>
</svg>