<?xml version="1.0" encoding="UTF-8"?>
<svg width="24px" height="24px" viewBox="0 0 24 24" version="1.1" xmlns="http://www.w3.org/2000/svg" xmlns:xlink="http://www.w3.org/1999/xlink">
    <title>编组</title>
    <g id="页面-1" stroke="none" stroke-width="1" fill="none" fill-rule="evenodd">
        <g id="Practice" transform="translate(-1262.000000, -1116.000000)" fill="#3E8BF8" fill-rule="nonzero">
            <g id="编组-2" transform="translate(1080.000000, 850.000000)">
                <g id="编组-8" transform="translate(182.000000, 266.000000)">
                    <g id="编组" transform="translate(3.000000, 4.000000)">
                        <path d="M18.7260607,7.40997942 L11.1392551,0.24948559 C10.809394,-0.0797325231 10.3146023,-0.0797325231 9.98474121,0.24948559 C9.65488009,0.578703704 9.65488009,1.07253086 9.98474121,1.40174898 L16.0871718,7.16306584 L0.831095378,7.16306584 C0.336303711,7.16306584 0.00644259338,7.49228395 0.00644259338,7.98611111 C0.00644259338,8.47993827 0.336303711,8.80915639 0.831095378,8.80915639 L16.0871718,8.80915639 L9.98474121,14.5704732 C9.65488009,14.8996914 9.65488009,15.3935185 9.98474121,15.7227366 C10.1496718,15.8873457 10.3970676,15.9696502 10.5619982,15.9696502 C10.7269287,15.9696502 10.9743245,15.8873457 11.1392551,15.7227366 L18.7260607,8.5622428 C18.8909912,8.39763376 18.9734565,8.15072018 18.9734565,7.98611111 C18.9734565,7.82150204 18.8909912,7.57458848 18.7260607,7.40997942 Z" id="路径"></path>
                    </g>
                </g>
            </g>
        </g>
    </g>
</svg>