<?xml version="1.0" encoding="UTF-8"?>
<svg width="24px" height="24px" viewBox="0 0 24 24" version="1.1" xmlns="http://www.w3.org/2000/svg" xmlns:xlink="http://www.w3.org/1999/xlink">
    <title>编组</title>
    <g id="24.8" stroke="none" stroke-width="1" fill="none" fill-rule="evenodd">
        <g id="口语批改" transform="translate(-1262.000000, -1088.000000)" fill="#635DF7" fill-rule="nonzero">
            <g id="编组-2" transform="translate(1080.000000, 878.000000)">
                <g id="编组-8" transform="translate(182.000000, 210.000000)">
                    <g id="编组" transform="translate(3.006443, 4.002572)">
                        <path d="M18.7196181,7.40740741 L11.1328125,0.246913585 C10.8029514,-0.0823045284 10.3081597,-0.0823045284 9.97829862,0.246913585 C9.6484375,0.576131698 9.6484375,1.06995886 9.97829862,1.39917697 L16.0807292,7.16049383 L0.824652784,7.16049383 C0.329861118,7.16049383 0,7.48971195 0,7.98353911 C0,8.47736627 0.329861118,8.80658438 0.824652784,8.80658438 L16.0807292,8.80658438 L9.97829862,14.5679012 C9.6484375,14.8971194 9.6484375,15.3909465 9.97829862,15.7201646 C10.1432292,15.8847737 10.390625,15.9670782 10.5555556,15.9670782 C10.7204861,15.9670782 10.967882,15.8847737 11.1328125,15.7201646 L18.7196181,8.5596708 C18.8845486,8.39506175 18.9670139,8.14814817 18.9670139,7.98353911 C18.9670139,7.81893004 18.8845486,7.57201648 18.7196181,7.40740741 Z" id="路径"></path>
                    </g>
                </g>
            </g>
        </g>
    </g>
</svg>