<?xml version="1.0" encoding="UTF-8"?>
<svg width="56px" height="56px" viewBox="0 0 56 56" version="1.1" xmlns="http://www.w3.org/2000/svg" xmlns:xlink="http://www.w3.org/1999/xlink">
    <title>编组 8</title>
    <g id="页面-1" stroke="none" stroke-width="1" fill="none" fill-rule="evenodd">
        <g id="Course" transform="translate(-1340.000000, -2468.000000)">
            <g id="编组-9备份-2" transform="translate(1176.000000, 2436.000000)">
                <g id="编组-8" transform="translate(164.000000, 32.000000)">
                    <rect id="矩形" fill-opacity="0" fill="#FFFFFF" x="0" y="0" width="56" height="56"></rect>
                    <rect id="矩形" fill="#FCE2DB" x="10" y="10" width="34" height="44"></rect>
                    <g id="编组" transform="translate(4.000000, 0.000000)" fill="#F66442" fill-rule="nonzero">
                        <path d="M46.0572536,1.97992701 L45.8496807,1.97992701 L45.6580748,2.05976277 C45.2828467,2.21943431 44.3487682,2.53877737 43.805885,2.53877737 L43.7659672,2.53877737 C43.2071168,2.52281022 42.5205292,2.38708942 41.977646,2.25935219 L41.977646,1.73243613 C41.977646,0.806341241 41.2271898,0.0558850365 40.3010949,0.0558850365 L1.68453467,0.0558850365 C0.758439781,0.0558850365 0.00798357664,0.806341241 0.00798357664,1.73243613 L0.00798357664,54.1446168 C0.00798357664,55.0707117 0.758439781,55.8211679 1.68453467,55.8211679 L40.3010949,55.8211679 C41.2271898,55.8211679 41.977646,55.0707117 41.977646,54.1446168 L41.977646,53.7374544 C42.4885949,53.6815693 43.127281,53.6336679 43.694115,53.6576186 C44.9395529,53.7135036 45.8656478,53.8811588 45.8736314,53.8811588 L45.9694343,53.8971259 L46.0652372,53.8971259 C46.9913321,53.8971259 47.7417883,53.1466697 47.7417883,52.2205748 L47.7417883,3.6564781 C47.7338047,2.73038321 46.9833485,1.97992701 46.0572536,1.97992701 Z M39.9019161,53.7534215 L2.0837135,53.7534215 L2.0837135,2.13161496 L39.9019161,2.13161496 L39.9019161,53.7534215 Z M45.6580748,51.7575274 C45.2189781,51.7016423 44.5563412,51.6218066 43.7739507,51.5898723 C43.1671989,51.5659215 42.5285128,51.6058394 41.977646,51.6537409 L41.977646,4.38298358 C42.5285128,4.49475365 43.1512318,4.59055657 43.7020985,4.60652372 C44.3487682,4.62249088 45.0992245,4.43886861 45.6580748,4.26322993 L45.6580748,51.7575274 Z" id="形状"></path>
                        <path d="M10.051323,23.9507299 L31.926323,23.9507299 C32.5011405,23.9507299 32.964188,23.4876825 32.964188,22.912865 C32.964188,22.3380474 32.5011405,21.875 31.926323,21.875 L10.051323,21.875 C9.47650547,21.875 9.01345803,22.3380474 9.01345803,22.912865 C9.01345803,23.4876825 9.48448905,23.9507299 10.051323,23.9507299 Z M10.051323,34.0100365 L31.926323,34.0100365 C32.5011405,34.0100365 32.964188,33.5469891 32.964188,32.9721715 C32.964188,32.397354 32.5011405,31.9343066 31.926323,31.9343066 L10.051323,31.9343066 C9.47650547,31.9343066 9.01345803,32.397354 9.01345803,32.9721715 C9.01345803,33.5469891 9.48448905,34.0100365 10.051323,34.0100365 Z" id="形状"></path>
                    </g>
                </g>
            </g>
        </g>
    </g>
</svg>