<?xml version="1.0" encoding="UTF-8"?>
<svg width="40px" height="40px" viewBox="0 0 40 40" version="1.1" xmlns="http://www.w3.org/2000/svg" xmlns:xlink="http://www.w3.org/1999/xlink">
    <title>编组</title>
    <defs>
        <linearGradient x1="-1.11022302e-14%" y1="50%" x2="100%" y2="50%" id="linearGradient-1">
            <stop stop-color="#FFFFFF" offset="0%"></stop>
            <stop stop-color="#F66442" offset="100%"></stop>
        </linearGradient>
    </defs>
    <g id="页面-1" stroke="none" stroke-width="1" fill="none" fill-rule="evenodd" opacity="0.4">
        <g id="Course" transform="translate(-1500.000000, -2456.000000)" fill="url(#linearGradient-1)" fill-rule="nonzero">
            <g id="编组-9备份-2" transform="translate(1176.000000, 2436.000000)">
                <g id="编组" transform="translate(324.000000, 20.000000)">
                    <path d="M17.9955484,0.857015692 C19.1080836,-0.255183565 20.9115033,-0.255183565 22.0240385,0.857015692 L39.1180556,17.9510328 C40.2302548,19.063568 40.2302548,20.8669876 39.1180556,21.9795228 L22.0240385,39.0735399 C21.3087267,39.8141577 20.2494574,40.1111839 19.2533617,39.8504563 C18.257266,39.5897286 17.4793597,38.8118224 17.2186321,37.8157267 C16.9579044,36.819631 17.2549306,35.7603616 17.9955484,35.0450499 L33.0753205,19.9652778 L17.9955484,4.88550568 C16.8833492,3.77297049 16.8833492,1.96955088 17.9955484,0.857015692 Z M0.901531317,0.857015692 C2.01406651,-0.255183565 3.81748617,-0.255183565 4.93002137,0.857015692 L22.0240385,17.9510328 C23.1362377,19.063568 23.1362377,20.8669876 22.0240385,21.9795228 L4.93002137,39.0735399 C4.21470965,39.8141577 3.15544028,40.1111839 2.15934457,39.8504563 C1.16324886,39.5897286 0.385342629,38.8118224 0.124614965,37.8157267 C-0.1361127,36.819631 0.160913535,35.7603616 0.901531317,35.0450499 L15.9813034,19.9652778 L0.901531317,4.88550568 C-0.210667896,3.77297049 -0.210667896,1.96955088 0.901531317,0.857015692 L0.901531317,0.857015692 Z" id="形状"></path>
                </g>
            </g>
        </g>
    </g>
</svg>