<?xml version="1.0" encoding="UTF-8"?>
<svg width="56px" height="56px" viewBox="0 0 56 56" version="1.1" xmlns="http://www.w3.org/2000/svg" xmlns:xlink="http://www.w3.org/1999/xlink">
    <title>编组 8</title>
    <g id="页面-1" stroke="none" stroke-width="1" fill="none" fill-rule="evenodd">
        <g id="Course" transform="translate(-932.000000, -2468.000000)">
            <g id="编组-9备份" transform="translate(768.000000, 2436.000000)">
                <g id="编组-8" transform="translate(164.000000, 32.000000)">
                    <rect id="矩形" fill-opacity="0" fill="#FFFFFF" x="0" y="0" width="56" height="56"></rect>
                    <g id="编组" transform="translate(3.000000, 3.000000)">
                        <circle id="椭圆形" fill="#FCE2DB" cx="25" cy="25" r="19"></circle>
                        <path d="M25,11 C25.55,11 26,11.5599801 26,12.2444002 L26,35.592 L32.2962963,29.2962963 C32.691358,28.9012346 33.3086419,28.9012346 33.7037037,29.2962963 C34.0987654,29.6913581 34.0987654,30.308642 33.7037037,30.7037037 L25.7037037,38.7037037 C25.4814814,38.9012346 25.2345679,39 24.9876543,39 C24.7407407,39 24.4938271,38.9012346 24.2962963,38.7037037 L16.2962963,30.7037037 C15.9012346,30.308642 15.9012346,29.6913581 16.2962963,29.2962963 C16.6913581,28.9012346 17.308642,28.9012346 17.7037037,29.2962963 L24,35.593 L24,12.2444002 C24,11.5599801 24.45,11 25,11 Z" id="形状结合" fill="#F66442" fill-rule="nonzero"></path>
                        <path d="M25,50 C11.21875,50 0,38.78125 0,25 C0,11.21875 11.21875,0 25,0 C38.78125,0 50,11.21875 50,25 C50,38.78125 38.78125,50 25,50 Z M25,2 C12.3180555,2 2,12.3180555 2,25 C2,37.6819445 12.3180555,48 25,48 C37.6819445,48 48,37.6819445 48,25 C48,12.3180555 37.6819445,2 25,2 Z" id="形状" fill="#F66442" fill-rule="nonzero"></path>
                    </g>
                </g>
            </g>
        </g>
    </g>
</svg>