<?xml version="1.0" encoding="UTF-8"?>
<svg width="56px" height="56px" viewBox="0 0 56 56" version="1.1" xmlns="http://www.w3.org/2000/svg" xmlns:xlink="http://www.w3.org/1999/xlink">
    <title>编组 8</title>
    <g id="页面-1" stroke="none" stroke-width="1" fill="none" fill-rule="evenodd">
        <g id="Course" transform="translate(-524.000000, -2468.000000)">
            <g id="编组-9" transform="translate(360.000000, 2436.000000)">
                <g id="编组-8" transform="translate(164.000000, 32.000000)">
                    <rect id="矩形" fill-opacity="0" fill="#FFFFFF" x="0" y="0" width="56" height="56"></rect>
                    <g id="编组" transform="translate(2.000000, 2.000000)" fill-rule="nonzero">
                        <path d="M8.27585937,27.6784156 L8.27585937,13.6533408 C8.27585937,10.6970073 10.6946497,8.27839844 13.6507442,8.27839844 L45.9009746,8.27839844 C48.8570691,8.27839844 51.2758594,10.6970073 51.2758594,13.6533408 L51.2758594,45.903456 C51.2758594,48.8597895 48.8570691,51.2783984 45.9009746,51.2783984 L13.651205,51.2783984 C10.6951105,51.2783984 8.27632018,48.8597895 8.27632018,45.903456 L8.27632018,38.0716604" id="路径" fill="#FCE2DB"></path>
                        <line x1="0.424765625" y1="26.9998828" x2="0.424765625" y2="25.0833984" id="路径" fill="#FFD632"></line>
                        <path d="M52,32.3166797 L30.6271875,32.3166797 C27.1903125,32.3166797 24.3937891,29.5206641 24.3937891,26.0832812 C24.3937891,22.5544922 27.2649609,19.6833203 30.79375,19.6833203 L36.3862891,19.6833203 C36.6071875,19.6833203 36.7864453,19.8625781 36.7864453,20.0834766 C36.7864453,20.304375 36.6071875,20.4836328 36.3862891,20.4836328 L30.79375,20.4836328 C27.7057422,20.4836328 25.1935938,22.9957813 25.1935938,26.0837891 C25.1935938,29.0798828 27.6310938,31.516875 30.6266797,31.516875 L51.1991797,31.516875 L51.1991797,20.483125 L44.4198828,20.483125 C44.1989844,20.483125 44.0197266,20.3038672 44.0197266,20.0829687 C44.0197266,19.8620703 44.1989844,19.6828125 44.4198828,19.6828125 L52,19.6828125 L52,32.3166797 Z" id="路径" stroke="#F66442" fill="#F66442"></path>
                        <path d="M30.3783594,28.7498047 C28.8620312,28.7498047 27.6285547,27.5163281 27.6285547,26 C27.6285547,24.4836719 28.8620312,23.2501953 30.3783594,23.2501953 C31.8946875,23.2501953 33.1281641,24.4836719 33.1281641,26 C33.1281641,27.5163281 31.8946875,28.7498047 30.3783594,28.7498047 Z M30.3783594,24.05 C29.3033203,24.05 28.4283594,24.9249609 28.4283594,26 C28.4283594,27.0750391 29.3028125,27.95 30.3783594,27.95 C31.4539062,27.95 32.3283594,27.0755469 32.3283594,26 C32.3283594,24.9244531 31.4533984,24.05 30.3783594,24.05 L30.3783594,24.05 Z" id="形状" stroke="#F66442" fill="#F66442"></path>
                        <path d="M52,6.80011719 L52,45.1998828 C52,48.9495703 48.9495703,52 45.1998828,52 L6.80011719,52 C3.05042969,52 0,48.9495703 0,45.1998828 L0,35.8749219 C0,35.6540234 0.179257813,35.4747656 0.40015625,35.4747656 C0.621054688,35.4747656 0.8003125,35.6540234 0.8003125,35.8749219 L0.8003125,45.1998828 C0.8003125,48.5082813 3.49171875,51.1996875 6.80011719,51.1996875 L45.1998828,51.1996875 C48.5082812,51.1996875 51.1996875,48.5082813 51.1996875,45.1998828 L51.1996875,6.80011719 C51.1996875,3.49171875 48.5082812,0.8003125 45.1998828,0.8003125 L6.80011719,0.8003125 C3.49171875,0.8003125 0.8003125,3.49171875 0.8003125,6.80011719 L0.8003125,23.5000391 C0.8003125,23.7209375 0.621054687,23.9001953 0.40015625,23.9001953 C0.179257812,23.9001953 0,23.7209375 0,23.5000391 L0,6.80011719 C0,3.05042969 3.05042969,0 6.80011719,0 L45.1998828,0 C48.9495703,0 52,3.05042969 52,6.80011719 Z" id="路径" stroke="#F66442" fill="#F66442"></path>
                    </g>
                </g>
            </g>
        </g>
    </g>
</svg>