<?xml version="1.0" encoding="UTF-8"?>
<svg width="1920px" height="384px" viewBox="0 0 1920 384" version="1.1" xmlns="http://www.w3.org/2000/svg" xmlns:xlink="http://www.w3.org/1999/xlink">
    <title>编组 3</title>
    <g id="页面-1" stroke="none" stroke-width="1" fill="none" fill-rule="evenodd">
        <g id="编组-3">
            <rect id="矩形" fill="#FFF4F1" x="0" y="0" width="1920" height="384"></rect>
            <path d="M968.749939,0 L1270.999,174 L868,174 L968.749939,0 Z" id="形状结合备份-2" fill="#FFE8E2" transform="translate(1069.500000, 87.000000) scale(1, -1) translate(-1069.500000, -87.000000) "></path>
            <path d="M1414,234 C1496.84271,234 1564,301.157288 1564,384 L1564,384 L1264,384 C1264,301.157288 1331.15729,234 1414,234 Z" id="形状结合" fill="#FFE8E2"></path>
            <path d="M1449,133 C1460.04569,133 1469,141.954305 1469,153 L1469,153 L1429,153 C1429,141.954305 1437.95431,133 1449,133 Z" id="形状结合备份-3" fill-opacity="0.8" fill="#3E8BF8" transform="translate(1449.000000, 143.000000) rotate(-90.000000) translate(-1449.000000, -143.000000) "></path>
            <path d="M425,260 C436.045695,260 445,268.954305 445,280 L445,280 L405,280 C405,268.954305 413.954305,260 425,260 Z" id="形状结合备份-5" fill-opacity="0.8" fill="#06CC76" transform="translate(425.000000, 270.000000) rotate(-90.000000) translate(-425.000000, -270.000000) "></path>
            <path d="M1685,251 C1696.04569,251 1705,259.954305 1705,271 L1705,271 L1665,271 C1665,259.954305 1673.95431,251 1685,251 Z" id="形状结合备份-4" fill-opacity="0.8" fill="#F66442" transform="translate(1685.000000, 261.000000) scale(-1, 1) rotate(-90.000000) translate(-1685.000000, -261.000000) "></path>
            <path d="M282.992346,226.435188 C282.993685,226.437506 282.995024,226.439825 282.989407,226.446157 L373.918,383.999361 L28.89,383.999361 L24.2174571,375.903643 C17.324343,363.94392 21.4200881,348.65839 33.3695614,341.747523 L248.844258,217.296993 C260.796448,210.384559 276.086866,214.478982 282.992346,226.435188 Z" id="形状结合" fill="#FFE8E2"></path>
            <path d="M266,162 C277.045695,162 286,170.954305 286,182 L286,182 L246,182 C246,170.954305 254.954305,162 266,162 Z" id="形状结合备份-6" fill-opacity="0.8" fill="#FF7C0E" transform="translate(266.000000, 172.000000) scale(-1, 1) rotate(-90.000000) translate(-266.000000, -172.000000) "></path>
        </g>
    </g>
</svg>