<?xml version="1.0" encoding="UTF-8"?>
<svg width="16px" height="16px" viewBox="0 0 16 16" version="1.1" xmlns="http://www.w3.org/2000/svg" xmlns:xlink="http://www.w3.org/1999/xlink">
    <title>错</title>
    <g id="登录英文" stroke="none" stroke-width="1" fill="none" fill-rule="evenodd">
        <g id="英文报错样式" transform="translate(-288.000000, -717.000000)" fill-rule="nonzero">
            <g id="编组-2" transform="translate(280.000000, 712.000000)">
                <g id="错" transform="translate(8.000000, 5.000000)">
                    <rect id="矩形" fill="#000000" opacity="0" x="0" y="0" width="16" height="16"></rect>
                    <path d="M7.9796875,2.015625 C4.671875,2.015625 1.990625,4.696875 1.990625,8.0046875 C1.990625,11.3125 4.671875,13.99375 7.9796875,13.99375 C11.2875,13.99375 13.96875,11.3125 13.96875,8.0046875 C13.96875,4.696875 11.2875,2.015625 7.9796875,2.015625 Z M10.096875,9.59375 C10.24375,9.740625 10.24375,9.9765625 10.096875,10.1234375 C9.95,10.2703125 9.7140625,10.2703125 9.5671875,10.1234375 L7.98125,8.5359375 L6.384375,10.1328125 C6.2375,10.2796875 5.9984375,10.2796875 5.8515625,10.1328125 C5.7046875,9.9859375 5.7046875,9.746875 5.8515625,9.6 L7.4484375,8.003125 L5.8625,6.4171875 C5.715625,6.2703125 5.715625,6.034375 5.8625,5.8875 C6.009375,5.740625 6.2453125,5.740625 6.3921875,5.8875 L7.978125,7.4734375 L9.5875,5.8640625 C9.734375,5.7171875 9.9734375,5.7171875 10.1203125,5.8640625 C10.2671875,6.0109375 10.2671875,6.25 10.1203125,6.396875 L8.5109375,8.00625 L10.096875,9.59375 Z" id="形状" fill="#F66442"></path>
                </g>
            </g>
        </g>
    </g>
</svg>