<?xml version="1.0" encoding="UTF-8"?>
<svg width="28px" height="28px" viewBox="0 0 28 28" version="1.1" xmlns="http://www.w3.org/2000/svg" xmlns:xlink="http://www.w3.org/1999/xlink">
    <title>编组</title>
    <g id="登录英文" stroke="none" stroke-width="1" fill="none" fill-rule="evenodd">
        <g id="英文报错样式" transform="translate(-376.000000, -381.000000)" fill-rule="nonzero">
            <g id="编组" transform="translate(376.000000, 381.000000)">
                <path d="M27.8620664,14.3225699 C27.8620664,13.3706096 27.7842918,12.4139828 27.6171346,11.4783551 L14.2132155,11.4783551 L14.2132155,16.8681305 L21.8885176,16.8681305 C21.5641822,18.6185918 20.5367607,20.1575134 19.0480058,21.1227866 L19.0480058,24.6203075 L23.627417,24.6203075 C26.317023,22.1820758 27.8620664,18.5818924 27.8620664,14.3225699 Z" id="路径" fill="#4285F4"></path>
                <path d="M14.2120547,28 C18.0450625,28 21.2767686,26.759885 23.6320602,24.6203075 L19.052649,21.1227866 C17.7792361,21.976751 16.1343627,22.4597309 14.2178588,22.4597308 C10.5102189,22.4597308 7.36673462,19.9958335 6.23958424,16.6838048 L1.5139105,16.6838048 L1.5139105,20.2886546 C3.92608196,25.0181242 8.83864675,28 14.2132155,28 L14.2120547,28 Z" id="路径" fill="#34A853"></path>
                <path d="M6.23494097,16.6838048 C5.63952982,14.947032 5.63952982,13.0599677 6.23494097,11.3231949 L6.23494097,7.71834506 L1.5139105,7.71834506 C-0.501539524,11.6640711 -0.501539524,16.3440952 1.5139105,20.2898213 L6.23494097,16.6838048 Z" id="路径" fill="#FBBC04"></path>
                <path d="M14.2120547,5.54260238 C16.2305982,5.50732275 18.1842938,6.25909203 19.6632372,7.64018166 L23.7202821,3.64451481 C21.1283577,1.25870615 17.7288633,-0.044225128 14.2143763,0.00116662109 C8.83748593,0.00116662109 3.92608196,2.98537561 1.51274968,7.71834506 L6.23378016,11.3231949 C7.35744811,8.00649973 10.5055756,5.54260238 14.2108939,5.54260238 L14.2120547,5.54260238 Z" id="路径" fill="#EA4335"></path>
            </g>
        </g>
    </g>
</svg>