<?xml version="1.0" encoding="UTF-8"?>
<svg width="120px" height="120px" viewBox="0 0 120 120" version="1.1" xmlns="http://www.w3.org/2000/svg" xmlns:xlink="http://www.w3.org/1999/xlink">
    <title>编组 4</title>
    <g id="登录英文" stroke="none" stroke-width="1" fill="none" fill-rule="evenodd">
        <g id="忘记密码" transform="translate(-420.000000, -281.000000)">
            <g id="编组-5" transform="translate(280.000000, 281.000000)">
                <g id="编组-4" transform="translate(140.000000, 0.000000)">
                    <circle id="椭圆形" fill="#F6E8E6" cx="60" cy="60" r="60"></circle>
                    <g id="编组" transform="translate(40.000000, 38.000000)" fill="#F66442" fill-rule="nonzero">
                        <path d="M34.7425314,14.8427673 L30.9689465,14.8427673 L30.9689465,11.0691824 C30.9689465,4.95597484 26.0132233,0 19.8997642,0 C13.786305,0 8.83058176,4.95572327 8.83058176,11.0691824 L8.83058176,14.8427673 L5.05699686,14.8427673 C2.27812893,14.8427673 0.0255503145,17.0953459 0.0255503145,19.8742138 L0.0255503145,38.9937107 C0.0255503145,41.7725786 2.27812893,44.0251572 5.05699686,44.0251572 L34.7425314,44.0251572 C37.5213994,44.0251572 39.773978,41.7725786 39.773978,38.9937107 L39.773978,19.8742138 C39.773978,17.0953459 37.5213994,14.8427673 34.7425314,14.8427673 Z M12.3525943,11.0691824 C12.3525943,6.90767296 15.7382547,3.52201258 19.8997642,3.52201258 C24.0612736,3.52201258 27.446934,6.90767296 27.446934,11.0691824 L27.446934,14.8427673 L12.3525943,14.8427673 L12.3525943,11.0691824 Z M36.2519654,38.9937107 C36.2519654,39.8259119 35.5749843,40.5031447 34.7425314,40.5031447 L5.05699686,40.5031447 C4.22454403,40.5031447 3.54756289,39.8259119 3.54756289,38.9937107 L3.54756289,19.8742138 C3.54756289,19.0420126 4.22454403,18.3647799 5.05699686,18.3647799 L34.7425314,18.3647799 C35.5749843,18.3647799 36.2519654,19.0420126 36.2519654,19.8742138 L36.2519654,38.9937107 Z" id="形状"></path>
                        <path d="M19.8997642,23.8993711 C18.9271872,23.8993711 18.1387579,24.6878004 18.1387579,25.6603774 L18.1387579,34.2138365 C18.1387579,35.1864134 18.9271872,35.9748428 19.8997642,35.9748428 C20.8723411,35.9748428 21.6607704,35.1864134 21.6607704,34.2138365 L21.6607704,25.6603774 C21.6607704,24.6878004 20.8723411,23.8993711 19.8997642,23.8993711 L19.8997642,23.8993711 Z" id="路径"></path>
                    </g>
                </g>
            </g>
        </g>
    </g>
</svg>