<?xml version="1.0" encoding="UTF-8"?>
<svg width="24px" height="24px" viewBox="0 0 24 24" version="1.1" xmlns="http://www.w3.org/2000/svg" xmlns:xlink="http://www.w3.org/1999/xlink">
    <title>look</title>
    <g id="登录英文" stroke="none" stroke-width="1" fill="none" fill-rule="evenodd">
        <g id="英文报错样式" transform="translate(-648.000000, -656.000000)" fill="#666666" fill-rule="nonzero">
            <g id="编组-5" transform="translate(280.000000, 624.000000)">
                <g id="编组-4" transform="translate(368.000000, 32.000000)">
                    <g id="编组" transform="translate(5.000000, 7.000000)">
                        <path d="M7.4834409,0 C4.08670177,0 1.1994735,2.10597827 0.0106148151,5.0951087 C1.19947352,8.08423913 4.08670177,10.1902174 7.4834409,10.1902174 C10.88018,10.1902174 13.7674083,8.08423913 14.956267,5.0951087 C13.7674083,2.10597827 10.88018,0 7.4834409,0 Z M7.4834409,8.49184782 C5.61523438,8.49184782 4.08670177,6.96331521 4.08670177,5.0951087 C4.08670177,3.22690218 5.61523438,1.69836957 7.4834409,1.69836957 C9.35164741,1.69836957 10.88018,3.22690218 10.88018,5.0951087 C10.88018,6.96331521 9.35164741,8.49184782 7.4834409,8.49184782 Z M7.4834409,3.05706522 C6.36251698,3.05706522 5.44539742,3.97418478 5.44539742,5.0951087 C5.44539742,6.21603261 6.36251698,7.13315217 7.4834409,7.13315217 C8.60436481,7.13315217 9.52148438,6.21603261 9.52148438,5.0951087 C9.52148438,3.97418478 8.60436481,3.05706522 7.4834409,3.05706522 Z" id="形状"></path>
                    </g>
                </g>
            </g>
        </g>
    </g>
</svg>