<?xml version="1.0" encoding="UTF-8"?>
<svg width="24px" height="24px" viewBox="0 0 24 24" version="1.1" xmlns="http://www.w3.org/2000/svg" xmlns:xlink="http://www.w3.org/1999/xlink">
    <title>unlook</title>
    <g id="登录英文" stroke="none" stroke-width="1" fill="none" fill-rule="evenodd">
        <g id="英文报错样式" transform="translate(-737.000000, -598.000000)" fill="#666666" fill-rule="nonzero">
            <g id="编组-4备份-2" transform="translate(737.000000, 598.000000)">
                <g id="编组" transform="translate(4.000000, 7.000000)">
                    <path d="M4.31039283,0.890007689 C5.31401852,0.361052761 6.52846872,0 7.97520463,0 C13.3853152,0 15.5497381,5.049689 15.5497381,5.049689 C15.5497381,5.049689 15.2177211,5.82418505 14.4893034,6.76658326 L11.2164737,4.87673715 C11.1205297,3.28356027 9.7047231,2.0198756 7.97520463,2.0198756 C7.52010141,2.0198756 7.08645936,2.10761395 6.69321483,2.26604794 L4.31039283,0.890007689 Z M13.635906,7.73233628 L15.9436139,9.06419176 L15.3124027,10.1574494 L12.6158688,8.60088279 C11.4582276,9.441656 9.92817185,10.099378 7.97520463,10.099378 C2.56509407,10.099378 0.400671123,5.049689 0.400671123,5.049689 C0.400671123,5.049689 0.934675736,3.80367823 2.13523929,2.55009294 L0.00679538658,1.31986246 L0.63800651,0.226604798 L3.11929744,1.65945404 L5.53304878,3.05316821 L6.95327381,3.87248025 L9.56017576,5.37791878 L10.9804008,6.19786203 L13.635906,7.73170507 L13.635906,7.73233628 Z M4.87974526,4.13443286 C4.77969063,4.42920178 4.72872591,4.73840197 4.72888543,5.049689 C4.72888543,6.72302969 6.18319624,8.0795024 7.97520463,8.0795024 C8.85258809,8.0795024 9.64980774,7.75442868 10.2343092,7.22547375 L8.76169368,6.37523236 C8.52814557,6.49579369 8.26051205,6.5645957 7.97520463,6.5645957 C7.07888483,6.5645957 6.35236083,5.88604374 6.35236082,5.049689 C6.35236082,5.02822782 6.35236082,5.00676664 6.35362324,4.98530546 L4.87974526,4.13443286 Z" id="形状"></path>
                </g>
            </g>
        </g>
    </g>
</svg>