<?xml version="1.0" encoding="UTF-8"?>
<svg width="220px" height="40px" viewBox="0 0 220 40" version="1.1" xmlns="http://www.w3.org/2000/svg" xmlns:xlink="http://www.w3.org/1999/xlink">
    <title>编组 7</title>
    <g id="页面-1" stroke="none" stroke-width="1" fill="none" fill-rule="evenodd">
        <g id="首页" transform="translate(-360.000000, -16.000000)">
            <g id="编组-7" transform="translate(360.000000, 16.000000)">
                <path d="M211.899628,-3.90798505e-14 L105.429157,-3.90798505e-14 C101.105946,-3.90798505e-14 97.568851,3.38965035 97.568851,7.53258741 L97.568851,31.9944056 C97.568851,36.1370629 101.105946,39.526993 105.429157,39.526993 L211.899628,39.526993 C216.222838,39.526993 219.759934,36.1370629 219.759934,31.9944056 L219.759934,7.53258741 C219.759934,3.38965035 216.222838,-3.90798505e-14 211.899628,-3.90798505e-14" id="Fill-1" fill="#F66442"></path>
                <path d="M34.3784892,34.7893986 L34.3784892,4.73737063 C34.3784892,3.68142657 34.6878904,2.8252028 35.308935,2.16953846 C35.9291389,1.51387413 36.787279,1.18604196 37.8819541,1.18604196 L55.9474573,1.18604196 C57.0782854,1.18604196 57.9815465,1.51387413 58.6572408,2.16953846 C59.3323745,2.8252028 59.6700815,3.66352448 59.6700815,4.68282517 C59.6700815,5.6666014 59.3323745,6.4859021 58.6572408,7.14184615 C57.9815465,7.79723077 57.0782854,8.12534266 55.9474573,8.12534266 L42.7541834,8.12534266 C42.5353045,8.12534266 42.4257248,8.23443357 42.4257248,8.45317483 L42.4257248,15.8293986 C42.4257248,16.0478601 42.5353045,16.1572308 42.7541834,16.1572308 L53.3197885,16.1572308 C54.4506166,16.1572308 55.3451898,16.4763916 56.0023873,17.1133147 C56.6590242,17.7510769 56.9874828,18.5798881 56.9874828,19.5994685 C56.9874828,20.6196084 56.6590242,21.4486993 56.0023873,22.0856224 C55.3451898,22.7233846 54.4506166,23.0417063 53.3197885,23.0417063 L42.7541834,23.0417063 C42.5353045,23.0417063 42.4257248,23.1510769 42.4257248,23.3695385 L42.4257248,31.0738741 C42.4257248,31.2923357 42.5353045,31.4017063 42.7541834,31.4017063 L55.9474573,31.4017063 C57.0782854,31.4017063 57.9815465,31.7295385 58.6572408,32.3849231 C59.3323745,33.0405874 59.6700815,33.8604476 59.6700815,34.8436643 C59.6700815,35.8640839 59.3323745,36.7018462 58.6572408,37.3575105 C57.9815465,38.0128951 57.0782854,38.3407273 55.9474573,38.3407273 L37.8819541,38.3407273 C36.787279,38.3407273 35.9291389,38.0128951 35.308935,37.3575105 C34.6878904,36.7018462 34.3784892,35.8461818 34.3784892,34.7893986" id="Fill-3" fill="#201515"></path>
                <path d="M77.0233172,38.5046993 C75.8916484,38.5046993 74.942986,38.1139301 74.1764892,37.3301538 C73.4099924,36.5469371 73.0268841,35.5181259 73.0268841,34.2428811 L73.0268841,8.50777622 C73.0268841,8.28903497 72.9175847,8.17994406 72.6984255,8.17994406 L66.4027822,8.17994406 C65.161814,8.17994406 64.1764382,7.84344056 63.446935,7.16903497 C62.7163108,6.49546853 62.3516994,5.64847552 62.3516994,4.62805594 C62.3516994,3.57239161 62.7163108,2.70721678 63.446935,2.03309091 C64.1764382,1.35924476 65.161814,1.02218182 66.4027822,1.02218182 L87.6982217,1.02218182 C88.9386293,1.02218182 89.9240051,1.35924476 90.6546293,2.03309091 C91.3841325,2.70721678 91.7493045,3.57239161 91.7493045,4.62805594 C91.7493045,5.64847552 91.3841325,6.49546853 90.6546293,7.16903497 C89.9240051,7.84344056 88.9386293,8.17994406 87.6982217,8.17994406 L81.4025783,8.17994406 C81.1836994,8.17994406 81.0744,8.28903497 81.0744,8.50777622 L81.0744,34.2428811 C81.0744,35.5181259 80.6910115,36.5469371 79.9247949,37.3301538 C79.1582981,38.1139301 78.1908586,38.5046993 77.0233172,38.5046993" id="Fill-5" fill="#201515"></path>
                <path d="M28.2208153,13.5069091 C28.0361274,12.0187972 27.7597962,10.7424336 27.3923822,9.67613986 C26.3983185,6.62634965 24.6587771,4.42159441 22.1734777,3.06159441 C19.6881783,1.70243357 16.4383439,1.02215385 12.4259363,1.02215385 L3.53457325,1.02215385 C2.42980892,1.02215385 1.56438217,1.35278322 0.938573248,2.01432168 C0.312203822,2.67558042 -1.75859327e-13,3.53963636 -1.75859327e-13,4.60481119 L-1.75859327e-13,34.9768392 C-1.75859327e-13,36.0428531 0.312203822,36.8976783 0.938573248,37.5401958 C1.56438217,38.1835524 2.42980892,38.5046713 3.53457325,38.5046713 L12.4259363,38.5046713 C16.4383439,38.5046713 19.6881783,37.8252308 22.1734777,36.4652308 C24.6587771,35.1063497 26.3983185,32.9013147 27.3923822,29.8506853 C27.7597962,28.7852308 28.0361274,27.508028 28.2208153,26.0196364 C28.4046624,24.5312448 28.4968662,22.4462098 28.4968662,19.7634126 C28.4968662,17.0814545 28.4046624,14.9953007 28.2208153,13.5069091" id="Fill-7" fill="#F66442"></path>
                <path d="M20.0748178,24.365986 C19.9456204,25.5234685 19.7892382,26.4146573 19.6053911,27.0392727 C19.1264357,28.5094825 18.2427924,29.5841678 16.9544611,30.2641678 C15.6652892,30.9444476 14.0826904,31.2837483 12.2049834,31.2837483 L9.34806624,31.2837483 C8.66872866,31.2837483 8.11830828,30.7343776 8.11830828,30.0566154 L8.11830828,18.4493427 C8.11830828,17.9061259 8.53112357,17.459972 9.07173503,17.3961958 C13.0975949,16.9212308 16.2204739,13.5036084 16.2204739,9.35787413 L16.2204739,9.35311888 C16.2204739,9.14109091 16.4359898,8.99451748 16.6302064,9.08067133 C16.7406268,9.12962238 16.8488051,9.18081119 16.9544611,9.23507692 C18.2427924,9.89661538 19.1264357,10.9810909 19.6053911,12.4871049 C19.7892382,13.1128392 19.9456204,14.0031888 20.0748178,15.1606713 C20.2034548,16.3181538 20.2681936,17.8532587 20.2681936,19.7631888 C20.2681936,21.6745175 20.2034548,23.2082238 20.0748178,24.365986" id="Fill-9" fill="#FEFEFE"></path>
                <path d="M116.117654,17.9425455 C115.507819,18.5772308 114.663972,18.8938741 113.586673,18.8938741 L109.500558,18.8938741 C109.378367,18.8938741 109.317552,18.8284196 109.317552,18.6972308 L109.317552,12.2018462 C109.317552,12.0703776 109.378367,12.0049231 109.500558,12.0049231 L113.586673,12.0049231 C114.663972,12.0049231 115.507819,12.3224056 116.117654,12.955972 C116.727488,13.5906573 117.032405,14.4217063 117.032405,15.4493986 C117.032405,16.4776503 116.727488,17.3086993 116.117654,17.9425455 M119.761526,11.8242238 C119.182239,10.7861818 118.379029,9.97667133 117.352456,9.39681119 C116.325883,8.81779021 115.141806,8.52744056 113.799946,8.52744056 L107.304762,8.52744056 C106.816838,8.52744056 106.430647,8.6866014 106.146189,9.00324476 C105.861169,9.32044755 105.71908,9.74114685 105.71908,10.2661818 L105.71908,28.9652028 C105.71908,29.5780699 105.891717,30.0698182 106.237552,30.4415664 C106.583106,30.8135944 107.009934,30.9993287 107.518316,30.9993287 C108.046876,30.9993287 108.479029,30.8135944 108.814214,30.4415664 C109.149679,30.0698182 109.317552,29.5780699 109.317552,28.9652028 L109.317552,22.601007 C109.317552,22.4698182 109.378367,22.4040839 109.500558,22.4040839 L113.799946,22.4040839 C115.141806,22.4040839 116.325883,22.1145734 117.352456,21.5347133 C118.379029,20.9556923 119.182239,20.1403077 119.761526,19.0905175 C120.341093,18.0412867 120.630596,16.8273007 120.630596,15.4493986 C120.630596,14.0717762 120.341093,12.8633846 119.761526,11.8242238" id="Fill-11" fill="#FEFEFE"></path>
                <path d="M128.598828,15.155021 C127.636433,15.436979 126.760917,15.9471888 125.969197,16.676979 C125.91707,16.2697063 125.781707,15.9457902 125.560866,15.7085874 C125.271363,15.3980979 124.846497,15.2425734 124.285987,15.2425734 L124.231898,15.2425734 C123.671108,15.2425734 123.245962,15.3980979 122.957019,15.7085874 C122.667516,16.0193566 122.523185,16.4761399 122.523185,17.0775385 L122.523185,28.8442517 C122.523185,29.4462098 122.667516,29.9027133 122.957019,30.2132028 C123.245962,30.523972 123.671108,30.6792168 124.231898,30.6792168 L124.285987,30.6792168 C124.846497,30.6792168 125.271363,30.523972 125.560866,30.2132028 C125.849809,29.9027133 125.994981,29.4462098 125.994981,28.8442517 L125.994981,23.2808951 C125.994981,22.3105455 126.098675,21.5091469 126.306624,20.8783776 C126.514573,20.2476084 126.830981,19.756979 127.256127,19.4076084 C127.680713,19.0576783 128.219083,18.8151608 128.870115,18.6794965 C129.412408,18.5821538 129.810089,18.3835524 130.06372,18.082014 C130.31651,17.7815944 130.443185,17.3494266 130.443185,16.7860699 L130.443185,16.7281678 C130.443185,16.1452308 130.280357,15.7041119 129.954981,15.4025734 C129.629605,15.1018741 129.177274,15.0196364 128.598828,15.155021" id="Fill-13" fill="#FEFEFE"></path>
                <path d="M142.866375,25.422042 C142.522782,26.1308531 142.034298,26.6791049 141.401763,27.0673566 C140.768668,27.4561678 140.027394,27.6502937 139.177381,27.6502937 C138.489916,27.6502937 137.866069,27.4511329 137.305839,27.0530909 C136.74533,26.655049 136.302527,26.102042 135.976871,25.392951 C135.651215,24.6841399 135.488668,23.8737902 135.488668,22.9607832 C135.488668,22.0480559 135.651215,21.2323916 135.976871,20.5143497 C136.302527,19.796028 136.749814,19.2377063 137.319572,18.8393846 C137.88905,18.4419021 138.508413,18.2427413 139.177381,18.2427413 C140.027394,18.2427413 140.768668,18.4368671 141.401763,18.8248392 C142.034298,19.2136503 142.522782,19.7669371 142.866375,20.4852587 C143.209687,21.2038601 143.381763,22.0284755 143.381763,22.9607832 C143.381763,23.8925315 143.209687,24.7132308 142.866375,25.422042 M144.900744,15.2424615 L144.81919,15.2424615 C144.25868,15.2424615 143.82933,15.4027413 143.531139,15.7233007 C143.264056,16.0094545 143.123368,16.4153287 143.095062,16.9263776 C142.86161,16.6544895 142.610502,16.3974266 142.337254,16.1599441 C141.388031,15.335049 140.244311,14.9219021 138.906375,14.9219021 C137.549941,14.9219021 136.329432,15.2816224 135.244566,15.9999441 C134.159419,16.7185455 133.309406,17.6942098 132.694808,18.9269371 C132.079929,20.1602238 131.772769,21.5042797 131.772769,22.9607832 C131.772769,24.417007 132.079929,25.7619021 132.694808,26.9946294 C133.309406,28.2279161 134.159419,29.2038601 135.244566,29.9219021 C136.329432,30.6402238 137.549941,30.9991049 138.906375,30.9991049 C140.244311,30.9991049 141.388031,30.5870769 142.337254,29.7616224 C142.610502,29.5241399 142.86161,29.2670769 143.095062,28.9949091 C143.123368,29.5067972 143.264056,29.9121119 143.531139,30.1985455 C143.82933,30.5188252 144.25868,30.6791049 144.81919,30.6791049 L144.900744,30.6791049 C145.460973,30.6791049 145.890604,30.5188252 146.189075,30.1985455 C146.487266,29.8782657 146.636642,29.417007 146.636642,28.815049 L146.636642,17.1062378 C146.636642,16.5048392 146.487266,16.0435804 146.189075,15.7233007 C145.890604,15.4027413 145.460973,15.2424615 144.900744,15.2424615" id="Fill-15" fill="#FEFEFE"></path>
                <path d="M154.841381,19.0723357 C155.447011,18.7134545 156.156897,18.5338741 156.970757,18.5338741 C157.494833,18.5338741 157.955852,18.6018462 158.354094,18.7375105 C158.751496,18.8737343 159.113304,19.0972308 159.438961,19.4074406 C159.854578,19.7763916 160.234324,20.0046434 160.578196,20.0919161 C160.921228,20.1794685 161.300973,20.0874406 161.717432,19.814993 L161.907164,19.6989091 C162.377152,19.4074406 162.652922,19.0387692 162.734476,18.5917762 C162.816031,18.1456224 162.666655,17.7086993 162.28691,17.2812867 C161.599445,16.5436643 160.799317,15.9663217 159.886527,15.5481399 C158.973177,15.1307972 158.001254,14.9221259 156.970757,14.9221259 C155.614324,14.9221259 154.362145,15.2815664 153.213941,15.9998881 C152.065457,16.7184895 151.152387,17.6941538 150.474171,18.9268811 C149.796234,20.1604476 149.457406,21.5042238 149.457406,22.9607273 C149.457406,24.416951 149.796234,25.7618462 150.474171,26.9945734 C151.152387,28.2278601 152.065457,29.2038042 153.213941,29.9218462 C154.362145,30.6401678 155.614324,30.9993287 156.970757,30.9993287 C157.983037,30.9993287 158.937024,30.7906573 159.832158,30.373035 C160.727292,29.955972 161.527419,29.3878601 162.23282,28.6692587 C162.630222,28.261986 162.797534,27.8348531 162.734476,27.3881399 C162.670859,26.9414266 162.404336,26.5433846 161.934349,26.194014 L161.82589,26.1061818 C161.409712,25.7956923 161.025483,25.6695385 160.672922,25.7277203 C160.320362,25.7859021 159.94482,26.0001678 159.547419,26.3685594 C159.167674,26.7179301 158.769712,26.9755524 158.354094,27.1403077 C157.937636,27.3056224 157.476617,27.3881399 156.970757,27.3881399 C156.156897,27.3881399 155.447011,27.2085594 154.841381,26.8491189 C154.23519,26.4902378 153.765203,25.9752727 153.430859,25.3053427 C153.095954,24.6354126 152.928922,23.8541538 152.928922,22.9607273 C152.928922,22.0681399 153.095954,21.2857622 153.430859,20.6163916 C153.765203,19.9464615 154.23519,19.4320559 154.841381,19.0723357" id="Fill-17" fill="#FEFEFE"></path>
                <path d="M172.458561,15.2425734 L170.342917,15.2425734 L170.342917,12.1259301 C170.342917,11.5245315 170.198025,11.0733427 169.908803,10.7718042 C169.61958,10.4708252 169.194433,10.3203357 168.634204,10.3203357 L168.579834,10.3203357 C168.019045,10.3203357 167.594178,10.4708252 167.304955,10.7718042 C167.015732,11.0733427 166.871121,11.5245315 166.871121,12.1259301 L166.871121,15.2425734 L165.813159,15.2425734 C165.288522,15.2425734 164.886357,15.388028 164.606102,15.6794965 C164.325567,15.9706853 164.18572,16.3978182 164.18572,16.9611748 L164.18572,16.9902657 C164.18572,17.5337622 164.325567,17.9564196 164.606102,18.2568392 C164.886357,18.5583776 165.288522,18.7085874 165.813159,18.7085874 L166.871121,18.7085874 L166.871121,24.4755804 C166.871121,26.2422937 167.313924,27.6453706 168.200089,28.683972 C169.085975,29.7231329 170.469312,30.3586573 172.350102,30.5916643 C172.892675,30.6498462 173.317261,30.5186573 173.624981,30.1986573 C173.93214,29.8780979 174.086,29.4266294 174.086,28.8442517 L174.086,28.7857902 C174.086,28.2425734 173.954561,27.8246713 173.692803,27.5334825 C173.430204,27.242014 173.01879,27.0481678 172.458561,26.9508252 C171.879554,26.854042 171.441516,26.6887273 171.143045,26.4557203 C170.844573,26.2227133 170.636624,25.9024336 170.519197,25.4946014 C170.40149,25.087049 170.342917,24.5530629 170.342917,23.8926434 L170.342917,18.7085874 L172.458561,18.7085874 C173.001134,18.7085874 173.407783,18.5583776 173.67907,18.2568392 C173.950357,17.9564196 174.086,17.5337622 174.086,16.9902657 L174.086,16.9611748 C174.086,16.3978182 173.950357,15.9706853 173.67907,15.6794965 C173.407783,15.388028 173.001134,15.2425734 172.458561,15.2425734" id="Fill-19" fill="#FEFEFE"></path>
                <path d="M178.507019,8.60195804 L178.45265,8.60195804 C177.982382,8.60195804 177.580217,8.78181818 177.245873,9.14097902 C176.910968,9.50013986 176.743936,9.93174825 176.743936,10.4369231 L176.743936,10.4951049 C176.743936,11.0002797 176.910968,11.4318881 177.245873,11.7913287 C177.580217,12.1504895 177.982382,12.3303497 178.45265,12.3303497 L178.507019,12.3303497 C178.977006,12.3303497 179.379172,12.1504895 179.714076,11.7913287 C180.04842,11.4318881 180.215732,11.0002797 180.215732,10.4951049 L180.215732,10.4369231 C180.215732,9.93174825 180.04842,9.50013986 179.714076,9.14097902 C179.379172,8.78181818 178.977006,8.60195804 178.507019,8.60195804" id="Fill-21" fill="#FEFEFE"></path>
                <path d="M178.507019,15.2425734 L178.45265,15.2425734 C177.982382,15.2425734 177.580217,15.4224336 177.245873,15.7815944 C176.910968,16.1407552 176.743936,16.5723636 176.743936,17.0775385 L176.743936,28.8442517 C176.743936,29.3491469 176.910968,29.7813147 177.245873,30.1401958 C177.580217,30.4996364 177.982382,30.6792168 178.45265,30.6792168 L178.507019,30.6792168 C178.977006,30.6792168 179.379172,30.4996364 179.714076,30.1401958 C180.04842,29.7813147 180.215732,29.3491469 180.215732,28.8442517 L180.215732,17.0775385 C180.215732,16.5723636 180.04842,16.1407552 179.714076,15.7815944 C179.379172,15.4224336 178.977006,15.2425734 178.507019,15.2425734" id="Fill-23" fill="#FEFEFE"></path>
                <path d="M188.502194,19.0723357 C189.107824,18.7134545 189.81771,18.5338741 190.631569,18.5338741 C191.155646,18.5338741 191.616665,18.6018462 192.014907,18.7375105 C192.412308,18.8737343 192.774117,19.0972308 193.099773,19.4074406 C193.515391,19.7763916 193.895136,20.0046434 194.239009,20.0919161 C194.582041,20.1794685 194.961786,20.0874406 195.378245,19.814993 L195.567977,19.6989091 C196.037964,19.4074406 196.313735,19.0387692 196.395289,18.5917762 C196.476843,18.1456224 196.327468,17.7086993 195.947722,17.2812867 C195.260257,16.5436643 194.46013,15.9663217 193.54706,15.5481399 C192.63399,15.1307972 191.662066,14.9221259 190.631569,14.9221259 C189.275136,14.9221259 188.022958,15.2815664 186.874754,15.9998881 C185.72627,16.7184895 184.8132,17.6941538 184.134983,18.9268811 C183.457047,20.1604476 183.117939,21.5042238 183.117939,22.9607273 C183.117939,24.416951 183.457047,25.7618462 184.134983,26.9945734 C184.8132,28.2278601 185.72627,29.2038042 186.874754,29.9218462 C188.022958,30.6401678 189.275136,30.9993287 190.631569,30.9993287 C191.64385,30.9993287 192.597837,30.7906573 193.492971,30.373035 C194.388104,29.955972 195.188232,29.3878601 195.893633,28.6692587 C196.291034,28.261986 196.458346,27.8348531 196.395289,27.3881399 C196.331671,26.9414266 196.065149,26.5433846 195.595162,26.194014 L195.486703,26.1061818 C195.070525,25.7956923 194.686296,25.6695385 194.333735,25.7277203 C193.981175,25.7859021 193.605633,26.0001678 193.208232,26.3685594 C192.828487,26.7179301 192.430525,26.9755524 192.014907,27.1403077 C191.598448,27.3056224 191.137429,27.3881399 190.631569,27.3881399 C189.81771,27.3881399 189.107824,27.2085594 188.502194,26.8491189 C187.896003,26.4902378 187.426015,25.9752727 187.091671,25.3053427 C186.756767,24.6354126 186.589735,23.8541538 186.589735,22.9607273 C186.589735,22.0681399 186.756767,21.2857622 187.091671,20.6163916 C187.426015,19.9464615 187.896003,19.4320559 188.502194,19.0723357" id="Fill-25" fill="#FEFEFE"></path>
                <path d="M202.374104,20.892979 C202.430716,20.7215105 202.492932,20.5547972 202.566079,20.3975944 C202.891455,19.6988531 203.366206,19.1701818 203.990054,18.8101818 C204.613901,18.4515804 205.386843,18.2714406 206.308882,18.2714406 C207.104525,18.2714406 207.796194,18.4610909 208.383888,18.8395524 C208.971302,19.2182937 209.432601,19.8297622 209.767225,20.6747972 C209.794971,20.745007 209.820194,20.8194126 209.845697,20.892979 L202.374104,20.892979 Z M210.676092,23.9217902 L210.892729,23.9217902 C211.724525,23.9217902 212.361824,23.6742378 212.805187,23.1791329 C213.24799,22.684028 213.388397,22.0096224 213.225569,21.1550769 C212.972219,19.7961958 212.502232,18.6501818 211.815327,17.7184336 C211.127862,16.7861259 210.309799,16.0871049 209.360576,15.6208112 C208.411353,15.1550769 207.394028,14.9220699 206.308882,14.9220699 C204.861926,14.9220699 203.564907,15.266965 202.416703,15.9561958 C201.268219,16.6454266 200.373085,17.597035 199.731302,18.8101818 C199.089238,20.0238881 198.768627,21.3981538 198.768627,22.9315804 C198.768627,24.4655664 199.089238,25.844028 199.731302,27.0672448 C200.373085,28.2904615 201.281671,29.2521399 202.45734,29.9508811 C203.632448,30.6499021 205.007098,30.9992727 206.580168,30.9992727 C207.502487,30.9992727 208.411353,30.8051469 209.306206,30.4168951 C210.20134,30.0286434 211.019404,29.4851469 211.760958,28.7858462 C212.158639,28.3782937 212.330436,27.9556364 212.276346,27.518993 C212.221977,27.0820699 211.959659,26.6887832 211.489671,26.3394126 L211.408117,26.2812308 C211.010155,25.9897622 210.635455,25.8733986 210.282614,25.9318601 C209.930054,25.9897622 209.545544,26.2037483 209.129926,26.5724196 C208.767837,26.9220699 208.370436,27.1889231 207.936601,27.3732587 C207.502487,27.5581538 207.050436,27.6501818 206.580168,27.6501818 C205.567327,27.6501818 204.726563,27.4708811 204.057595,27.1111608 C203.388627,26.752 202.891455,26.2227692 202.566079,25.524028 C202.351684,25.0638881 202.21492,24.5248671 202.141773,23.9217902 L210.269162,23.9217902 L210.676092,23.9217902 Z" id="Fill-27" fill="#FEFEFE"></path>
            </g>
        </g>
    </g>
</svg>