<?xml version="1.0" encoding="UTF-8"?>
<svg width="56px" height="48px" viewBox="0 0 56 48" version="1.1" xmlns="http://www.w3.org/2000/svg" xmlns:xlink="http://www.w3.org/1999/xlink">
    <title>编组</title>
    <g id="页面-1" stroke="none" stroke-width="1" fill="none" fill-rule="evenodd">
        <g id="learn移动端" transform="translate(-664.000000, -30.000000)" fill="#201515" fill-rule="nonzero">
            <g id="编组" transform="translate(664.000000, 30.000000)">
                <path d="M54.25,4.34782609 L1.75,4.34782609 C0.784,4.34782609 0,3.37391304 0,2.17391304 C0,0.973913043 0.784,0 1.75,0 L54.25,0 C55.21775,0 56,0.973913043 56,2.17391304 C56,3.37391304 55.21775,4.34782609 54.25,4.34782609 Z M54.25,26.0869565 L1.75,26.0869565 C0.784,26.0869565 0,25.1152174 0,23.9130435 C0,22.7108696 0.784,21.7391304 1.75,21.7391304 L54.25,21.7391304 C55.21775,21.7391304 56,22.7108696 56,23.9130435 C56,25.1152174 55.21775,26.0869565 54.25,26.0869565 Z M54.25,47.826087 L1.75,47.826087 C0.784,47.826087 0,46.8543478 0,45.6521739 C0,44.45 0.784,43.4782609 1.75,43.4782609 L54.25,43.4782609 C55.21775,43.4782609 56,44.45 56,45.6521739 C56,46.8543478 55.21775,47.826087 54.25,47.826087 Z" id="形状"></path>
            </g>
        </g>
    </g>
</svg>