<?xml version="1.0" encoding="UTF-8"?>
<svg width="116px" height="19px" viewBox="0 0 116 19" version="1.1" xmlns="http://www.w3.org/2000/svg" xmlns:xlink="http://www.w3.org/1999/xlink">
    <title>编组 13</title>
    <g id="页面-1" stroke="none" stroke-width="1" fill="none" fill-rule="evenodd">
        <g id="首页" transform="translate(-360.000000, -4788.000000)" fill="#FFA914" fill-rule="nonzero">
            <g id="编组-13备份-12" transform="translate(20.000000, 4750.000000)">
                <g id="编组-13" transform="translate(340.000000, 38.000000)">
                    <g id="编组" transform="translate(96.000000, 0.000000)">
                        <path d="M19.9225496,7.21306755 C19.8717074,7.05732685 19.7365428,6.94385395 19.5738882,6.92036061 L13.2110859,5.9989456 L10.3653929,0.253311821 C10.2926804,0.106384482 10.1425434,0.0133525436 9.97814119,0.0133525436 C9.813739,0.0133525436 9.66360195,0.106384482 9.59088947,0.253311821 L6.74519647,5.9989456 L0.382124352,6.92036061 C0.219479872,6.94389743 0.084348273,7.05740235 0.0335458834,7.21315202 C-0.0172565063,7.36890169 0.0250807603,7.5398851 0.142756902,7.65421196 L4.74727439,12.1265639 L3.66027095,18.4416115 C3.63251183,18.6030177 3.69911063,18.7661324 3.83206894,18.8623814 C3.96502725,18.9586304 4.14128984,18.9713239 4.28675518,18.8951257 L9.97814119,15.9136025 L15.6695272,18.8951257 C15.8149925,18.9713239 15.9912551,18.9586304 16.1242134,18.8623814 C16.2571718,18.7661324 16.3237706,18.6030177 16.2960114,18.4416115 L15.209008,12.1265639 L19.8135255,7.65421196 C19.9311682,7.53982813 19.9734341,7.36880732 19.9225496,7.21306755 Z" id="路径"></path>
                    </g>
                    <g id="编组备份-2" transform="translate(72.000000, 0.000000)">
                        <path d="M19.9225496,7.21306755 C19.8717074,7.05732685 19.7365428,6.94385395 19.5738882,6.92036061 L13.2110859,5.9989456 L10.3653929,0.253311821 C10.2926804,0.106384482 10.1425434,0.0133525436 9.97814119,0.0133525436 C9.813739,0.0133525436 9.66360195,0.106384482 9.59088947,0.253311821 L6.74519647,5.9989456 L0.382124352,6.92036061 C0.219479872,6.94389743 0.084348273,7.05740235 0.0335458834,7.21315202 C-0.0172565063,7.36890169 0.0250807603,7.5398851 0.142756902,7.65421196 L4.74727439,12.1265639 L3.66027095,18.4416115 C3.63251183,18.6030177 3.69911063,18.7661324 3.83206894,18.8623814 C3.96502725,18.9586304 4.14128984,18.9713239 4.28675518,18.8951257 L9.97814119,15.9136025 L15.6695272,18.8951257 C15.8149925,18.9713239 15.9912551,18.9586304 16.1242134,18.8623814 C16.2571718,18.7661324 16.3237706,18.6030177 16.2960114,18.4416115 L15.209008,12.1265639 L19.8135255,7.65421196 C19.9311682,7.53982813 19.9734341,7.36880732 19.9225496,7.21306755 Z" id="路径"></path>
                    </g>
                    <g id="编组备份-3" transform="translate(48.000000, 0.000000)">
                        <path d="M19.9225496,7.21306755 C19.8717074,7.05732685 19.7365428,6.94385395 19.5738882,6.92036061 L13.2110859,5.9989456 L10.3653929,0.253311821 C10.2926804,0.106384482 10.1425434,0.0133525436 9.97814119,0.0133525436 C9.813739,0.0133525436 9.66360195,0.106384482 9.59088947,0.253311821 L6.74519647,5.9989456 L0.382124352,6.92036061 C0.219479872,6.94389743 0.084348273,7.05740235 0.0335458834,7.21315202 C-0.0172565063,7.36890169 0.0250807603,7.5398851 0.142756902,7.65421196 L4.74727439,12.1265639 L3.66027095,18.4416115 C3.63251183,18.6030177 3.69911063,18.7661324 3.83206894,18.8623814 C3.96502725,18.9586304 4.14128984,18.9713239 4.28675518,18.8951257 L9.97814119,15.9136025 L15.6695272,18.8951257 C15.8149925,18.9713239 15.9912551,18.9586304 16.1242134,18.8623814 C16.2571718,18.7661324 16.3237706,18.6030177 16.2960114,18.4416115 L15.209008,12.1265639 L19.8135255,7.65421196 C19.9311682,7.53982813 19.9734341,7.36880732 19.9225496,7.21306755 Z" id="路径"></path>
                    </g>
                    <g id="编组备份-4" transform="translate(24.000000, 0.000000)">
                        <path d="M19.9225496,7.21306755 C19.8717074,7.05732685 19.7365428,6.94385395 19.5738882,6.92036061 L13.2110859,5.9989456 L10.3653929,0.253311821 C10.2926804,0.106384482 10.1425434,0.0133525436 9.97814119,0.0133525436 C9.813739,0.0133525436 9.66360195,0.106384482 9.59088947,0.253311821 L6.74519647,5.9989456 L0.382124352,6.92036061 C0.219479872,6.94389743 0.084348273,7.05740235 0.0335458834,7.21315202 C-0.0172565063,7.36890169 0.0250807603,7.5398851 0.142756902,7.65421196 L4.74727439,12.1265639 L3.66027095,18.4416115 C3.63251183,18.6030177 3.69911063,18.7661324 3.83206894,18.8623814 C3.96502725,18.9586304 4.14128984,18.9713239 4.28675518,18.8951257 L9.97814119,15.9136025 L15.6695272,18.8951257 C15.8149925,18.9713239 15.9912551,18.9586304 16.1242134,18.8623814 C16.2571718,18.7661324 16.3237706,18.6030177 16.2960114,18.4416115 L15.209008,12.1265639 L19.8135255,7.65421196 C19.9311682,7.53982813 19.9734341,7.36880732 19.9225496,7.21306755 Z" id="路径"></path>
                    </g>
                    <g id="编组备份-5">
                        <path d="M19.9225496,7.21306755 C19.8717074,7.05732685 19.7365428,6.94385395 19.5738882,6.92036061 L13.2110859,5.9989456 L10.3653929,0.253311821 C10.2926804,0.106384482 10.1425434,0.0133525436 9.97814119,0.0133525436 C9.813739,0.0133525436 9.66360195,0.106384482 9.59088947,0.253311821 L6.74519647,5.9989456 L0.382124352,6.92036061 C0.219479872,6.94389743 0.084348273,7.05740235 0.0335458834,7.21315202 C-0.0172565063,7.36890169 0.0250807603,7.5398851 0.142756902,7.65421196 L4.74727439,12.1265639 L3.66027095,18.4416115 C3.63251183,18.6030177 3.69911063,18.7661324 3.83206894,18.8623814 C3.96502725,18.9586304 4.14128984,18.9713239 4.28675518,18.8951257 L9.97814119,15.9136025 L15.6695272,18.8951257 C15.8149925,18.9713239 15.9912551,18.9586304 16.1242134,18.8623814 C16.2571718,18.7661324 16.3237706,18.6030177 16.2960114,18.4416115 L15.209008,12.1265639 L19.8135255,7.65421196 C19.9311682,7.53982813 19.9734341,7.36880732 19.9225496,7.21306755 Z" id="路径"></path>
                    </g>
                </g>
            </g>
        </g>
    </g>
</svg>