<?xml version="1.0" encoding="UTF-8"?>
<svg width="32px" height="32px" viewBox="0 0 32 32" version="1.1" xmlns="http://www.w3.org/2000/svg" xmlns:xlink="http://www.w3.org/1999/xlink">
    <title>编组 4</title>
    <g id="页面-1" stroke="none" stroke-width="1" fill="none" fill-rule="evenodd">
        <g id="首页" transform="translate(-696.000000, -433.000000)">
            <g id="编组-4" transform="translate(696.000000, 433.000000)">
                <circle id="椭圆形" fill="#FFFFFF" cx="16" cy="16" r="16"></circle>
                <g id="编组" transform="translate(6.000000, 6.000000)" fill-rule="nonzero">
                    <path d="M4.16401562,10.0680078 C4.16401562,9.41400391 4.27401562,8.78699219 4.46901562,8.19900391 L1.04401563,5.60849609 C0.355068493,6.99398702 -0.00233435202,8.52067861 1.9583008e-05,10.0680078 C1.9583008e-05,11.6705078 0.37503125,13.1819922 1.04202344,14.5240039 L4.46602734,11.9290039 C4.26602734,11.3290039 4.16452344,10.7004883 4.16401562,10.0680078" id="路径" fill="#FBBC05"></path>
                    <path d="M10.1805195,4.12 C11.5451109,4.11726516 12.86882,4.58563954 13.9280195,5.44599609 L16.8895234,2.51800781 C15.0850312,0.963007812 12.7714961,0.00150390625 10.1805391,0.00150390625 C6.15753125,0.00150390625 2.69952344,2.28 1.04401562,5.60849609 L4.47151562,8.19902344 C5.26051953,5.82601562 7.51051953,4.11953125 10.1815156,4.11953125" id="路径" fill="#EA4335"></path>
                    <path d="M10.2240352,15.8834961 C7.53901563,15.8834961 5.27801953,14.1879883 4.48401562,11.8294922 L1.04151562,14.4044922 C2.70503125,17.7125 6.18003125,19.9759961 10.2240156,19.9759961 C12.7185273,19.9759961 15.1005195,19.1090039 16.8890156,17.4830078 L13.6205195,15.0089844 C12.6990352,15.5775 11.5375117,15.8839844 10.2230195,15.8839844" id="路径" fill="#34A853"></path>
                    <path d="M19.9890156,9.97300781 C19.9890156,9.38199219 19.8955195,8.745 19.7565156,8.15400391 L10.2230195,8.15400391 L10.2230195,12.0190039 L15.7100313,12.0190039 C15.4365156,13.3369922 14.6900313,14.35 13.6210273,15.0090039 L16.8890156,17.4830078 C18.7675313,15.7765039 19.9890156,13.2339844 19.9890156,9.97300781" id="路径" fill="#4285F4"></path>
                </g>
            </g>
        </g>
    </g>
</svg>