<?xml version="1.0" encoding="UTF-8"?>
<svg width="32px" height="32px" viewBox="0 0 32 32" version="1.1" xmlns="http://www.w3.org/2000/svg" xmlns:xlink="http://www.w3.org/1999/xlink">
    <title>copilot备份</title>
    <g id="24.8" stroke="none" stroke-width="1" fill="none" fill-rule="evenodd">
        <g id="products展开" transform="translate(-492.000000, -412.000000)" fill-rule="nonzero">
            <g id="编组" transform="translate(492.000000, 412.000000)">
                <path d="M22.1960313,32 L5.00300661,32 C2.23980758,32 0,29.7601924 0,26.9969934 L0,5.00300661 C0,2.23980758 2.23980758,0 5.00300661,0 L22.1960313,0 C24.9592303,0 27.1990379,2.23980758 27.1990379,5.00300661 L27.1990379,26.9989176 C27.1990379,29.7601924 24.9573061,32 22.1960313,32 L22.1960313,32 Z" id="路径" fill="#4BE2AC"></path>
                <path d="M19.7599519,9.08238124 L7.54107035,9.08238124 C6.69055923,9.08238124 6.0016837,8.39350571 6.0016837,7.54299459 C6.0016837,6.69248346 6.69055923,6.00360794 7.54107035,6.00360794 L19.7599519,6.00360794 C20.610463,6.00360794 21.2993385,6.69248346 21.2993385,7.54299459 C21.2993385,8.39350571 20.610463,9.08238124 19.7599519,9.08238124 Z M19.7599519,15.1860493 L7.54107035,15.1860493 C6.69055923,15.1860493 6.0016837,14.4971738 6.0016837,13.6466627 C6.0016837,12.7961515 6.69055923,12.107276 7.54107035,12.107276 L19.7599519,12.107276 C20.610463,12.107276 21.2993385,12.7961515 21.2993385,13.6466627 C21.2993385,14.4971738 20.610463,15.1860493 19.7599519,15.1860493 Z M13.3926639,21.2877931 L7.54299459,21.2877931 C6.69248346,21.2877931 6.00360794,20.5989176 6.00360794,19.7484065 C6.00360794,18.8978954 6.69248346,18.2090198 7.54299459,18.2090198 L13.3945881,18.2090198 C14.2450992,18.2090198 14.9339747,18.8978954 14.9339747,19.7484065 C14.9339747,20.5989176 14.243175,21.2877931 13.3926639,21.2877931 Z" id="形状" fill="#FFFFFF"></path>
                <path d="M16.775466,24.734095 C16.775466,28.6768037 19.9716629,31.8730006 23.9143716,31.8730006 C27.8570803,31.8730006 31.0532772,28.6768037 31.0532772,24.734095 C31.0532772,20.7913863 27.8570803,17.5951894 23.9143716,17.5951894 C19.9716629,17.5951894 16.775466,20.7913863 16.775466,24.734095 Z" id="路径" fill="#69EDB7"></path>
                <path d="M23.9239928,17.6028863 C19.9812387,17.6028863 16.7850872,20.7990379 16.7850872,24.7417919 C16.7850872,28.4998196 19.6887553,31.5766687 23.3755863,31.8576067 C25.5692123,31.3284426 27.2009621,29.352255 27.2009621,26.9950692 L27.2009621,18.3956705 C26.1872393,17.8745389 25.0638226,17.6028863 23.9239928,17.6028863 L23.9239928,17.6028863 Z" id="路径" fill="#06CC76"></path>
                <polygon id="路径" fill="#FFFFFF" points="19.8831028 28.5286831 22.432712 23.4275406 28.1034275 20.9356584 25.0323512 25.9656043"></polygon>
            </g>
        </g>
    </g>
</svg>