<?xml version="1.0" encoding="UTF-8"?>
<svg width="32px" height="32px" viewBox="0 0 32 32" version="1.1" xmlns="http://www.w3.org/2000/svg" xmlns:xlink="http://www.w3.org/1999/xlink">
    <title>copilot</title>
    <g id="24.8" stroke="none" stroke-width="1" fill="none" fill-rule="evenodd">
        <g id="products展开" transform="translate(-984.000000, -264.000000)" fill-rule="nonzero">
            <g id="mine备份-2" transform="translate(984.000000, 264.000000)">
                <g id="编组" transform="translate(0.804372, 1.608852)">
                    <path d="M13.6955455,0 C6.13181818,0 0,5.71554545 0,12.7645455 C0,15.8010909 1.13827273,18.5889091 3.03827273,20.7808182 L1.33863636,25.3321818 C1.08127273,26.0196364 1.70309091,26.7122727 2.41472727,26.5326364 L9.18563636,24.8191818 C10.5985455,25.2786364 12.1150909,25.5290909 13.6955455,25.5290909 C21.2592727,25.5290909 27.3910909,19.8135455 27.3910909,12.7645455 C27.3910909,5.71554545 21.2592727,0 13.6955455,0 Z" id="路径" fill="#A6ADF6"></path>
                    <path d="M13.2309091,19.7444545 C13.2309091,22.8083318 14.8654681,25.6394711 17.5188636,27.1714098 C20.1722591,28.7033484 23.4413772,28.7033484 26.0947728,27.1714098 C28.7481683,25.6394711 30.3827273,22.8083318 30.3827273,19.7444545 C30.3827273,15.0081107 26.543162,11.1685455 21.8068182,11.1685455 C17.0704744,11.1685455 13.2309091,15.0081107 13.2309091,19.7444545 Z" id="路径" fill="#A6ADF6"></path>
                    <path d="M15.3882727,25.4306364 C21.9899091,24.6723636 27.1371818,19.5337273 27.3807273,13.2291818 C25.8814545,11.9458182 23.9348182,11.1668182 21.8068182,11.1668182 C17.0706364,11.1668182 13.2309064,15.0065455 13.2309064,19.7427273 C13.2291818,21.9277273 14.0461818,23.9175455 15.3882727,25.4306364 L15.3882727,25.4306364 Z" id="路径" fill="#635DF7"></path>
                    <g transform="translate(17.595628, 16.791148)" fill="#FFFFFF" id="路径">
                        <path d="M0.659117857,3.18491833 L3.16978551,5.09224785 C3.16978551,5.09224785 3.30802832,5.16068009 3.48194668,5.09224785 L9.66273776,0.0151016304 C9.66273776,0.0151016304 10.5430323,-0.169139031 10.3798166,0.749432265 C9.78314279,1.34602108 3.70670272,7.10134839 3.70670272,7.10134839 C3.70670272,7.10134839 3.30802832,7.32331451 2.92719169,7.10134839 C2.54635507,6.72848038 0.00179562716,3.98680388 0.00179562716,3.98680388 C0.00179562716,3.98680388 -0.0677717183,3.32266017 0.659117857,3.18579567 L0.659117857,3.18491833 Z"></path>
                    </g>
                </g>
            </g>
        </g>
    </g>
</svg>