<?xml version="1.0" encoding="UTF-8"?>
<svg width="32px" height="32px" viewBox="0 0 32 32" version="1.1" xmlns="http://www.w3.org/2000/svg" xmlns:xlink="http://www.w3.org/1999/xlink">
    <title>copilot备份</title>
    <g id="页面-1" stroke="none" stroke-width="1" fill="none" fill-rule="evenodd">
        <g id="products展开" transform="translate(-492.000000, -264.000000)" fill-rule="nonzero">
            <g id="mine备份" transform="translate(492.000000, 264.000000)">
                <g id="编组" transform="translate(2.666667, 1.333333)">
                    <path d="M20.9491765,29.3249755 L4.48972549,29.3249755 C2.01192157,29.3249755 0.00345098039,27.3165049 0.00345098039,24.838701 L0.00345098039,7.9927402 C0.00345098039,5.51493627 2.01192157,3.50646569 4.48972549,3.50646569 L20.9491765,3.50646569 C23.4269804,3.50646569 25.435451,5.51493627 25.435451,7.9927402 L25.435451,24.838701 C25.435451,27.3147794 23.4269804,29.3249755 20.9491765,29.3249755 L20.9491765,29.3249755 Z" id="路径" fill="#FFAC3E"></path>
                    <path d="M16.9667451,7.88230882 L8.47043137,7.88230882 C6.62588235,7.88230882 5.12988235,6.38630882 5.12988235,4.5417598 L5.12988235,3.35979902 C5.12988235,1.51525 6.62588235,0.01925 8.47043137,0.01925 L16.9667451,0.01925 C18.8112941,0.01925 20.3072941,1.51525 20.3072941,3.35979902 L20.3072941,4.5417598 C20.3072941,6.38630882 18.8130196,7.88230882 16.9667451,7.88230882 Z" id="路径" fill="#FFAC3E"></path>
                    <path d="M5.13160784,3.50646569 L5.13160784,4.5417598 C5.13160784,6.38630882 6.62760784,7.88230882 8.47215686,7.88230882 L16.9684706,7.88230882 C18.8130196,7.88230882 20.3090196,6.38630882 20.3090196,4.5417598 L20.3090196,3.50646569 L5.13160784,3.50646569 Z" id="路径" fill="#FF7C0E"></path>
                    <path d="M11.4261961,20.535332 C11.0724706,20.535332 10.7187451,20.4007402 10.4495686,20.1315637 L7.75607843,17.4380735 C7.21772549,16.8997206 7.21772549,16.0248971 7.75607843,15.4865441 C8.29615686,14.9481912 9.1692549,14.9481912 9.70760784,15.4865441 L11.4503529,17.2292892 L15.7347451,13.1726618 C16.0005552,12.920821 16.3555644,12.7849575 16.7215946,12.7949901 C17.0876248,12.8050228 17.4346587,12.9601289 17.6862745,13.226152 C17.9381152,13.4919621 18.0739788,13.8469713 18.0639461,14.2130015 C18.0539135,14.5790317 17.8988074,14.9260656 17.6327843,15.1776814 L12.3734902,20.1574461 C12.1182114,20.4007609 11.7788556,20.5361323 11.4261961,20.535332 Z" id="路径" fill="#FFFFFF"></path>
                </g>
            </g>
        </g>
    </g>
</svg>