<?xml version="1.0" encoding="UTF-8"?>
<svg width="32px" height="32px" viewBox="0 0 32 32" version="1.1" xmlns="http://www.w3.org/2000/svg" xmlns:xlink="http://www.w3.org/1999/xlink">
    <title>copilot</title>
    <g id="页面-1" stroke="none" stroke-width="1" fill="none" fill-rule="evenodd">
        <g id="products展开" transform="translate(-984.000000, -264.000000)" fill-rule="nonzero">
            <g id="mine备份" transform="translate(984.000000, 264.000000)">
                <g id="编组" transform="translate(0.800000, 1.600000)">
                    <path d="M13.6999176,0.00885227273 C6.13619034,0.00885227273 0.00437215909,5.72439773 0.00437215909,12.7733977 C0.00437215909,15.8099432 1.14264489,18.5977614 3.04264489,20.7896705 L1.34300852,25.3410341 C1.08564489,26.0284886 1.70746307,26.721125 2.41909943,26.5414886 L9.19000852,24.8280341 C10.6029176,25.2874886 12.1194631,25.5379432 13.6999176,25.5379432 C21.2636449,25.5379432 27.3954631,19.8223977 27.3954631,12.7733977 C27.3954631,5.72439773 21.2636449,0.00885227273 13.6999176,0.00885227273 Z" id="路径" fill="#4BE2AC"></path>
                    <path d="M13.2352813,19.7533068 C13.2352813,22.8171841 14.8698402,25.6483234 17.5232358,27.1802621 C20.1766313,28.7122007 23.4457494,28.7122007 26.0991449,27.1802621 C28.7525404,25.6483234 30.3870994,22.8171841 30.3870994,19.7533068 C30.3870994,15.016963 26.5475341,11.1773977 21.8111903,11.1773977 C17.0748465,11.1773977 13.2352813,15.016963 13.2352813,19.7533068 Z" id="路径" fill="#4BE2AC"></path>
                    <path d="M15.3926449,25.4394886 C21.9942812,24.6812159 27.141554,19.5425795 27.3850994,13.2380341 C25.8858267,11.9546705 23.9391903,11.1756705 21.8111903,11.1756705 C17.0750085,11.1756705 13.2352785,15.0153977 13.2352785,19.7515795 C13.233554,21.9365795 14.050554,23.9263977 15.3926449,25.4394886 L15.3926449,25.4394886 Z" id="路径" fill="#06CC76"></path>
                    <g transform="translate(17.600000, 16.800000)" fill="#FFFFFF" id="路径">
                        <path d="M0.659117857,3.18491833 L3.16978551,5.09224785 C3.16978551,5.09224785 3.30802832,5.16068009 3.48194668,5.09224785 L9.66273776,0.0151016304 C9.66273776,0.0151016304 10.5430323,-0.169139031 10.3798166,0.749432265 C9.78314279,1.34602108 3.70670272,7.10134839 3.70670272,7.10134839 C3.70670272,7.10134839 3.30802832,7.32331451 2.92719169,7.10134839 C2.54635507,6.72848038 0.00179562716,3.98680388 0.00179562716,3.98680388 C0.00179562716,3.98680388 -0.0677717183,3.32266017 0.659117857,3.18579567 L0.659117857,3.18491833 Z"></path>
                    </g>
                </g>
            </g>
        </g>
    </g>
</svg>