<?xml version="1.0" encoding="UTF-8"?>
<svg width="32px" height="32px" viewBox="0 0 32 32" version="1.1" xmlns="http://www.w3.org/2000/svg" xmlns:xlink="http://www.w3.org/1999/xlink">
    <title>copilot</title>
    <g id="页面-1" stroke="none" stroke-width="1" fill="none" fill-rule="evenodd">
        <g id="products展开" transform="translate(-984.000000, -116.000000)" fill-rule="nonzero">
            <g id="mine备份" transform="translate(984.000000, 116.000000)">
                <g id="编组" transform="translate(3.200000, 0.800000)">
                    <path d="M21.6740291,30.2719157 L4.61998256,30.2719157 C2.08193605,30.2719157 0.0246337209,28.2146134 0.0246337209,25.6765669 L0.0246337209,8.22484593 C0.0246337209,5.68679942 2.08193605,3.62949709 4.61998256,3.62949709 L21.6740291,3.62949709 C24.2120756,3.62949709 26.2693779,5.68679942 26.2693779,8.22484593 L26.2693779,25.6765669 C26.2693779,28.2146134 24.2120756,30.2719157 21.6740291,30.2719157 Z" id="路径" fill="#FE8468"></path>
                    <path d="M17.5558895,8.1435436 L8.73635465,8.1435436 C6.8469593,8.1435436 5.31458721,6.61117151 5.31458721,4.72177616 L5.31458721,3.45098547 C5.31458721,1.56159012 6.8469593,0.0292180233 8.73635465,0.0292180233 L17.5558895,0.0292180233 C19.4452849,0.0292180233 20.977657,1.56159012 20.977657,3.45098547 L20.977657,4.72177616 C20.977657,6.61293895 19.4452849,8.1435436 17.5558895,8.1435436 Z" id="路径" fill="#FE8468"></path>
                    <path d="M5.31635465,3.62949709 L5.31635465,4.69703198 C5.31635465,6.60056686 6.8593314,8.1435436 8.76286628,8.1435436 L17.5311453,8.1435436 C19.4346802,8.1435436 20.977657,6.60056686 20.977657,4.69703198 L20.977657,3.62949709 L5.31635465,3.62949709 Z" id="路径" fill="#F66442"></path>
                    <path d="M7.21281977,21.0405676 C6.85402907,21.0405676 6.49347093,20.9044738 6.21775,20.6305203 C5.66277326,20.0808459 5.65923837,19.1865203 6.20714535,18.6315436 L10.1874244,14.6123808 C10.4649128,14.3313576 10.8519826,14.1828924 11.2425872,14.1934971 C11.6367267,14.2076366 12.0078895,14.3861483 12.265936,14.6866134 L14.4752384,17.2617762 L18.1550523,14.0803808 C18.7453779,13.5695901 19.6397035,13.6349855 20.1487267,14.225311 C20.6595174,14.8156366 20.5941221,15.7081948 20.0037965,16.2189855 L15.2493779,20.3300552 C14.9648649,20.576142 14.5941108,20.6988788 14.2189593,20.6711715 C13.8440816,20.6424304 13.4958408,20.4664036 13.2504012,20.1815901 L11.1188663,17.693032 L8.21849419,20.6216831 C7.95272007,20.890099 7.59055356,21.0409487 7.21281977,21.0405676 L7.21281977,21.0405676 Z" id="路径" fill="#FFFFFF"></path>
                </g>
            </g>
        </g>
    </g>
</svg>