<?xml version="1.0" encoding="UTF-8"?>
<svg width="32px" height="32px" viewBox="0 0 32 32" version="1.1" xmlns="http://www.w3.org/2000/svg" xmlns:xlink="http://www.w3.org/1999/xlink">
    <title>矩形 2</title>
    <g id="页面-1" stroke="none" stroke-width="1" fill="none" fill-rule="evenodd">
        <g id="products展开" transform="translate(-492.000000, -116.000000)" fill-rule="nonzero">
            <g id="矩形-2" transform="translate(492.000000, 116.000000)">
                <g id="编组" transform="translate(2.666667, 1.333333)">
                    <path d="M15.343518,29.2352994 L4.56747006,29.2352994 C2.04515469,29.2352994 0.000603792415,27.1907485 0.000603792415,24.6684331 L0.000603792415,4.59178643 C0.000603792415,2.06947106 2.04515469,0.0249201597 4.56747006,0.0249201597 L20.2616816,0.0249201597 C22.783997,0.0249201597 24.8285479,2.06947106 24.8285479,4.59178643 L24.8285479,15.950988 L15.343518,29.2352994 Z" id="路径" fill="#80B7F9"></path>
                    <path d="M18.0397255,8.31553892 L6.88603293,8.31553892 C6.10966567,8.31553892 5.48084331,7.68671657 5.48084331,6.9103493 C5.48084331,6.13398204 6.10966567,5.50515968 6.88603293,5.50515968 L18.0397255,5.50515968 C18.8160928,5.50515968 19.4449152,6.13398204 19.4449152,6.9103493 C19.4449152,7.68671657 18.8160928,8.31553892 18.0397255,8.31553892 Z M18.0397255,13.8871158 L6.88603293,13.8871158 C6.10966567,13.8871158 5.48084331,13.2582934 5.48084331,12.4819261 C5.48084331,11.7055589 6.10966567,11.0767365 6.88603293,11.0767365 L18.0397255,11.0767365 C18.8160928,11.0767365 19.4449152,11.7055589 19.4449152,12.4819261 C19.4449152,13.2582934 18.8160928,13.8871158 18.0397255,13.8871158 Z M13.7468713,19.4586926 L6.88603293,19.4586926 C6.10966567,19.4586926 5.48084331,18.8298703 5.48084331,18.053503 C5.48084331,17.2771357 6.10966567,16.6483134 6.88603293,16.6483134 L13.7468713,16.6483134 C14.5232385,16.6483134 15.1520609,17.2771357 15.1520609,18.053503 C15.1520609,18.8298703 14.5232385,19.4586926 13.7468713,19.4586926 Z" id="形状" fill="#FFFFFF"></path>
                    <path d="M18.8248752,28.209511 L15.6913024,29.2036826 C14.8798054,29.4618862 14.0525,28.8594112 14.0472305,28.007515 L14.0278805,24.8546208 C14.0261527,24.5946607 14.1051946,24.3399701 14.254496,24.1256786 L20.8659132,14.6248403 C21.0573346,14.3499349 21.3501455,14.1623561 21.6799001,14.103389 C22.0096546,14.0444219 22.3493267,14.1188993 22.6241567,14.3104291 L25.759486,16.491986 C26.0343915,16.6834075 26.2219702,16.9762184 26.2809373,17.3059729 C26.3399044,17.6357275 26.265427,17.9753996 26.0738972,18.2502295 L19.4800449,27.726477 C19.3205126,27.9549574 19.0903124,28.124676 18.8248752,28.209511 L18.8248752,28.209511 Z" id="路径" fill="#80B7F9"></path>
                    <path d="M24.8285479,15.9492315 L24.8285479,15.8438423 L22.6224002,14.3086727 C22.0497854,13.9099501 21.2628792,14.0522255 20.8641567,14.6230838 L14.2527395,24.1239222 C14.1036815,24.3376417 14.0245214,24.592304 14.026128,24.8528643 L14.0454741,28.0057585 C14.048987,28.6310679 14.4968912,29.1193713 15.0554541,29.2335429 L15.343518,29.2335429 L24.8285479,15.9492315 L24.8285479,15.9492315 Z" id="路径" fill="#3E8BF8"></path>
                </g>
            </g>
        </g>
    </g>
</svg>